<svg
  xmlns="http://www.w3.org/2000/svg"
  xmlnsXlink="http://www.w3.org/1999/xlink"
  version="1.1"
  x="0px"
  y="0px"
  viewBox="0 0 32 40"
  style={{ enableBackground: "new 0 0 32 32" }}
  xmlSpace="preserve"
>
  <style
    type="text/css"
    dangerouslySetInnerHTML={{
      __html: "\n\t.st0{display:none;}\n\t.st1{display:inline;}\n"
    }}
  />
  <g>
    <path d="M26.5,2.799h-21c-2.426,0-4.4,1.974-4.4,4.4v13.46c0,2.426,1.974,4.4,4.4,4.4h11.34c0.497,0,0.9-0.403,0.9-0.9   s-0.403-0.9-0.9-0.9H5.5c-1.434,0-2.6-1.167-2.6-2.6v-6.98h26.2v2.99c0,0.497,0.403,0.9,0.9,0.9s0.9-0.403,0.9-0.9v-9.47   C30.9,4.773,28.926,2.799,26.5,2.799z M5.5,4.599h21c1.434,0,2.6,1.167,2.6,2.6v0.597H2.9V7.199C2.9,5.766,4.066,4.599,5.5,4.599z    M2.9,11.879V9.596h26.2v2.284H2.9z" />
    <path d="M6.308,17.367h2.757c0.497,0,0.9-0.403,0.9-0.9s-0.403-0.9-0.9-0.9H6.308c-0.497,0-0.9,0.403-0.9,0.9   S5.811,17.367,6.308,17.367z" />
    <path d="M6.308,20.755h5.514c0.497,0,0.9-0.403,0.9-0.9s-0.403-0.9-0.9-0.9H6.308c-0.497,0-0.9,0.403-0.9,0.9   S5.811,20.755,6.308,20.755z" />
    <path d="M21.091,19.392c-1.085,1.085-1.683,2.528-1.683,4.063c0,1.535,0.598,2.978,1.683,4.063   c1.086,1.085,2.528,1.683,4.063,1.683s2.978-0.598,4.063-1.683c2.239-2.24,2.239-5.885,0-8.125   C26.976,17.151,23.331,17.152,21.091,19.392z M27.944,26.245c-1.49,1.49-4.09,1.491-5.58,0c-0.746-0.745-1.156-1.736-1.156-2.79   c0-1.054,0.41-2.045,1.156-2.791c0.769-0.769,1.779-1.154,2.79-1.154s2.021,0.385,2.79,1.154   C29.482,22.203,29.482,24.707,27.944,26.245z" />
    <path d="M26.964,21.644c-0.352-0.352-0.922-0.352-1.273,0l-0.537,0.536l-0.537-0.536c-0.352-0.352-0.922-0.352-1.273,0   s-0.352,0.921,0,1.272l0.537,0.537l-0.537,0.537c-0.352,0.351-0.352,0.921,0,1.272c0.176,0.176,0.406,0.264,0.637,0.264   s0.461-0.088,0.637-0.264l0.537-0.536l0.537,0.536c0.176,0.176,0.406,0.264,0.637,0.264s0.461-0.088,0.637-0.264   c0.352-0.352,0.352-0.921,0-1.272l-0.537-0.537l0.537-0.537C27.315,22.565,27.315,21.996,26.964,21.644z" />
  </g>
  <text
    x={0}
    y={47}
    fill="#000000"
    fontSize="5px"
    fontWeight="bold"
    fontFamily="'Helvetica Neue', Helvetica, Arial-Unicode, Arial, Sans-serif"
  >
    Created by Rikas Dzihab
  </text>
  <text
    x={0}
    y={52}
    fill="#000000"
    fontSize="5px"
    fontWeight="bold"
    fontFamily="'Helvetica Neue', Helvetica, Arial-Unicode, Arial, Sans-serif"
  >
    from the Noun Project
  </text>
</svg>
