<?xml version="1.0" encoding="iso-8859-1"?>
<!-- Uploaded to: SVG Repo, www.svgrepo.com, Generator: SVG Repo Mixer Tools -->
<svg version="1.1" id="Layer_1" xmlns="http://www.w3.org/2000/svg" xmlns:xlink="http://www.w3.org/1999/xlink" 
	 viewBox="0 0 512 512" xml:space="preserve">
<path style="fill:#2F2D30;" d="M448.664,151.974l-1.687,3.266c-4.949,9.578-16.833,13.366-26.411,8.418l-51.05-26.374
	c-9.578-4.949-13.366-16.833-8.418-26.411l1.687-3.266c4.949-9.578,16.833-13.366,26.411-8.418l51.05,26.374
	C449.825,130.511,453.613,142.396,448.664,151.974z"/>
<polygon style="fill:#C6C3CB;" points="182.948,131.424 182.948,108.882 287.371,108.882 287.371,226.428 182.948,226.428 
	182.948,188.574 "/>
<polygon style="opacity:0.32;fill:#2F2D30;enable-background:new    ;" points="257.354,108.882 257.354,196.409 182.948,196.409 
	182.948,226.428 287.371,226.428 287.371,108.882 "/>
<rect x="182.952" y="7.604" style="fill:#3E3B43;" width="104.428" height="42.876"/>
<rect x="220.606" y="50.482" style="fill:#77757E;" width="29.294" height="58.398"/>
<g>
	<rect x="217.879" y="226.426" style="fill:#2F2D30;" width="34.745" height="277.97"/>
	<polygon style="fill:#2F2D30;" points="95.897,504.396 61.151,504.396 183.133,226.428 217.879,226.428 	"/>
	<polygon style="fill:#2F2D30;" points="374.606,504.396 409.352,504.396 287.371,226.428 252.625,226.428 	"/>
</g>
<path d="M457.147,134.723c-2.211-6.938-6.974-12.59-13.411-15.916l-51.049-26.374c-11.569-5.978-25.484-2.812-33.459,6.846
	l-79.735-41.193h7.879c4.2,0,7.604-3.404,7.604-7.604V7.604c0-4.2-3.404-7.604-7.604-7.604H182.948c-4.2,0-7.604,3.404-7.604,7.604
	v42.878c0,4.2,3.404,7.604,7.604,7.604h30.054v43.193h-30.054c-4.2,0-7.604,3.404-7.604,7.604v22.541c0,4.2,3.404,7.604,7.604,7.604
	c4.2,0,7.604-3.404,7.604-7.604v-14.937h30.054H249.9h29.868v102.337h-27.142H217.88h-27.327v-30.25c0-4.2-3.404-7.604-7.604-7.604
	c-4.2,0-7.604,3.404-7.604,7.604v36.679L54.188,501.34c-1.032,2.351-0.807,5.064,0.597,7.214S58.584,512,61.151,512h34.746
	c3.018,0,5.751-1.785,6.963-4.548l107.414-244.772v241.717c0,4.2,3.404,7.604,7.604,7.604h34.746c4.2,0,7.604-3.404,7.604-7.604
	V262.679l107.414,244.772c1.213,2.764,3.946,4.548,6.963,4.548h34.746c2.567,0,4.963-1.296,6.366-3.445
	c1.403-2.149,1.628-4.862,0.597-7.214L294.975,224.832V108.883c0-4.2-3.404-7.604-7.604-7.604h-29.868V63.843l94.744,48.947
	c-3.261,12.092,2.209,25.273,13.778,31.249l51.051,26.374c3.897,2.014,8.134,3.033,12.413,3.033c2.786,0,5.59-0.434,8.328-1.306
	c6.938-2.211,12.59-6.974,15.916-13.411l1.687-3.266C458.745,149.027,459.36,141.662,457.147,134.723z M90.929,496.792H72.791
	l115.307-262.76h18.138L90.929,496.792z M245.021,496.792h-19.538v-262.76h19.538V496.792z M379.574,496.792l-115.308-262.76h18.139
	l115.307,262.76H379.574z M190.551,15.208h89.216v27.67h-29.868h-29.295H190.55L190.551,15.208L190.551,15.208z M228.209,101.279
	V58.086h14.087v43.193H228.209z M441.909,148.484l-1.687,3.266c-1.461,2.828-3.955,4.923-7.024,5.902
	c-3.066,0.977-6.314,0.712-9.142-0.749l-51.051-26.374c-5.877-3.037-8.188-10.289-5.152-16.166l1.687-3.266
	c1.461-2.828,3.955-4.923,7.024-5.902c1.215-0.387,2.459-0.579,3.692-0.579c1.882,0,3.742,0.446,5.451,1.329l51.05,26.374
	c2.828,1.461,4.923,3.955,5.902,7.024C443.636,142.409,443.369,145.656,441.909,148.484z"/>
</svg>