<svg width="156" height="150" viewBox="0 0 156 150" fill="none" xmlns="http://www.w3.org/2000/svg">
<path d="M141.273 78.7796C141.273 84.2714 140.705 89.3845 139.569 94.4976C137.486 103.588 133.698 112.109 128.396 119.495C128.206 119.684 128.206 119.874 128.017 119.874C127.07 121.199 126.123 122.336 125.176 123.472C124.987 123.661 124.987 123.851 124.797 123.851C121.767 127.449 118.169 130.857 114.382 133.887C110.405 137.107 106.049 139.758 101.504 142.03C96.0126 144.682 90.3314 146.575 84.0821 147.901C83.3246 148.09 82.3777 148.28 81.6202 148.28C80.8627 148.469 80.1052 148.469 79.3477 148.659C78.2115 148.848 77.0752 148.848 75.939 149.037C74.2346 149.227 72.5302 149.227 70.8259 149.227C69.3109 149.227 67.7959 149.227 66.4703 149.037C63.819 148.848 61.3572 148.659 58.7059 148.09C56.4335 147.712 53.9716 147.144 51.6991 146.575C38.8217 142.977 27.4592 135.781 18.748 126.312C17.4224 124.987 16.2862 123.472 15.1499 122.146C9.84745 115.329 5.87059 107.754 3.21936 99.4213C1.13624 92.9826 0 85.9758 0 78.7796C0 50.7522 16.4755 26.5123 40.1473 15.1499C38.0642 17.8011 36.1704 20.6417 34.4661 23.6717C34.2767 23.8611 34.0873 24.0505 33.8979 24.2399C19.8843 35.6023 10.7943 53.0247 10.7943 72.5302C10.7943 76.8858 11.1731 81.0521 12.1199 85.2183C12.1199 85.597 12.3093 85.7864 12.3093 86.1652C12.4987 86.7333 12.6881 87.4908 12.6881 88.0589C12.8774 88.627 13.0668 89.1951 13.2562 89.9526C13.8243 91.8464 14.3924 93.5507 15.1499 95.2551C15.3393 95.6338 15.5287 96.202 15.718 96.5807C16.0968 97.5276 16.4755 98.2851 16.8543 99.232C17.4224 100.368 17.9905 101.315 18.5587 102.262C18.9374 103.019 19.5055 103.777 19.8843 104.534C20.263 105.292 20.6418 105.86 21.2099 106.428C21.3993 106.807 21.5886 106.996 21.778 107.375C22.1568 107.943 22.7249 108.701 23.1036 109.269C23.4824 109.837 23.8611 110.405 24.4292 110.973C24.808 111.541 25.1867 111.92 25.5655 112.488C27.0805 114.382 28.7848 116.086 30.6786 117.791C31.4361 118.548 32.1936 119.116 32.9511 119.684C33.5192 120.252 34.0873 120.631 34.6554 121.01C35.2236 121.389 35.7917 121.767 36.3598 122.336C37.4961 123.093 38.6323 124.04 39.9579 124.797C40.7154 125.366 41.6623 125.744 42.4198 126.312C43.1773 126.691 43.9348 127.259 44.8816 127.638C45.2604 127.827 45.6391 128.017 46.2073 128.206C46.3966 128.396 46.7754 128.585 46.9647 128.585C46.9647 128.585 47.1541 128.585 47.3435 128.774C47.9116 129.153 48.6691 129.342 49.2372 129.532C49.4266 129.721 49.616 129.721 49.9947 129.911C50.7522 130.289 51.5097 130.479 52.2672 130.668C52.646 130.857 53.2141 131.047 53.5928 131.047C55.8653 131.804 58.1378 132.372 60.4103 132.941C61.3572 133.13 62.1147 133.319 63.0615 133.509C63.819 133.698 64.5765 133.698 65.334 133.887C65.9021 133.887 66.4703 134.077 67.2278 134.077H73.0984C79.1583 134.077 85.0289 133.13 90.7101 131.615C92.4145 131.047 94.1189 130.479 95.8232 129.911C97.1489 129.342 98.4745 128.774 99.8001 128.206C100.368 127.827 101.126 127.638 101.694 127.259C102.073 127.07 102.451 126.881 102.83 126.691C103.209 126.502 103.398 126.312 103.777 126.123C104.724 125.555 105.671 124.987 106.618 124.419C107.186 124.04 107.943 123.661 108.511 123.093C109.079 122.714 109.648 122.146 110.405 121.767C110.973 121.389 111.352 121.01 111.92 120.631C112.299 120.252 112.678 120.063 113.056 119.684C113.435 119.306 114.003 118.927 114.382 118.548C114.95 117.98 115.518 117.601 116.086 117.033C116.654 116.465 117.222 115.897 117.601 115.518C117.98 115.139 118.548 114.571 118.927 114.003C119.116 113.814 119.306 113.624 119.306 113.435C119.495 113.246 119.684 112.867 120.063 112.678C120.631 112.109 121.199 111.352 121.578 110.784C121.957 110.405 122.146 110.026 122.525 109.458C122.904 109.079 123.282 108.511 123.661 107.943C123.851 107.754 124.04 107.564 124.04 107.186C124.608 106.428 124.987 105.671 125.555 104.913C126.123 104.156 126.502 103.209 127.07 102.451C127.259 102.073 127.449 101.694 127.827 101.315V101.126C128.017 100.558 128.396 100.179 128.585 99.6107C128.964 99.0426 129.153 98.4745 129.342 97.9063C129.721 97.1488 129.911 96.5807 130.289 95.8232C130.479 95.2551 130.668 94.687 130.857 94.3082C131.047 93.9295 131.236 93.3614 131.426 92.9826C131.615 92.7932 131.615 92.4145 131.615 92.2251C131.615 92.0357 131.804 91.657 131.804 91.4676C132.183 90.5208 132.562 89.3845 132.751 88.4376C132.941 88.0589 132.941 87.4908 133.13 87.112C133.319 86.3545 133.509 85.4077 133.698 84.6502C133.887 83.8927 134.077 83.1352 134.077 82.3777C134.266 81.4308 134.456 80.4839 134.456 79.3477C134.456 78.5902 134.645 78.0221 134.645 77.2646C134.645 76.6964 134.645 75.939 134.834 75.3708V72.1515C134.834 70.4471 134.834 68.5534 134.645 66.849V66.2809C135.213 66.6596 135.781 67.0384 136.16 67.4171C136.539 67.7959 137.107 68.1746 137.486 68.5534C138.243 67.2278 139.001 65.9021 139.947 64.7659L140.137 64.5765C140.137 64.7659 140.137 64.9553 140.326 65.1446C140.705 67.2278 141.084 69.5002 141.273 71.7727V71.9621C141.084 74.2346 141.273 76.5071 141.273 78.7796Z" fill="#EC1C24"/>
<path d="M134.456 72.3409V75.5602C134.456 76.1284 134.456 76.8859 134.266 77.454C134.266 78.2115 134.077 78.7796 134.077 79.5371C133.887 80.484 133.887 81.4308 133.698 82.5671C133.509 83.3246 133.509 84.0821 133.319 84.8396C133.13 85.5971 132.941 86.5439 132.751 87.3014C132.562 87.6802 132.562 88.2483 132.372 88.627C132.183 89.7633 131.804 90.7102 131.426 91.657C131.426 91.8464 131.236 92.2251 131.236 92.4145C131.236 92.6039 131.047 92.9826 131.047 93.172C130.857 93.5508 130.668 94.1189 130.479 94.4976C130.289 95.0658 130.1 95.6339 129.911 96.0126C129.721 96.7701 129.342 97.3382 128.964 98.0957C128.774 98.6639 128.396 99.232 128.206 99.8001C128.017 100.368 127.638 100.747 127.449 101.315V101.504C127.259 101.883 127.07 102.262 126.691 102.641C126.312 103.398 125.744 104.345 125.176 105.103C124.797 105.86 124.229 106.618 123.661 107.375C123.472 107.564 123.282 107.754 123.282 108.133C122.904 108.701 122.525 109.079 122.146 109.648C121.767 110.026 121.578 110.405 121.199 110.973C120.631 111.541 120.252 112.299 119.684 112.867C119.495 113.056 119.306 113.435 118.927 113.624C118.737 113.814 118.548 114.003 118.548 114.193C118.169 114.761 117.601 115.139 117.222 115.708C116.654 116.276 116.086 116.844 115.707 117.223C115.139 117.791 114.571 118.169 114.003 118.737C113.624 119.116 113.056 119.495 112.678 119.874C112.299 120.253 111.92 120.442 111.541 120.821C110.973 121.199 110.594 121.578 110.026 121.957C109.458 122.336 108.89 122.904 108.133 123.282C107.564 123.661 106.996 124.04 106.239 124.608C105.292 125.176 104.345 125.744 103.398 126.312C103.019 126.502 102.83 126.691 102.451 126.881C102.073 127.07 101.694 127.259 101.315 127.449C100.747 127.827 99.9895 128.206 99.4213 128.396C98.0957 128.964 96.7701 129.532 95.4445 130.1C93.7401 130.668 92.2251 131.236 90.3314 131.804C84.8395 133.509 78.969 134.266 72.7196 134.266H67.2278C66.6596 134.266 66.0915 134.077 65.334 134.077C64.5765 134.077 63.819 133.887 63.0615 133.698C62.1147 133.509 61.3572 133.319 60.4103 133.13C58.1378 132.751 55.8653 131.994 53.5928 131.236C53.2141 131.047 52.646 130.857 52.2672 130.857C51.5097 130.668 50.7522 130.289 49.9947 130.1C49.8054 130.1 49.4266 129.911 49.2372 129.721C48.6691 129.532 47.9116 129.153 47.3435 128.964C47.1541 128.964 47.1541 128.964 46.9647 128.774C46.586 128.585 46.3966 128.585 46.2072 128.396C45.8285 128.206 45.2604 128.017 44.8816 127.827C44.1241 127.449 43.3666 127.07 42.4198 126.502C41.6623 126.123 40.7154 125.555 39.9579 124.987C38.8217 124.229 37.496 123.472 36.3598 122.525C35.7917 122.146 35.2236 121.767 34.6554 121.199C34.0873 120.821 33.5192 120.253 32.9511 119.874C32.1936 119.306 31.4361 118.548 30.6786 117.98L28.0273 115.329C27.6486 114.95 27.2699 114.382 26.8911 114.003C26.5124 113.624 25.9442 113.056 25.5655 112.488C25.1867 111.92 24.808 111.541 24.4292 110.973C24.0505 110.405 23.4824 109.837 23.1036 109.269C22.5355 108.701 22.1568 107.943 21.778 107.375C21.5886 106.996 21.3993 106.807 21.2099 106.428C20.8311 105.86 20.4524 105.103 19.8843 104.534C19.5055 103.777 18.9374 103.019 18.5586 102.262C17.9905 101.315 17.4224 100.179 16.8543 99.232C16.4755 98.2851 16.0968 97.5276 15.718 96.5807C15.5287 96.202 15.3393 95.6339 15.1499 95.2551C14.3924 93.5508 13.8243 91.657 13.2562 89.9527C13.0668 89.3845 12.8774 88.8164 12.6881 88.0589C12.4987 87.4908 12.3093 86.7333 12.3093 86.1652C12.3093 85.7864 12.1199 85.5971 12.1199 85.2183C11.3624 81.0521 10.7943 76.8858 10.7943 72.5302C10.7943 53.0247 19.8843 35.6023 33.8979 24.2399C34.0873 24.0505 34.2767 23.8611 34.4661 23.6718C28.5955 34.0873 25.1867 46.0179 25.1867 58.7059C25.1867 62.6828 25.5655 66.4703 26.1336 70.2578C26.7017 74.0452 27.6486 77.6433 28.7848 81.0521C29.353 82.5671 29.9211 84.0821 30.4892 85.4077C32.1936 89.3845 34.0873 93.172 36.3598 96.7701C36.5492 96.9595 36.5492 97.1489 36.7385 97.3382C36.7385 97.5276 36.9279 97.717 36.9279 97.717V97.9064C37.1173 98.0957 37.3067 98.2851 37.3067 98.6639L38.4429 100.368C38.6323 100.747 38.8217 100.936 39.011 101.315C39.2004 101.694 39.5792 102.073 39.7685 102.451C39.9579 102.641 39.9579 102.83 40.1473 103.019L40.3367 103.209C40.526 103.588 40.9048 103.966 41.0942 104.156C41.2835 104.345 41.4729 104.534 41.4729 104.724C41.8516 105.292 42.4198 105.671 42.9879 106.239L44.1241 107.375C45.6391 108.89 47.3435 110.216 49.2372 111.352C52.646 113.624 56.6228 115.329 60.789 116.276C61.3572 116.465 61.7359 116.465 62.304 116.654C62.6828 116.654 63.0615 116.844 63.4403 116.844C65.5234 117.223 67.4171 117.412 69.5002 117.412C72.7196 117.412 75.7496 117.033 78.5902 116.276C95.0657 112.299 107.375 97.3382 107.375 79.5371C107.375 68.9321 103.019 59.4634 96.202 52.646C107.186 53.4035 117.412 56.8122 126.502 61.9253C126.881 62.1147 127.259 62.4934 127.827 62.6828C129.721 63.819 131.426 64.9553 133.13 66.2809L133.319 66.4703V67.0384C134.266 68.7428 134.456 70.6365 134.456 72.3409Z" fill="#F6921E"/>
<path d="M36.5492 81.0521V83.8927C32.383 75.5603 29.9211 66.0916 29.9211 56.2441C29.9211 31.4361 44.6923 10.0369 65.9022 0.378784L78.2115 22.9143C53.9716 30.868 36.5492 53.9716 36.5492 81.0521Z" fill="#F6921E"/>
<path d="M117.223 34.2767C112.488 33.1404 107.564 32.5723 102.451 32.5723C90.142 32.5723 78.5902 35.9811 68.5534 41.8517C65.5234 43.7454 62.4934 45.8285 59.8422 48.101C54.9185 52.2672 50.5629 57.1909 46.9647 62.4934C45.071 65.334 43.556 68.1746 42.2304 71.2046C42.2304 71.394 42.041 71.5834 42.041 71.5834C41.8517 71.9621 41.6623 72.5302 41.4729 72.909C41.4729 72.7196 41.4729 72.5302 41.6623 72.3409V71.9621C41.8516 71.2046 42.041 70.4471 42.2304 69.5003C42.6091 67.9853 42.9879 66.6596 43.556 65.1447C45.8285 57.9484 49.4266 51.3204 53.9716 45.4498C61.5465 35.6023 71.7727 27.838 83.5139 23.4824L82.3777 21.3993L76.5071 10.4156L75.7496 9.08995C76.1283 8.7112 76.6965 8.52183 77.2646 8.33246C86.9227 3.02998 97.9064 0 109.458 0C111.731 0 114.003 0.189374 116.086 0.378748L116.844 18.3693V22.1568L117.223 34.2767Z" fill="#EC1C24"/>
<path d="M147.333 30.2998C143.924 28.2167 140.137 26.5124 136.349 24.9974C131.236 23.1036 125.934 21.778 120.442 21.0205L120.631 23.6717L121.01 35.0342L121.199 38.8217C115.897 37.496 110.216 36.7385 104.535 36.7385C94.8764 36.7385 85.5971 38.8217 77.454 42.4198C71.5834 45.071 66.0916 48.4797 61.1679 52.646C59.4635 54.161 57.7591 55.6759 56.2441 57.1909C61.9254 54.161 68.1747 51.8885 74.6134 50.3735C80.1053 49.0479 85.9759 48.2904 91.8465 48.2904H92.2252C107.375 48.2904 121.578 52.646 133.698 60.4103C135.024 61.3572 136.349 62.1147 137.675 63.2509L139.19 60.789L145.818 50.7522L146.765 49.2372L148.848 46.0179L152.825 39.7685L153.961 37.8748L155.287 35.7917C152.825 33.8979 150.174 32.0042 147.333 30.2998ZM127.259 22.7249H127.449C127.638 22.7249 127.638 22.7249 127.828 22.9142C127.638 22.9142 127.449 22.7249 127.259 22.7249Z" fill="#F6921E"/>
<path d="M65.9022 67.0384C65.9022 67.0384 61.5466 67.9853 61.9253 65.9022C61.9253 64.9553 62.4934 64.7659 62.8722 64.9553C62.8722 64.5766 61.9253 63.4403 64.0084 62.8722C64.5766 61.9253 65.1447 61.1678 65.5234 60.5997C65.9022 60.0316 66.0915 59.0847 67.7959 59.6528C69.5003 60.0316 71.2046 61.736 71.5834 62.3041C72.5303 62.3041 73.6665 62.6828 73.2878 62.6828C72.909 63.0616 72.7196 63.251 72.7196 63.251C72.7196 63.251 73.2878 63.6297 71.5834 63.6297C71.5834 64.0084 71.9621 64.1978 72.1515 64.1978C72.5303 64.5766 72.1515 64.5766 72.1515 64.7659C72.1515 64.7659 72.5303 65.7128 71.5834 65.3341C70.6365 64.9553 70.6365 64.7659 70.4471 64.7659C70.0684 64.7659 69.5003 64.7659 69.5003 65.1447C69.5003 65.5234 70.4471 66.0916 69.5003 66.0916C69.1215 66.4703 69.879 66.6597 69.5003 66.6597C69.1215 67.0384 67.2278 68.364 66.2809 68.7428C65.3341 68.7428 65.1447 68.364 65.1447 68.1747C65.1447 67.9853 65.7128 67.6066 66.2809 67.6066C65.9022 67.2278 66.0915 67.0384 65.9022 67.0384Z" fill="#EC1C24"/>
<path d="M65.5235 71.5834C65.1447 71.5834 63.8191 70.6366 64.5766 70.4472C65.1447 69.8791 67.9854 68.1747 68.5535 67.796C69.1216 67.4172 70.0685 68.3641 69.1216 68.9322C68.3641 69.8791 65.5235 71.5834 65.5235 71.5834Z" fill="#EC1C24"/>
<path d="M69.879 69.5003C69.879 68.9322 70.4471 67.2278 70.4471 66.8491C70.4471 66.4704 71.9621 66.281 71.5834 67.9853C71.0153 69.5003 69.879 70.2578 69.879 69.5003Z" fill="#EC1C24"/>
<path d="M71.9622 66.0916C71.9622 66.0916 80.1052 65.7128 80.6734 66.0916C81.2415 66.4703 84.0821 70.6365 83.3246 74.424C82.7565 78.2115 81.6202 78.969 76.3178 79.7265C76.3178 78.5902 75.939 75.3709 75.3709 74.424C74.8028 73.4771 73.0984 71.5834 72.5303 71.5834C72.5303 72.5303 72.1515 74.9921 72.1515 74.9921C72.1515 74.9921 69.5003 75.3709 69.3109 74.6134V70.6365C69.3109 70.6365 71.5834 68.5534 71.9622 67.9853C72.3409 68.364 72.5303 69.5003 75.1815 69.1215C75.1815 69.5003 71.9622 69.879 71.9622 66.0916Z" fill="#EC1C24"/>
<path d="M68.7428 69.879C68.7428 69.879 66.0915 71.9621 65.5234 72.5303C65.1447 73.0984 64.9553 75.3709 68.1746 75.3709C68.7428 73.8559 68.7428 69.879 68.7428 69.879Z" fill="#EC1C24"/>
<path d="M62.6828 73.0984C61.736 73.0984 61.1678 72.7197 61.1678 72.1516C61.1678 71.5834 62.3041 70.6366 63.251 71.0153C63.8191 71.3941 65.3341 71.5834 65.3341 74.2347C65.9022 74.8028 67.4172 75.939 69.3109 75.939C71.394 75.939 72.5303 75.939 72.5303 76.5072V80.2946C72.5303 80.2946 70.2578 80.2946 64.3872 76.3178C63.8191 75.7497 63.4403 75.1815 63.4403 74.2347C63.4403 73.2878 62.8722 73.0984 62.6828 73.0984Z" fill="#EC1C24"/>
<path d="M60.9785 73.2877C60.0316 73.2877 57.191 75.5602 59.2741 76.5071C59.8423 75.939 60.4104 75.3708 60.4104 75.3708C60.4104 75.3708 59.8423 76.8858 60.9785 77.0752C62.1148 77.4539 61.5466 76.5071 62.1147 76.5071C62.4935 77.0752 62.4935 77.4539 63.0616 77.4539C63.6297 77.4539 63.6297 75.7496 63.0616 74.8027C62.6829 73.8558 62.1148 73.2877 60.9785 73.2877Z" fill="#EC1C24"/>
<path d="M73.0984 73.6665V81.2415C73.0984 81.2415 75.3709 80.2946 75.7496 79.7265C75.7496 78.5902 75.1815 73.6665 73.0984 73.6665Z" fill="#EC1C24"/>
<path d="M67.0385 78.5902C67.0385 78.5902 69.8791 80.6733 71.5834 81.2414C71.2047 81.6202 70.0684 83.3246 69.5003 82.9458C69.3109 82.9458 67.2278 80.1052 67.0385 78.5902Z" fill="#EC1C24"/>
<path d="M56.8123 82.9459H53.0248L52.8354 81.4309H56.8123V82.9459Z" fill="#EC1C24"/>
<path d="M81.999 82.5671H96.0126V80.6733H79.5371L81.999 82.5671Z" fill="#EC1C24"/>
<path d="M76.3178 80.6733C76.6965 80.2946 78.5903 81.8096 78.0221 82.1883C77.454 82.5671 72.1515 84.4608 71.9622 84.4608C71.394 84.082 71.5834 82.9458 72.3409 82.7564C72.5303 82.3777 75.3709 81.4308 76.3178 80.6733Z" fill="#EC1C24"/>
<path d="M70.4472 84.0821C69.8791 83.7034 66.6597 86.9227 68.1747 87.3015C69.6897 87.6802 73.0985 88.2483 74.0453 88.8165C74.9922 88.4377 75.5603 87.6802 75.5603 87.3015C76.1284 87.3015 77.0753 88.2483 77.8328 87.8696C78.7797 87.4908 82.7565 84.6502 82.7565 84.0821C81.8097 83.514 80.1053 82.3777 79.3478 82.3777C78.5903 81.999 73.2878 85.2183 70.4472 84.0821Z" fill="#EC1C24"/>
<path d="M68.7428 88.059C69.1216 88.059 73.2878 89.574 74.2347 89.574C75.3709 89.1952 75.3709 88.4377 75.939 88.4377C76.5072 88.4377 76.8859 89.0059 77.6434 88.4377C78.5903 87.8696 80.484 86.1652 80.8628 85.7865C80.8628 86.3546 80.8628 88.059 77.0753 89.7634C73.2878 91.4677 64.3872 94.119 64.0085 95.2552C64.3872 95.2552 65.5235 94.8765 66.281 94.6871C66.8491 95.0658 67.796 96.2021 67.4172 98.0958C67.0385 100.179 65.7129 103.398 65.7129 104.156V109.648C65.7129 110.026 66.6597 112.488 65.3341 112.299C64.0085 112.109 63.6297 111.92 63.0616 112.299C62.4935 112.299 61.5466 113.246 60.9785 112.867C60.0316 112.867 58.8954 112.299 58.8954 111.92C58.8954 111.541 59.8423 111.541 60.5998 111.352C61.5466 110.973 61.736 110.216 63.251 109.648C63.251 108.701 62.6829 101.505 62.6829 99.9895C62.6829 98.4746 62.1147 95.4446 63.0616 94.119C63.8191 92.7933 67.2278 87.8696 68.7428 88.059Z" fill="#EC1C24"/>
<path d="M74.2346 92.2252C74.2346 92.7933 76.8859 99.232 78.0221 99.232C79.1583 99.232 89.9527 96.9595 91.8464 97.717C92.4145 98.6639 93.5508 99.9895 93.5508 100.936C93.5508 100.936 93.9295 103.019 93.5508 103.209C93.9295 103.209 94.687 102.83 95.0658 102.262C95.4445 101.694 95.0658 98.8533 95.0658 98.2851C95.0658 97.717 96.5808 95.0658 94.687 95.4445C92.9826 95.4445 88.0589 95.4445 86.3546 95.0658C84.8396 94.687 81.0521 93.9295 80.2946 94.4977C79.3477 95.0658 78.2115 96.5808 78.2115 96.7702C77.8327 96.7702 77.6433 96.3914 78.2115 95.2552C78.5902 94.1189 79.9158 90.8996 79.7265 89.1952C78.7796 89.5739 74.2346 92.2252 74.2346 92.2252Z" fill="#EC1C24"/>
<path d="M68.1747 81.999C68.1747 82.3777 68.5534 82.9459 68.7428 83.1352L60.4104 82.5671C60.4104 82.5671 59.4635 81.999 59.8422 81.6202L68.1747 81.999Z" fill="#EC1C24"/>
<path d="M58.8953 81.4309H67.2278C67.2278 81.4309 66.6597 80.484 66.2809 79.9159H58.5166C58.5166 79.9159 57.5697 79.9159 57.5697 81.6203C57.7591 81.999 58.3272 82.5671 58.8953 81.4309Z" fill="#EC1C24"/>
<path d="M50.7523 82.9458H52.4567C52.4567 82.9458 53.0248 82.5671 52.4567 81.999C51.8885 81.4308 50.7523 80.8627 51.5098 79.7265C50.5629 79.7265 49.4267 79.3477 49.8054 81.999H48.8585C48.8585 81.999 48.4798 80.484 46.5861 80.484C44.5029 80.484 39.5792 82.5671 39.5792 82.5671C39.5792 82.5671 45.0711 84.0821 46.5861 84.0821C48.1011 84.0821 48.8585 82.5671 48.8585 82.5671H49.4267C49.4267 82.5671 49.8054 83.7033 49.9948 84.0821V85.7864C49.9948 85.7864 49.2373 86.1652 49.616 86.9227C49.616 87.8696 50.1842 87.8696 50.5629 87.8696C50.9417 87.8696 50.9417 87.4908 51.6992 87.4908C52.0779 87.1121 51.6992 85.9758 51.131 85.7864V84.6502C51.131 84.6502 51.6992 84.0821 51.6992 83.7033C51.3204 83.1352 50.7523 83.5139 50.7523 82.9458Z" fill="#EC1C24"/>
<path d="M60.9785 91.0889C61.5466 90.7101 61.9253 89.9526 61.9253 89.9526V85.0289C61.9253 83.8927 59.8422 82.9458 59.6529 82.9458C59.2741 83.3245 58.706 83.5139 58.5166 83.5139C57.9485 83.5139 57.5697 83.5139 57.0016 82.9458C55.2973 82.9458 54.3504 85.0289 54.3504 85.2183C54.3504 85.597 53.9716 89.1951 54.3504 89.7633C54.3504 90.3314 54.9185 90.8995 55.2973 91.2783C54.9185 92.4145 53.2141 99.0426 55.676 99.9895V101.126H61.5466V99.9895C62.8722 98.6638 61.5466 92.7932 60.9785 91.0889ZM54.161 85.0289C54.161 84.6502 55.1079 83.3246 56.2441 83.3246C56.8123 83.8927 57.3804 83.8927 57.9485 83.8927C58.5166 83.8927 59.0847 83.3246 59.4635 83.3246C60.0316 83.7033 61.1679 84.2714 61.1679 85.0289V89.9526C61.1679 90.3314 60.7891 90.5208 60.5997 90.8995H59.4635V88.627H55.676V90.7101H54.7291C54.3504 90.3314 54.161 90.142 54.161 89.5739V85.0289ZM58.3272 98.6638H57.191C56.8123 98.6638 56.6229 98.2851 56.6229 98.0957C56.6229 97.717 57.0016 97.5276 57.191 97.5276H58.3272C58.706 97.5276 58.8954 97.9063 58.8954 98.0957C58.8954 98.2851 58.5166 98.6638 58.3272 98.6638ZM60.5997 99.232L57.7591 96.0126L55.1079 99.232C53.4035 98.6638 54.5398 93.3614 55.1079 91.0889H60.5997C61.1679 93.3614 62.1147 98.2851 60.5997 99.232Z" fill="#EC1C24"/>
<path d="M59.6529 93.3614C60.221 92.4146 59.2742 91.8464 59.2742 91.8464H55.8654C54.7292 91.8464 54.9186 93.3614 54.9186 93.3614L57.0017 95.0658C57.7592 95.0658 59.0848 94.3083 59.6529 93.3614Z" fill="#EC1C24"/>
<path d="M58.3273 95.4446L60.4104 97.717C60.4104 97.717 60.0316 94.8764 60.0316 93.9296C59.6529 94.3083 58.3273 95.4446 58.3273 95.4446Z" fill="#EC1C24"/>
<path d="M55.2972 93.9296C55.2972 94.8764 54.9185 97.717 54.9185 97.717L57.0016 95.4446C57.1909 95.4446 56.0547 94.3083 55.2972 93.9296Z" fill="#EC1C24"/>
<path d="M55.8654 87.8696H59.8422V87.4908C59.8422 87.1121 59.4635 87.1121 59.4635 87.1121H56.2441C55.8654 87.1121 55.8654 87.4908 55.8654 87.4908V87.8696Z" fill="#EC1C24"/>
<path d="M60.9784 101.126H54.3503V101.504C54.3503 101.883 54.7291 101.883 54.7291 101.883H60.5997C60.9784 101.883 60.9784 101.504 60.9784 101.504V101.126Z" fill="#EC1C24"/>
</svg>
