<svg id="SvgjsSvg1073" width="550" height="550" xmlns="http://www.w3.org/2000/svg" version="1.1" xmlnsXlink="http://www.w3.org/1999/xlink" xmlns:svgjs="http://svgjs.com/svgjs"><defs id="SvgjsDefs1074"></defs><g id="SvgjsG1075"><svg xmlns="http://www.w3.org/2000/svg" viewBox="0 0 1551 1634.85" width="550" height="550"><g data-name="Layer 2" fill="#000000" class="color000 svgShape"><g data-name="Layer 1" fill="#000000" class="color000 svgShape"><polygon fill="#b8b8b8" points="783.12 302.44 969.3 10.99 1543.39 335.86 1551 346.85 1364.81 638.31 1357.2 642.65 783.12 302.44" class="colorf1ce80 svgShape"></polygon><polygon fill="#a3a3a3" points="775.51 291.45 961.69 .01 1543.39 335.86 1357.2 627.33 775.51 291.45" class="coloredad59 svgShape"></polygon><polygon fill="#a3a3a3" points="1357.21 1299.01 775.51 1634.85 775.5 963.16 1357.21 627.32 1357.21 1299.01" class="colored9c59 svgShape"></polygon><polygon fill="#8c8c8c" points="775.49 1634.85 193.78 1299.01 193.79 627.32 775.5 963.16 775.49 1634.85" class="colorcc774d svgShape"></polygon><polygon fill="#a5a5a5" points="1357.18 627.3 775.48 963.16 193.78 627.3 775.48 291.45 1357.18 627.3" class="colorf1c25a svgShape"></polygon><path fill="#404040" d="M329.27 1197.71v134.67l116.89 67.49V1265.2zm107.67 186.21l-98.45-56.84V1213.66l98.45 56.84zM466.65 1277V1411.7l116.89 67.48V1344.51zm107.67 186.22l-98.45-56.84V1293l98.45 56.84zM603.41 1356v134.68l116.89 67.48V1423.47zm107.67 186.21l-98.45-56.83V1371.93l98.45 56.84z" class="color67321a svgShape"></path><polygon fill="#404040" points="421.8 1366.16 353.62 1326.8 353.62 1311.5 421.8 1350.87 421.8 1366.16" class="color67321a svgShape"></polygon><polygon fill="#404040" points="385.19 1271.7 369.4 1244.35 353.62 1253.46 362.78 1258.76 362.78 1312.74 376.03 1320.39 376.03 1266.41 385.19 1271.7" class="color67321a svgShape"></polygon><polygon fill="#404040" points="421.81 1292.84 406.01 1265.49 390.23 1274.6 399.39 1279.89 399.39 1333.88 412.64 1341.53 412.64 1287.55 421.81 1292.84" class="color67321a svgShape"></polygon><path fill="#404040" d="M559.48 1354.65l-48.61-28.06-3.12 9.34-4.67 1.46-4.48 3.82 2.14-6.3 4.29-2.7 1.17-8.32L490.71 1315c0 21.13 14.3 46.66 32.34 58.3v37.87l-17.38-10v5.85l39.82 23v-5.85l-17.38-10v-38C545.69 1384.47 559.48 1375.41 559.48 1354.65zM661.64 1413.66v-5.54l-2.36-1.36v5.54c-19.54-10.63-35.19-3-35.19 17.56 0-2.61 4.07-2.38 9.09.52s9.1 7.37 9.1 10c0-2.61 4.07-2.38 9.09.52a24.93 24.93 0 017.91 7v47.76c0 2.87-2 4-4.5 2.6a10 10 0 01-4.5-7.8 4.75 4.75 0 01.09-1L648 1488.1a9.49 9.49 0 00-.09 1 15.17 15.17 0 006.86 11.88c3.79 2.18 6.85.41 6.85-4v-47.76c1.57-.54 4.52.2 7.92 2.16 5 2.9 9.09 7.36 9.09 10 0-2.61 4.07-2.37 9.09.52s9.1 7.37 9.1 10C696.83 1451.33 681.18 1425.59 661.64 1413.66z" class="color67321a svgShape"></path><polygon fill="#bcbcbc" points="464.78 1455.45 378.82 1405.82 378.82 1217.94 464.79 1267.57 464.78 1455.45" opacity=".69" class="colord1b8a7 svgShape"></polygon><polygon fill="#bcbcbc" points="1086.75 1455.45 1172.72 1405.82 1172.71 1217.94 1086.75 1267.57 1086.75 1455.45" opacity=".69" class="colord1b8a7 svgShape"></polygon><polygon fill="#8c8c8c" points="767.88 302.44 581.7 10.99 7.61 335.85 0 346.84 186.19 638.31 193.79 642.64 767.88 302.44" class="colorcc774d svgShape"></polygon><polygon fill="#a5a5a5" points="775.48 291.45 589.3 0 7.61 335.85 193.79 627.32 775.48 291.45" class="colorf1c25a svgShape"></polygon><polygon fill="#a3a3a3" points="1332.84 627.3 775.48 949.1 218.13 627.3 775.48 305.5 1332.84 627.3" class="colored9c59 svgShape"></polygon><polygon fill="#8c8c8c" points="775.48 305.5 775.48 949.1 1332.84 627.3 775.48 305.5" class="colorcc774d svgShape"></polygon><polygon fill="#b8b8b8" points="775.48 291.45 775.48 305.5 218.13 627.3 775.48 949.1 775.48 963.16 193.79 627.32 775.48 291.45" class="colorf1ce80 svgShape"></polygon><polygon fill="#919191" points="775.48 305.5 548.59 818.1 775.48 949.1 775.48 305.5" class="colord98a4a svgShape"></polygon><polygon fill="#ededed" points="1042.58 1417.31 800.7 1556.95 800.7 1476.34 1042.58 1336.69 1042.58 1417.31" class="colorededed svgShape"></polygon><polygon points="808.34 1530.62 807.32 1531.2 807.32 1491.46 808.34 1490.87 808.34 1530.62" fill="#000000" class="color000 svgShape"></polygon><polygon points="858.56 1501.62 857.54 1502.21 857.54 1462.46 858.56 1461.87 858.56 1501.62" fill="#000000" class="color000 svgShape"></polygon><polygon points="849.7 1506.73 848.68 1507.32 848.68 1467.58 849.7 1466.99 849.7 1506.73" fill="#000000" class="color000 svgShape"></polygon><polygon points="815.71 1526.36 814.14 1527.26 814.14 1487.52 815.71 1486.61 815.71 1526.36" fill="#000000" class="color000 svgShape"></polygon><polygon points="825.33 1520.81 823.18 1522.05 823.18 1482.3 825.33 1481.06 825.33 1520.81" fill="#000000" class="color000 svgShape"></polygon><polygon points="843.68 1510.21 841.53 1511.45 841.53 1471.7 843.68 1470.46 843.68 1510.21" fill="#000000" class="color000 svgShape"></polygon><polygon points="831.28 1517.37 830.77 1517.66 830.77 1477.92 831.28 1477.62 831.28 1517.37" fill="#000000" class="color000 svgShape"></polygon><polygon points="855.89 1503.16 855.38 1503.46 855.38 1463.71 855.89 1463.42 855.89 1503.16" fill="#000000" class="color000 svgShape"></polygon><polygon points="847.73 1507.87 847.22 1508.17 847.22 1468.42 847.73 1468.13 847.73 1507.87" fill="#000000" class="color000 svgShape"></polygon><polygon points="817.26 1525.46 816.75 1525.76 816.75 1486.01 817.26 1485.72 817.26 1525.46" fill="#000000" class="color000 svgShape"></polygon><polygon points="809.99 1529.66 809.48 1529.95 809.48 1490.21 809.99 1489.91 809.99 1529.66" fill="#000000" class="color000 svgShape"></polygon><polygon points="838.93 1512.95 837.45 1513.81 837.45 1474.06 838.93 1473.21 838.93 1512.95" fill="#000000" class="color000 svgShape"></polygon><polygon points="834.34 1515.6 832.86 1516.45 832.86 1476.71 834.34 1475.86 834.34 1515.6" fill="#000000" class="color000 svgShape"></polygon><polygon points="820.57 1523.55 819.1 1524.4 819.1 1484.66 820.57 1483.81 820.57 1523.55" fill="#000000" class="color000 svgShape"></polygon><polygon points="846.58 1508.54 845.56 1509.12 845.56 1469.38 846.58 1468.79 846.58 1508.54" fill="#000000" class="color000 svgShape"></polygon><polygon points="836.96 1514.09 835.94 1514.68 835.94 1474.94 836.96 1474.35 836.96 1514.09" fill="#000000" class="color000 svgShape"></polygon><polygon points="854.23 1504.12 853.21 1504.71 853.21 1464.96 854.23 1464.37 854.23 1504.12" fill="#000000" class="color000 svgShape"></polygon><polygon points="861.63 1499.85 859.84 1500.88 859.84 1461.13 861.63 1460.1 861.63 1499.85" fill="#000000" class="color000 svgShape"></polygon><polygon points="914.8 1429.4 915.82 1428.81 915.82 1468.56 914.8 1469.15 914.8 1429.4" fill="#000000" class="color000 svgShape"></polygon><polygon points="864.57 1458.4 865.59 1457.81 865.59 1497.56 864.57 1498.15 864.57 1458.4" fill="#000000" class="color000 svgShape"></polygon><polygon points="873.43 1453.29 874.45 1452.7 874.45 1492.44 873.43 1493.03 873.43 1453.29" fill="#000000" class="color000 svgShape"></polygon><polygon points="907.43 1433.66 908.99 1432.76 908.99 1472.5 907.43 1473.41 907.43 1433.66" fill="#000000" class="color000 svgShape"></polygon><polygon points="897.81 1439.21 899.96 1437.97 899.96 1477.72 897.81 1478.96 897.81 1439.21" fill="#000000" class="color000 svgShape"></polygon><polygon points="879.45 1449.81 881.6 1448.57 881.6 1488.32 879.45 1489.56 879.45 1449.81" fill="#000000" class="color000 svgShape"></polygon><polygon points="891.86 1442.65 892.36 1442.36 892.36 1482.1 891.86 1482.4 891.86 1442.65" fill="#000000" class="color000 svgShape"></polygon><polygon points="867.25 1456.86 867.76 1456.56 867.76 1496.31 867.25 1496.6 867.25 1456.86" fill="#000000" class="color000 svgShape"></polygon><polygon points="875.41 1452.15 875.92 1451.85 875.92 1491.6 875.41 1491.89 875.41 1452.15" fill="#000000" class="color000 svgShape"></polygon><polygon points="905.88 1434.56 906.39 1434.26 906.39 1474.01 905.88 1474.3 905.88 1434.56" fill="#000000" class="color000 svgShape"></polygon><polygon points="913.14 1430.36 913.65 1430.07 913.65 1469.81 913.14 1470.11 913.14 1430.36" fill="#000000" class="color000 svgShape"></polygon><polygon points="884.21 1447.07 885.68 1446.21 885.68 1485.96 884.21 1486.81 884.21 1447.07" fill="#000000" class="color000 svgShape"></polygon><polygon points="888.79 1444.42 890.27 1443.56 890.27 1483.31 888.79 1484.16 888.79 1444.42" fill="#000000" class="color000 svgShape"></polygon><polygon points="902.56 1436.47 904.04 1435.62 904.04 1475.36 902.56 1476.21 902.56 1436.47" fill="#000000" class="color000 svgShape"></polygon><polygon points="876.56 1451.48 877.58 1450.89 877.58 1490.64 876.56 1491.23 876.56 1451.48" fill="#000000" class="color000 svgShape"></polygon><polygon points="886.18 1445.93 887.2 1445.34 887.2 1485.08 886.18 1485.67 886.18 1445.93" fill="#000000" class="color000 svgShape"></polygon><polygon points="868.91 1455.9 869.93 1455.31 869.93 1495.06 868.91 1495.64 868.91 1455.9" fill="#000000" class="color000 svgShape"></polygon><path d="M850.23 1513.88a5.92 5.92 0 01-.37 2.27 2.72 2.72 0 01-1.15 1.34c-.49.29-.87.27-1.13 0a3 3 0 01-.38-1.82 5.89 5.89 0 01.37-2.27 2.68 2.68 0 011.14-1.33c.5-.29.88-.27 1.14 0A3 3 0 01850.23 1513.88zm-2.51 1.45a3.34 3.34 0 00.24 1.55q.24.39.75.09a1.72 1.72 0 00.76-1 5.86 5.86 0 00.23-1.81 3.46 3.46 0 00-.23-1.54c-.16-.27-.41-.3-.76-.1a1.76 1.76 0 00-.75 1A5.52 5.52 0 00847.72 1515.33zM853.89 1514.43l-3 1.74v-.52l1.21-2.1c.37-.64.61-1.09.73-1.34a5.53 5.53 0 00.26-.69 2.21 2.21 0 00.09-.62.58.58 0 00-.22-.54.66.66 0 00-.62.11 2.63 2.63 0 00-.54.42 4.11 4.11 0 00-.58.73l-.27-.26a4.29 4.29 0 011.38-1.4 1.17 1.17 0 011-.21c.24.12.36.39.36.82a3.24 3.24 0 01-.24 1.14 14.09 14.09 0 01-.92 1.78l-1 1.72v0l2.36-1.36zM857.79 1511l-.69.39v1.22l-.5.29v-1.22l-2.23 1.29v-.53l2.18-4.84.55-.32v3.56l.69-.39zm-1.19.13v-1.76c0-.35 0-.74 0-1.19h0c-.1.29-.19.54-.28.75l-1.44 3.18zM859.75 1505.66a1.26 1.26 0 011-.23q.36.12.36.72a1.92 1.92 0 01-.21.83 4.18 4.18 0 01-.67 1 1.12 1.12 0 01.79.19.8.8 0 01.24.65 2.3 2.3 0 01-.4 1.28 3.09 3.09 0 01-1.09 1 1.49 1.49 0 01-1.13.28c-.27-.1-.4-.37-.4-.83a3.09 3.09 0 011-2 .89.89 0 01-.62-.25.93.93 0 01-.19-.63 2.08 2.08 0 01.37-1.13A3 3 0 01859.75 1505.66zm-1 4.62c0 .29.08.47.26.53a.92.92 0 00.73-.19 2 2 0 00.73-.67 1.5 1.5 0 00.27-.85.5.5 0 00-.25-.48 1.47 1.47 0 00-.85 0 4.41 4.41 0 00-.68.9A1.74 1.74 0 00858.76 1510.28zm1-4.12a1.68 1.68 0 00-.61.57 1.3 1.3 0 00-.23.71.53.53 0 00.19.47 1.14 1.14 0 00.68.08 3.88 3.88 0 00.64-.84 1.44 1.44 0 00.19-.69c0-.24-.08-.39-.23-.45A.76.76 0 00859.74 1506.16zM863.84 1508.68l-.51.3v-3.78c0-.32 0-.62 0-.91-.05.07-.1.16-.15.24s-.3.47-.75 1.14l-.28-.25 1.22-1.79.44-.25zM865.64 1505.37a6 6 0 01.53-2.64 3.85 3.85 0 011.55-1.67 2.19 2.19 0 01.56-.25v.51a2.16 2.16 0 00-.55.23 2.92 2.92 0 00-1.13 1.18 4.47 4.47 0 00-.42 1.92l0 0a2.56 2.56 0 011.1-1.26c.41-.23.74-.28 1-.13a1.08 1.08 0 01.36 1 3.11 3.11 0 01-.39 1.53 2.89 2.89 0 01-1.06 1.08c-.47.28-.85.29-1.13 0A2 2 0 01865.64 1505.37zm1.55.94a1.84 1.84 0 00.69-.72 2.32 2.32 0 00.24-1.08.86.86 0 00-.22-.7c-.16-.11-.39-.08-.69.1a2.09 2.09 0 00-.52.43 2.16 2.16 0 00-.37.59 1.32 1.32 0 00-.14.57 1.4 1.4 0 00.12.62.53.53 0 00.36.31A.7.7 0 00867.19 1506.31zM870.7 1501.48a1.34 1.34 0 011.15-.24c.27.11.41.41.41.89a2.94 2.94 0 01-.45 1.56 3.58 3.58 0 01-1.25 1.19 2.21 2.21 0 01-1.19.4v-.59a1.22 1.22 0 00.55 0 3.27 3.27 0 00.64-.28 2.47 2.47 0 00.86-.8 1.87 1.87 0 00.31-1c0-.74-.39-.88-1.18-.43a7.68 7.68 0 00-.8.57l-.27-.05.17-2.58 2.29-1.32v.56l-1.84 1.06L870 1502A6.76 6.76 0 01870.7 1501.48zM876 1501.68l-3 1.75v-.52l1.21-2.11c.37-.64.61-1.09.73-1.34a5.53 5.53 0 00.26-.69 2.2 2.2 0 00.09-.61c0-.29-.08-.47-.22-.55a.66.66 0 00-.62.11 2.68 2.68 0 00-.55.42 5.18 5.18 0 00-.57.73l-.27-.25a4.23 4.23 0 011.38-1.41 1.13 1.13 0 011-.2q.36.16.36.81a3.24 3.24 0 01-.24 1.14 12.31 12.31 0 01-.92 1.78l-1 1.72v0l2.37-1.37zM936.16 1422.33v-4l.41-.24v3.62l1.54-.89v.43zM940.91 1418.06a2.78 2.78 0 01-.32 1.35 2.35 2.35 0 01-.89.93 1.11 1.11 0 01-.63.17.53.53 0 01-.42-.31 1.54 1.54 0 01-.15-.74 2.86 2.86 0 01.32-1.35 2.25 2.25 0 01.89-.92.79.79 0 01.88-.09A1.13 1.13 0 01940.91 1418.06zm-2 1.16a1.11 1.11 0 00.2.77c.14.12.33.11.6 0a1.49 1.49 0 00.59-.65 2.35 2.35 0 00.2-1 1 1 0 00-.2-.76c-.14-.12-.34-.11-.6 0a1.41 1.41 0 00-.59.64A2.31 2.31 0 00938.91 1419.22zM942.81 1415.4a1.71 1.71 0 01.31-.15l0 .46a1.58 1.58 0 00-.29.12 1.61 1.61 0 00-.55.62 1.81 1.81 0 00-.22.87V1419l-.4.23v-3l.33-.19 0 .53h0a3 3 0 01.36-.66A1.27 1.27 0 01942.81 1415.4zM944.72 1417.44a.88.88 0 01-.91.12c-.23-.15-.34-.46-.34-1a2.9 2.9 0 01.31-1.34 2.21 2.21 0 01.84-.92c.33-.19.59-.21.78-.07a1 1 0 01.29.82v.29l-1.81 1a.83.83 0 00.23.67c.15.1.36.07.63-.08a4.25 4.25 0 00.84-.69v.41a4.5 4.5 0 01-.4.38A5.2 5.2 0 01944.72 1417.44zm-.1-2.7a1.37 1.37 0 00-.51.53 2 2 0 00-.22.79l1.37-.8a.73.73 0 00-.16-.57A.43.43 0 00944.62 1414.74zM949.72 1414.5v-2c0-.25-.05-.4-.14-.47s-.23 0-.42.06a1.32 1.32 0 00-.54.56 1.86 1.86 0 00-.18.86v1.7l-.4.23v-2c0-.24 0-.39-.13-.46s-.23 0-.42.06a1.31 1.31 0 00-.55.57 2.15 2.15 0 00-.17.95v1.59l-.4.23v-3l.32-.19.07.38h0a1.81 1.81 0 01.77-.92c.41-.24.68-.22.81 0h0a1.66 1.66 0 01.34-.57 1.89 1.89 0 01.5-.44c.3-.17.52-.21.67-.12s.22.33.22.72v2zM952.18 1409.22a.6.6 0 01.06-.27.55.55 0 01.17-.17.21.21 0 01.17 0 .23.23 0 01.07.19.54.54 0 01-.07.27.59.59 0 01-.17.18.21.21 0 01-.17 0S952.18 1409.33 952.18 1409.22zm.43 3.61l-.4.23v-3l.4-.23zM954.67 1411.69a1.09 1.09 0 01-.47.16.41.41 0 01-.35-.13l0 0a4.15 4.15 0 010 .49v1.25l-.4.23v-4.4l.32-.19.06.39h0a2 2 0 01.36-.57 1.87 1.87 0 01.46-.38c.35-.2.62-.22.81 0a1.29 1.29 0 01.28 1 2.86 2.86 0 01-.29 1.33A2 2 0 01954.67 1411.69zm-.06-2.72a1.51 1.51 0 00-.58.6 2.07 2.07 0 00-.18.92v.1a1.19 1.19 0 00.18.81c.12.11.32.09.59-.06a1.35 1.35 0 00.54-.63 2.4 2.4 0 00.19-1 1.09 1.09 0 00-.19-.76C955 1408.84 954.85 1408.84 954.61 1409zM958.15 1408.8a1.4 1.4 0 01-.27.81 2.32 2.32 0 01-.77.67 1.46 1.46 0 01-.81.28v-.42a1.49 1.49 0 00.4-.06 1.57 1.57 0 00.42-.18 1.63 1.63 0 00.48-.39.72.72 0 00.17-.45.21.21 0 00-.13-.22 1.08 1.08 0 00-.52 0 2 2 0 01-.52 0 .33.33 0 01-.23-.13.56.56 0 01-.08-.32 1.28 1.28 0 01.26-.73 2.23 2.23 0 01.72-.63 2 2 0 01.83-.28l-.14.46a1.69 1.69 0 00-.72.22 1.59 1.59 0 00-.43.35.63.63 0 00-.14.37.25.25 0 00.05.17.3.3 0 00.18.07 2.85 2.85 0 00.46-.05 1.17 1.17 0 01.63 0A.45.45 0 01958.15 1408.8zM959.17 1406v2c0 .25.05.41.15.47s.25 0 .46-.08a1.53 1.53 0 00.6-.61 2 2 0 00.19-1v-1.59l.4-.23v3l-.33.19-.06-.37h0a1.7 1.7 0 01-.34.54 2.14 2.14 0 01-.49.41q-.48.27-.72.15c-.16-.09-.24-.32-.24-.71v-2zM965.16 1405.58v-2c0-.24 0-.4-.13-.47s-.23-.05-.42.06a1.37 1.37 0 00-.55.57 1.86 1.86 0 00-.18.86v1.69l-.39.23v-2a.6.6 0 00-.14-.47q-.14-.1-.42.06a1.34 1.34 0 00-.55.58 2.24 2.24 0 00-.17 1v1.59l-.4.23v-3l.33-.18.06.37h0a1.92 1.92 0 01.32-.53 1.71 1.71 0 01.46-.39c.41-.23.68-.22.8 0h0a2.1 2.1 0 01.34-.57 1.88 1.88 0 01.51-.43c.3-.17.52-.21.67-.12s.22.33.22.71v2zM969.44 1402.71h0a2.06 2.06 0 01-.83.94c-.34.19-.61.21-.8 0a1.29 1.29 0 01-.28-1 3 3 0 01.28-1.33 2.08 2.08 0 01.8-.88c.36-.2.63-.21.82 0l0 0v-1.65l.4-.23v4.3l-.33.19zm-.8.53a1.44 1.44 0 00.6-.6 2.08 2.08 0 00.18-.93v-.09c0-.43-.06-.71-.19-.82s-.32-.09-.59.07a1.33 1.33 0 00-.54.62 2.55 2.55 0 00-.18 1 1.17 1.17 0 00.18.77C968.23 1403.39 968.41 1403.38 968.64 1403.24zM972.93 1399.58a2.74 2.74 0 01-.33 1.34 2.25 2.25 0 01-.89.94 1.09 1.09 0 01-.63.17.57.57 0 01-.42-.31 1.56 1.56 0 01-.15-.75 2.85 2.85 0 01.32-1.34 2.37 2.37 0 01.9-.93c.36-.21.66-.24.87-.08A1.13 1.13 0 01972.93 1399.58zm-2 1.15a1 1 0 00.2.77c.13.13.33.12.59 0a1.43 1.43 0 00.59-.65 2.2 2.2 0 00.2-1 1 1 0 00-.2-.77c-.13-.12-.33-.1-.59 0a1.43 1.43 0 00-.6.64A2.27 2.27 0 00970.93 1400.73zM974 1400.47l-.4.23v-4.31l.4-.23zM977.13 1397.15a2.71 2.71 0 01-.32 1.34 2.27 2.27 0 01-.9.94 1.06 1.06 0 01-.62.17.53.53 0 01-.42-.31 1.56 1.56 0 01-.15-.75 2.85 2.85 0 01.32-1.34 2.26 2.26 0 01.89-.92.79.79 0 01.88-.09A1.13 1.13 0 01977.13 1397.15zm-2 1.16a1.11 1.11 0 00.2.77c.14.12.33.11.6 0a1.55 1.55 0 00.59-.65 2.35 2.35 0 00.2-1 1 1 0 00-.2-.76c-.14-.12-.34-.11-.6 0a1.41 1.41 0 00-.59.64A2.31 2.31 0 00975.13 1398.31zM979 1394.49a1.71 1.71 0 01.31-.15l-.05.46a1.1 1.1 0 00-.29.12 1.52 1.52 0 00-.54.62 1.72 1.72 0 00-.23.87V1398l-.4.23v-3l.33-.19 0 .53h0a3 3 0 01.36-.66A1.27 1.27 0 01979 1394.49zM982.8 1394.57a1.4 1.4 0 01-.27.81 2.32 2.32 0 01-.77.67 1.52 1.52 0 01-.81.28v-.42a1.49 1.49 0 00.4-.06 2 2 0 00.42-.18 1.63 1.63 0 00.48-.39.72.72 0 00.17-.45.22.22 0 00-.13-.23 1.42 1.42 0 00-.52 0 1.69 1.69 0 01-.52 0 .33.33 0 01-.23-.13.56.56 0 01-.08-.32 1.28 1.28 0 01.26-.73 2.12 2.12 0 01.72-.63 2 2 0 01.83-.28l-.14.45a1.85 1.85 0 00-.72.23 1.59 1.59 0 00-.43.35.61.61 0 00-.14.36.28.28 0 000 .18.24.24 0 00.18.06 1.82 1.82 0 00.46 0 1 1 0 01.63 0A.45.45 0 01982.8 1394.57zM983.42 1391.19a.54.54 0 01.06-.27.46.46 0 01.17-.17c.07 0 .12 0 .17 0s.07.08.07.19a.6.6 0 01-.07.27.46.46 0 01-.17.17c-.07 0-.12.05-.17 0S983.42 1391.29 983.42 1391.19zm.43 3.6l-.4.23v-3l.4-.23zM985.54 1393.49a1.37 1.37 0 00.2-.13l.16-.13v.35a1.12 1.12 0 01-.19.17l-.23.16c-.51.29-.76.13-.76-.49v-1.81l-.38.22v-.22l.38-.41.17-.74.23-.14v.71l.76-.44v.35l-.76.44v1.79a.47.47 0 00.11.36C985.31 1393.58 985.41 1393.57 985.54 1393.49zM989.31 1391.64l-.07-.39h0a3.25 3.25 0 01-.39.61 2.16 2.16 0 01-.49.39.7.7 0 01-.62.12c-.14-.07-.22-.25-.22-.54 0-.61.43-1.17 1.28-1.69l.44-.28v-.18c0-.24 0-.39-.13-.46s-.23 0-.43.08a3.44 3.44 0 00-.74.66l-.12-.28a4.37 4.37 0 01.42-.44 3.36 3.36 0 01.47-.33c.31-.18.54-.24.69-.16s.23.28.23.64v2.07zm-.89.19a1.59 1.59 0 00.58-.57 1.52 1.52 0 00.21-.78v-.27l-.4.24a2.77 2.77 0 00-.68.57 1 1 0 00-.21.59c0 .17 0 .27.13.3S988.26 1391.92 988.42 1391.83zM993.78 1389.06v-2a.6.6 0 00-.14-.47c-.09-.07-.22 0-.41.06a1.35 1.35 0 00-.55.56 1.88 1.88 0 00-.18.86v1.7l-.4.23v-2c0-.25 0-.4-.13-.47s-.23 0-.42.06a1.34 1.34 0 00-.55.58 2.08 2.08 0 00-.17.94v1.59l-.4.23v-3l.32-.19.07.38h0a1.81 1.81 0 01.77-.92c.41-.23.68-.22.81 0h0a2.1 2.1 0 01.34-.57 1.88 1.88 0 01.51-.43c.29-.17.52-.22.66-.13s.22.33.22.72v2zM996.1 1387.77c-.38.23-.69.27-.91.12s-.34-.45-.34-.94a2.84 2.84 0 01.31-1.34 2.15 2.15 0 01.84-.92c.33-.19.59-.22.78-.08a1 1 0 01.29.83v.29l-1.81 1c0 .35.09.58.24.68s.35.07.62-.09a3.65 3.65 0 00.84-.69v.41a4.5 4.5 0 01-.4.38A2.83 2.83 0 01996.1 1387.77zm-.1-2.69a1.37 1.37 0 00-.51.53 2 2 0 00-.22.78l1.37-.79a.73.73 0 00-.16-.57C996.36 1384.94 996.2 1385 996 1385.08zM998.6 1386l.2-.14.16-.13v.35a1.72 1.72 0 01-.19.17l-.23.16c-.51.29-.76.13-.76-.49v-1.81l-.38.22v-.22l.38-.41.16-.74.23-.13v.7l.77-.44v.36l-.77.43v1.79a.43.43 0 00.12.36A.3.3 0 00998.6 1386zM999.9 1384.87l0 0q-.06.31-.18.75c-.07.29-.15.56-.24.82l-.3.17c0-.21.09-.48.14-.79s.09-.56.11-.74zM1003 1383.79c-.38.22-.67.25-.88.1a1.14 1.14 0 01-.32-1 2.86 2.86 0 01.32-1.35 2.23 2.23 0 01.91-.94 2 2 0 01.37-.17.65.65 0 01.3-.06l-.12.46-.29.06a1.11 1.11 0 00-.27.12 1.72 1.72 0 00-.8 1.64 1.08 1.08 0 00.19.75c.13.12.32.11.58 0a3.18 3.18 0 00.67-.55v.4A2.42 2.42 0 011003 1383.79zM1006.56 1380.16a2.92 2.92 0 01-.32 1.35 2.35 2.35 0 01-.89.93 1.11 1.11 0 01-.63.17.55.55 0 01-.42-.31 1.56 1.56 0 01-.15-.75 2.85 2.85 0 01.32-1.34 2.28 2.28 0 01.89-.93c.37-.21.66-.24.88-.08A1.16 1.16 0 011006.56 1380.16zm-2 1.16a1.11 1.11 0 00.2.77c.14.12.33.11.6 0a1.49 1.49 0 00.59-.65 2.35 2.35 0 00.2-1 1 1 0 00-.2-.76c-.14-.13-.34-.11-.6 0a1.41 1.41 0 00-.59.64A2.28 2.28 0 001004.56 1381.32zM1009.06 1380.24v-2c0-.25 0-.41-.15-.47s-.25 0-.46.08a1.57 1.57 0 00-.6.6 2.09 2.09 0 00-.19 1v1.59l-.4.23v-3l.32-.18.07.37h0a1.82 1.82 0 01.34-.54 2.1 2.1 0 01.49-.41q.48-.27.72-.15c.16.09.24.32.24.71v2zM1012 1377.73a1.35 1.35 0 01-.28.81 2.3 2.3 0 01-.76.68 1.51 1.51 0 01-.82.27v-.42a1.56 1.56 0 00.41-.06 1.9 1.9 0 00.42-.18 1.77 1.77 0 00.48-.39.71.71 0 00.16-.45c0-.12 0-.19-.13-.22a1.08 1.08 0 00-.52 0 2 2 0 01-.52 0 .35.35 0 01-.23-.13.55.55 0 01-.07-.31 1.21 1.21 0 01.26-.74 2.31 2.31 0 01.71-.63 2.21 2.21 0 01.83-.28l-.14.46a1.69 1.69 0 00-.71.22 1.45 1.45 0 00-.43.35.59.59 0 00-.15.37.21.21 0 00.06.17.25.25 0 00.17.07 2.85 2.85 0 00.46 0 1 1 0 01.63 0A.43.43 0 011012 1377.73zM1013.72 1377.6c-.38.22-.69.27-.91.12s-.34-.46-.34-.94a2.91 2.91 0 01.31-1.35 2.13 2.13 0 01.84-.91c.33-.19.59-.22.78-.08a1 1 0 01.29.82v.29l-1.81 1c0 .35.09.58.23.67s.36.08.63-.08a3.65 3.65 0 00.84-.69v.41a4.5 4.5 0 01-.4.38A2.83 2.83 0 011013.72 1377.6zm-.1-2.7a1.44 1.44 0 00-.51.53 2 2 0 00-.22.79l1.37-.79a.73.73 0 00-.16-.57C1014 1374.77 1013.82 1374.78 1013.62 1374.9zM1016.42 1376c-.38.22-.68.26-.88.11a1.14 1.14 0 01-.32-1 2.83 2.83 0 01.32-1.35 2.17 2.17 0 01.91-.94 2.1 2.1 0 01.37-.18 1.11 1.11 0 01.3-.06l-.12.46a1.74 1.74 0 00-.29.07 1.39 1.39 0 00-.28.12 1.73 1.73 0 00-.79 1.64 1.08 1.08 0 00.19.75c.13.12.32.11.58 0a3.18 3.18 0 00.67-.55v.4A2.36 2.36 0 011016.42 1376zM1018.55 1374.43l.21-.13.15-.13v.35a.83.83 0 01-.19.17 2 2 0 01-.22.16c-.51.29-.77.13-.77-.49v-1.81l-.37.22v-.22l.37-.41.17-.74.23-.14v.71l.76-.44v.35l-.76.44v1.79a.43.43 0 00.11.35C1018.32 1374.52 1018.42 1374.51 1018.55 1374.43zM1020.55 1373.66c-.39.22-.7.27-.92.12s-.34-.46-.34-.94a2.91 2.91 0 01.31-1.35 2.19 2.19 0 01.84-.91c.33-.19.59-.22.78-.08a1 1 0 01.29.82v.29l-1.81 1.05c0 .35.09.58.24.68s.35.07.62-.09a3.45 3.45 0 00.84-.69v.41a3.45 3.45 0 01-.4.38A2.35 2.35 0 011020.55 1373.66zm-.11-2.7a1.44 1.44 0 00-.51.53 2.26 2.26 0 00-.22.79l1.38-.79a.73.73 0 00-.17-.57C1020.81 1370.83 1020.65 1370.84 1020.44 1371zM1023 1371.84a1.37 1.37 0 00.2-.13l.16-.13v.35a1.12 1.12 0 01-.19.17l-.23.16c-.51.29-.76.13-.76-.49V1370l-.38.22V1370l.38-.41.17-.74.23-.14v.71l.76-.44v.35l-.76.44v1.79c0 .18 0 .3.11.36S1022.91 1371.92 1023 1371.84zM1024.3 1368.41v2c0 .24 0 .4.14.46s.25 0 .46-.08a1.41 1.41 0 00.6-.61 2 2 0 00.19-1v-1.59l.4-.23v3l-.33.19 0-.37h0a2.15 2.15 0 01-.34.54 2 2 0 01-.5.41q-.48.27-.72.15c-.15-.09-.23-.32-.23-.7v-2zM1028.14 1366.14a1.44 1.44 0 01.31-.15l-.06.46a1.18 1.18 0 00-.28.12 1.44 1.44 0 00-.55.61 1.89 1.89 0 00-.23.88v1.63l-.39.23v-3l.33-.18 0 .53h0a2.74 2.74 0 01.35-.66A1.39 1.39 0 011028.14 1366.14zM937.71 1428.23l-.07-.39 0 0a3.39 3.39 0 01-.4.61 2.06 2.06 0 01-.48.38.68.68 0 01-.61.12c-.15-.07-.23-.25-.23-.53 0-.62.43-1.18 1.27-1.7l.45-.27v-.19c0-.24 0-.39-.13-.45s-.23 0-.43.07a3.44 3.44 0 00-.74.66l-.12-.28a4.26 4.26 0 01.42-.43 2.77 2.77 0 01.47-.34c.31-.18.54-.24.69-.16s.23.28.23.64v2.07zm-.89.19a1.59 1.59 0 00.58-.57 1.52 1.52 0 00.21-.78v-.27l-.4.25a2.56 2.56 0 00-.68.56 1 1 0 00-.21.59c0 .17 0 .27.13.3A.4.4 0 00936.82 1428.42zM940.62 1426.15h0a1.94 1.94 0 01-.82.94c-.34.2-.61.21-.8.05a1.28 1.28 0 01-.29-1 3 3 0 01.29-1.33 2 2 0 01.8-.88c.36-.2.63-.21.82 0l0 0 0-.21v-1.44l.4-.23v4.31l-.32.18zm-.8.53a1.4 1.4 0 00.59-.59 2.13 2.13 0 00.18-.94v-.09a1.24 1.24 0 00-.18-.82c-.12-.11-.32-.08-.59.07a1.27 1.27 0 00-.54.62 2.58 2.58 0 00-.19 1 1.16 1.16 0 00.19.77C939.4 1426.83 939.58 1426.82 939.82 1426.68zM941.8 1422a.6.6 0 01.07-.27.46.46 0 01.17-.17.19.19 0 01.16 0s.07.09.07.19a.45.45 0 01-.07.27.47.47 0 01-.16.18.22.22 0 01-.17 0A.24.24 0 01941.8 1422zm.43 3.61l-.39.23v-3l.39-.23zM944.3 1424.48a1.09 1.09 0 01-.47.16.41.41 0 01-.35-.13l0 0c0 .17 0 .33 0 .49v1.24l-.4.23v-4.39l.32-.19.06.39h0a2.22 2.22 0 01.35-.57 1.91 1.91 0 01.47-.38q.53-.3.81-.06a1.37 1.37 0 01.28 1 3 3 0 01-.29 1.33A2 2 0 01944.3 1424.48zm-.06-2.72a1.43 1.43 0 00-.58.59 2.11 2.11 0 00-.18.93v.1a1.19 1.19 0 00.18.81c.12.11.32.09.59-.06a1.35 1.35 0 00.54-.63 2.57 2.57 0 00.19-1 1.14 1.14 0 00-.19-.76C944.66 1421.62 944.48 1421.63 944.24 1421.76zM946.05 1419.56a.5.5 0 01.07-.27.46.46 0 01.17-.17.16.16 0 01.16 0s.07.09.07.19a.5.5 0 01-.07.27.38.38 0 01-.16.17c-.07 0-.13 0-.17 0S946.05 1419.66 946.05 1419.56zm.43 3.61l-.4.23v-3l.4-.23zM949 1420.87a1.36 1.36 0 01-.27.81 2.34 2.34 0 01-.77.68 1.64 1.64 0 01-.81.28v-.43a1.49 1.49 0 00.4-.06 1.57 1.57 0 00.42-.18 1.63 1.63 0 00.48-.39.72.72 0 00.17-.45.22.22 0 00-.13-.22 1.08 1.08 0 00-.52 0 1.6 1.6 0 01-.52 0 .3.3 0 01-.23-.13.46.46 0 01-.08-.31 1.31 1.31 0 01.26-.74 2.35 2.35 0 01.72-.63 2.15 2.15 0 01.83-.28l-.15.46a1.85 1.85 0 00-.71.22 1.59 1.59 0 00-.43.35.66.66 0 00-.14.37.25.25 0 00.05.17.3.3 0 00.18.07l.46 0a1 1 0 01.63 0A.43.43 0 01949 1420.87zM950.72 1420.78c-.38.22-.68.25-.88.1a1.14 1.14 0 01-.32-1 2.83 2.83 0 01.32-1.35 2.27 2.27 0 01.9-.94 1.78 1.78 0 01.38-.17 1.11 1.11 0 01.3-.06l-.12.46-.29.06a1.11 1.11 0 00-.27.12 1.73 1.73 0 00-.81 1.64 1.07 1.07 0 00.2.75c.13.12.32.11.58 0a2.9 2.9 0 00.67-.55v.41A2.77 2.77 0 01950.72 1420.78zM952 1416.14a.5.5 0 01.07-.27.46.46 0 01.17-.17.19.19 0 01.16 0s.07.09.07.19a.45.45 0 01-.07.27.44.44 0 01-.16.17.19.19 0 01-.17 0S952 1416.25 952 1416.14zm.43 3.61l-.4.23v-3l.4-.23zM955 1418.22v-2c0-.25 0-.4-.14-.47s-.25 0-.46.08a1.47 1.47 0 00-.6.61 2.07 2.07 0 00-.2 1V1419l-.39.23v-3l.32-.19.06.38h0a2.14 2.14 0 01.35-.55 1.87 1.87 0 01.49-.4c.32-.19.55-.23.71-.15s.24.32.24.71v2zM958.41 1413.25v.29l-.49.35a.36.36 0 01.12.18.73.73 0 01.06.32 1.59 1.59 0 01-.27.87 2.14 2.14 0 01-.72.68l-.22.11a.87.87 0 00-.26.53c0 .08 0 .13.09.13a.63.63 0 00.31-.11l.46-.27a.91.91 0 01.66-.17c.15 0 .23.21.23.47a1.56 1.56 0 01-.36 1 3.16 3.16 0 01-1 .85 1.21 1.21 0 01-.79.24c-.19 0-.28-.19-.28-.46a1.21 1.21 0 01.15-.57 1.67 1.67 0 01.44-.52.21.21 0 01-.17-.07.29.29 0 01-.07-.22.67.67 0 01.08-.33 1.68 1.68 0 01.24-.38.37.37 0 01-.33-.14.7.7 0 01-.13-.46 1.61 1.61 0 01.26-.91 1.89 1.89 0 01.73-.7 1.59 1.59 0 01.37-.16zm-2.1 4.75q0 .24.18.27a.88.88 0 00.52-.17 2.47 2.47 0 00.74-.6 1 1 0 00.24-.61c0-.16 0-.25-.13-.27a1.13 1.13 0 00-.5.2l-.47.27a1.35 1.35 0 00-.43.39A1 1 0 00956.31 1418zm.22-2.69c0 .21.05.34.16.39s.24 0 .43-.09a1.07 1.07 0 00.58-1c0-.46-.2-.57-.59-.34a1.09 1.09 0 00-.43.42A1.2 1.2 0 00956.53 1415.31zM961.33 1414.65c-.39.22-.69.26-.92.12s-.33-.46-.33-.94a2.91 2.91 0 01.31-1.35 2.13 2.13 0 01.84-.91c.33-.19.59-.22.78-.08a1 1 0 01.29.82v.29l-1.81 1.05a.83.83 0 00.23.67c.15.1.36.08.63-.08a3.65 3.65 0 00.84-.69v.41a4.5 4.5 0 01-.4.38A3.66 3.66 0 01961.33 1414.65zm-.11-2.7a1.35 1.35 0 00-.5.53 1.86 1.86 0 00-.22.79l1.37-.79c0-.29 0-.49-.17-.57S961.43 1411.83 961.22 1412zM963.38 1413.42l-.4.22v-4.3l.4-.23zM964.18 1409.09a.6.6 0 01.07-.27.55.55 0 01.17-.17.18.18 0 01.17 0s.06.09.06.19a.6.6 0 01-.06.27.46.46 0 01-.17.17c-.07 0-.12 0-.17 0S964.18 1409.2 964.18 1409.09zm.44 3.61l-.4.23v-3l.4-.23zM966.31 1411.4l.2-.14.16-.13v.36l-.19.17-.23.15c-.51.29-.76.13-.76-.49v-1.8l-.38.22v-.23l.38-.4.17-.75.23-.13v.7l.76-.44v.36l-.76.44v1.78c0 .19 0 .31.11.36A.3.3 0 00966.31 1411.4zM967.61 1410.31l0 0c0 .21-.11.46-.19.75s-.16.57-.24.82l-.3.18c0-.22.09-.48.14-.8s.09-.56.11-.74zM971.37 1408a1.42 1.42 0 01-.28.82 2.51 2.51 0 01-.76.67 1.67 1.67 0 01-.82.28v-.43a1.62 1.62 0 00.41-.06 1.65 1.65 0 00.41-.18 1.63 1.63 0 00.48-.39.72.72 0 00.17-.45.21.21 0 00-.13-.22 1.22 1.22 0 00-.52 0 2.09 2.09 0 01-.52 0 .36.36 0 01-.23-.14.52.52 0 01-.08-.31 1.31 1.31 0 01.26-.74 2.48 2.48 0 01.72-.63 2.15 2.15 0 01.83-.28l-.14.46a2 2 0 00-.72.22 1.59 1.59 0 00-.43.35.66.66 0 00-.14.37.21.21 0 00.06.17.25.25 0 00.17.07l.46 0a1 1 0 01.63 0A.44.44 0 01971.37 1408zM973.12 1407.84c-.39.23-.69.27-.92.12s-.33-.45-.33-.94a2.84 2.84 0 01.31-1.34 2.15 2.15 0 01.84-.92c.33-.19.59-.22.78-.08a1 1 0 01.29.83v.29l-1.81 1c0 .35.08.58.23.68s.36.07.63-.09a3.42 3.42 0 00.83-.69v.41a4.51 4.51 0 01-.39.38A2.83 2.83 0 01973.12 1407.84zm-.11-2.69a1.35 1.35 0 00-.5.53 1.81 1.81 0 00-.22.78l1.37-.79a.73.73 0 00-.17-.57C973.38 1405 973.22 1405 973 1405.15zM976.55 1405.4h0a2 2 0 01-.82.94c-.35.2-.61.22-.8.06a1.31 1.31 0 01-.29-1 3 3 0 01.29-1.33 2 2 0 01.8-.87c.35-.21.63-.22.82 0l0 0 0-.21v-1.44l.4-.23v4.31l-.32.18zm-.79.54a1.48 1.48 0 00.59-.6 2.08 2.08 0 00.18-.93v-.1a1.19 1.19 0 00-.18-.81q-.2-.16-.6.06a1.33 1.33 0 00-.53.63 2.33 2.33 0 00-.19 1 1.09 1.09 0 00.19.77C975.34 1406.08 975.52 1406.07 975.76 1405.94zM980.84 1402.93h0a1.94 1.94 0 01-.82.94c-.34.2-.61.21-.8 0a1.28 1.28 0 01-.29-1 3 3 0 01.29-1.33 2 2 0 01.8-.88c.36-.2.63-.21.82 0l0 0 0-.21V1399l.4-.23v4.31l-.32.18zm-.8.53a1.4 1.4 0 00.59-.59 2.11 2.11 0 00.18-.93v-.1a1.19 1.19 0 00-.18-.81c-.12-.12-.32-.09-.59.06a1.27 1.27 0 00-.54.62 2.58 2.58 0 00-.19 1 1.16 1.16 0 00.19.77C979.62 1403.61 979.8 1403.6 980 1403.46zM984.32 1399.8a2.89 2.89 0 01-.32 1.35 2.35 2.35 0 01-.89.93 1.11 1.11 0 01-.63.17.55.55 0 01-.42-.31 1.56 1.56 0 01-.15-.75 2.85 2.85 0 01.32-1.34 2.25 2.25 0 01.89-.92.79.79 0 01.88-.09A1.16 1.16 0 01984.32 1399.8zm-2 1.16a1.11 1.11 0 00.2.77c.14.12.33.11.59 0a1.45 1.45 0 00.6-.65 2.35 2.35 0 00.2-1 1 1 0 00-.2-.76c-.14-.13-.34-.11-.6 0a1.46 1.46 0 00-.59.64A2.28 2.28 0 00982.32 1401zM987.41 1399.6a.91.91 0 01-.93.12c-.22-.15-.33-.46-.33-1a2.87 2.87 0 01.31-1.34 2.21 2.21 0 01.84-.92c.33-.19.59-.21.78-.07a.94.94 0 01.29.82v.29l-1.81 1c0 .36.09.58.23.68s.36.07.63-.08a4.25 4.25 0 00.84-.69v.41a3.45 3.45 0 01-.4.38C987.73 1399.39 987.58 1399.49 987.41 1399.6zm-.11-2.7a1.37 1.37 0 00-.51.53 2 2 0 00-.22.79l1.37-.8a.73.73 0 00-.16-.57C987.66 1396.76 987.5 1396.78 987.3 1396.9zM989 1394.76a.54.54 0 01.06-.27.4.4 0 01.17-.17.15.15 0 01.17 0s.07.08.07.19a.6.6 0 01-.07.27.69.69 0 01-.17.17.18.18 0 01-.17 0S989 1394.86 989 1394.76zm.43 3.6l-.4.23v-3l.4-.23zM990.66 1394.63v2c0 .25.05.41.15.47s.25 0 .46-.08a1.53 1.53 0 00.6-.61 2 2 0 00.19-1v-1.59l.4-.23v3l-.33.19-.06-.37h0a1.7 1.7 0 01-.34.54 2.14 2.14 0 01-.49.41q-.48.27-.72.15c-.16-.09-.24-.32-.24-.71v-2zM995 1394.33a1.4 1.4 0 01-.27.81 2.42 2.42 0 01-.77.67 1.55 1.55 0 01-.82.28v-.42a1.56 1.56 0 00.41-.06 1.9 1.9 0 00.42-.18 1.94 1.94 0 00.48-.39.73.73 0 00.16-.45.22.22 0 00-.13-.23 1.28 1.28 0 00-.52 0 2 2 0 01-.52 0 .35.35 0 01-.23-.13.56.56 0 01-.07-.32 1.21 1.21 0 01.26-.73 2.19 2.19 0 01.71-.63 2 2 0 01.83-.28l-.14.46a1.78 1.78 0 00-.72.22 1.53 1.53 0 00-.42.35.59.59 0 00-.15.37.22.22 0 00.06.17.21.21 0 00.17.06 1.79 1.79 0 00.46 0 1 1 0 01.63 0A.46.46 0 01995 1394.33zM999 1392.85v-2c0-.24 0-.4-.13-.47s-.23-.05-.42.06a1.35 1.35 0 00-.55.56 1.88 1.88 0 00-.18.86v1.7l-.39.23v-2c0-.25-.05-.4-.14-.47s-.23-.05-.42.06a1.21 1.21 0 00-.54.58 2.07 2.07 0 00-.18.94v1.59l-.4.23v-3l.33-.19.06.38h0a1.92 1.92 0 01.32-.53 1.87 1.87 0 01.46-.39c.41-.24.68-.22.8 0h0a2.39 2.39 0 01.34-.57 1.88 1.88 0 01.51-.43c.3-.17.52-.22.67-.12s.22.32.22.71v2zM1002.48 1389.32a2.74 2.74 0 01-.33 1.34 2.25 2.25 0 01-.89.94 1.09 1.09 0 01-.63.17.57.57 0 01-.42-.31 1.56 1.56 0 01-.15-.75 2.74 2.74 0 01.33-1.34 2.28 2.28 0 01.89-.93c.36-.21.66-.24.87-.08A1.13 1.13 0 011002.48 1389.32zm-2 1.16a1.06 1.06 0 00.2.77c.13.12.33.11.59 0a1.43 1.43 0 00.59-.65 2.2 2.2 0 00.2-1c0-.39-.06-.64-.2-.76s-.33-.11-.6 0a1.39 1.39 0 00-.58.64A2.15 2.15 0 001000.48 1390.48zM1005 1389h0a2 2 0 01-.82.94c-.35.2-.61.21-.8 0a1.24 1.24 0 01-.29-1 2.86 2.86 0 01.29-1.33 1.89 1.89 0 01.8-.87c.35-.21.63-.22.82 0l0 0 0-.21v-1.44l.4-.23v4.31l-.33.18zm-.79.53a1.4 1.4 0 00.59-.59 2.11 2.11 0 00.18-.93v-.1a1.19 1.19 0 00-.18-.81c-.13-.12-.33-.09-.6.06a1.28 1.28 0 00-.53.63 2.33 2.33 0 00-.19 1 1.17 1.17 0 00.18.77C1003.75 1389.68 1003.93 1389.67 1004.17 1389.53zM1008.31 1387.15l.2-.13a1.31 1.31 0 01.16-.13v.35l-.19.17-.23.15c-.51.3-.76.13-.76-.49v-1.8l-.38.22v-.22l.38-.41.16-.75.23-.13v.71l.77-.45v.36l-.77.44v1.79c0 .18 0 .3.12.35S1008.17 1387.23 1008.31 1387.15zM1010.3 1386.38c-.39.22-.69.26-.92.12a1.06 1.06 0 01-.34-.94 2.92 2.92 0 01.32-1.35 2.09 2.09 0 01.84-.92c.33-.18.59-.21.78-.07a1 1 0 01.29.82v.29l-1.81 1.05c0 .35.08.57.23.67s.36.07.62-.08a3.27 3.27 0 00.84-.69v.41a3.45 3.45 0 01-.4.38A2.92 2.92 0 011010.3 1386.38zm-.11-2.7a1.28 1.28 0 00-.5.53 1.86 1.86 0 00-.22.79l1.37-.79a.71.71 0 00-.17-.57C1010.56 1383.55 1010.4 1383.56 1010.19 1383.68zM1015.29 1383.44v-2c0-.24 0-.4-.13-.47s-.23 0-.42.06a1.35 1.35 0 00-.55.56 1.88 1.88 0 00-.18.86v1.7l-.39.23v-2a.57.57 0 00-.14-.46q-.13-.1-.42.06a1.26 1.26 0 00-.54.58 2.07 2.07 0 00-.18.94v1.59l-.4.23v-3l.33-.19.06.38h0a1.92 1.92 0 01.32-.53 1.87 1.87 0 01.46-.39c.41-.23.68-.22.8.05h0a2.1 2.1 0 01.34-.57 1.88 1.88 0 01.51-.43c.3-.17.52-.22.67-.13s.22.33.22.72v2zM1017.73 1382.09a1.09 1.09 0 01-.47.16.44.44 0 01-.35-.13h0a4.15 4.15 0 010 .49v1.25l-.4.23v-4.4l.32-.18.06.38h0a2.4 2.4 0 01.35-.57 2.45 2.45 0 01.47-.38c.35-.2.62-.21.81 0a1.32 1.32 0 01.28 1 3 3 0 01-.29 1.33A2 2 0 011017.73 1382.09zm-.06-2.72a1.43 1.43 0 00-.58.59 2.08 2.08 0 00-.18.93v.1a1.21 1.21 0 00.18.81c.12.11.32.09.59-.07a1.33 1.33 0 00.54-.62 2.4 2.4 0 00.19-1 1.09 1.09 0 00-.19-.76C1018.09 1379.23 1017.91 1379.23 1017.67 1379.37zM1021.78 1378.17a2.75 2.75 0 01-.32 1.35 2.35 2.35 0 01-.89.93 1 1 0 01-.63.17.53.53 0 01-.42-.3 1.56 1.56 0 01-.15-.75 2.82 2.82 0 01.32-1.34 2.35 2.35 0 01.89-.93c.37-.21.66-.24.88-.08S1021.78 1377.69 1021.78 1378.17zm-2 1.16a1.1 1.1 0 00.2.77c.14.12.34.11.6 0a1.44 1.44 0 00.59-.65 2.31 2.31 0 00.2-1 1.07 1.07 0 00-.2-.76c-.14-.12-.33-.11-.6 0a1.44 1.44 0 00-.59.63A2.31 2.31 0 001019.78 1379.33zM1023.68 1375.51a1.71 1.71 0 01.31-.15l0 .46a1.58 1.58 0 00-.29.12 1.52 1.52 0 00-.54.62 1.89 1.89 0 00-.23.87v1.63l-.4.23v-3l.33-.19.05.53h0a3 3 0 01.36-.66A1.61 1.61 0 011023.68 1375.51zM936.07 1432.13a.54.54 0 01.06-.27.46.46 0 01.17-.17.15.15 0 01.17 0s.06.08.06.19a.6.6 0 01-.06.27.69.69 0 01-.17.17.18.18 0 01-.17 0S936.07 1432.23 936.07 1432.13zm.43 3.6l-.4.23v-3l.4-.23zM939.14 1434.21v-2c0-.25 0-.41-.15-.47s-.25 0-.46.08a1.57 1.57 0 00-.6.6 2.09 2.09 0 00-.19 1V1435l-.4.23v-3l.32-.18.07.37h0a1.82 1.82 0 01.34-.54 1.88 1.88 0 01.49-.41q.48-.27.72-.15c.16.09.24.32.24.71v2zM941.4 1433c-.38.22-.67.25-.88.1s-.31-.47-.31-1a2.9 2.9 0 01.31-1.36 2.39 2.39 0 01.91-.93 1.59 1.59 0 01.38-.17.79.79 0 01.29-.07l-.12.46-.29.07a1.11 1.11 0 00-.27.12 1.74 1.74 0 00-.8 1.64 1.08 1.08 0 00.19.75c.13.12.33.11.58 0a3.22 3.22 0 00.68-.55v.4A2.63 2.63 0 01941.4 1433zM942.65 1428.32a.6.6 0 01.07-.27.55.55 0 01.17-.17.18.18 0 01.17 0s.07.09.07.19a.57.57 0 01-.07.27.46.46 0 01-.17.17.19.19 0 01-.17 0A.25.25 0 01942.65 1428.32zm.44 3.61l-.4.23v-3l.4-.22zM945.72 1430h0a2 2 0 01-.83.94c-.34.2-.61.22-.8.06a1.29 1.29 0 01-.28-1 3 3 0 01.28-1.33 2 2 0 01.8-.88c.36-.21.63-.22.82 0h0v-1.65l.4-.23v4.3l-.33.19zm-.8.54a1.42 1.42 0 00.59-.6 2 2 0 00.19-.93v-.1c0-.43-.06-.7-.19-.81s-.32-.09-.59.07a1.33 1.33 0 00-.54.62 2.5 2.5 0 00-.18 1 1.2 1.2 0 00.18.78C944.5 1430.68 944.69 1430.68 944.92 1430.54zM946.91 1425.87a.54.54 0 01.06-.27.46.46 0 01.17-.17.15.15 0 01.17 0s.06.08.06.19a.6.6 0 01-.06.27.55.55 0 01-.17.17c-.07 0-.12 0-.17 0S946.91 1426 946.91 1425.87zm.43 3.61l-.4.22v-3l.4-.23zM950 1427.55h0a2 2 0 01-.83.94c-.34.2-.61.22-.8.06a1.32 1.32 0 01-.29-1 3 3 0 01.29-1.33 2 2 0 01.8-.87c.36-.21.63-.22.82 0l0 0v-1.65l.39-.23v4.31l-.32.18zm-.8.54a1.48 1.48 0 00.59-.6 2 2 0 00.19-.93v-.1a1.18 1.18 0 00-.19-.81c-.12-.12-.32-.09-.59.06a1.35 1.35 0 00-.54.63 2.5 2.5 0 00-.18 1 1.15 1.15 0 00.18.77C948.75 1428.23 948.93 1428.22 949.17 1428.09zM951.56 1424v2c0 .25.05.4.15.47s.25 0 .46-.08a1.59 1.59 0 00.6-.61 2.08 2.08 0 00.19-1v-1.59l.4-.23v3l-.33.19-.06-.37h0a2.22 2.22 0 01-.34.54 2.09 2.09 0 01-.49.4q-.48.29-.72.15c-.16-.08-.24-.31-.24-.7v-2zM956 1424.47v-2c0-.25 0-.4-.15-.47s-.25 0-.46.08a1.59 1.59 0 00-.6.61 2.08 2.08 0 00-.19 1v1.59l-.4.23v-3l.32-.19.07.38h0a1.86 1.86 0 01.34-.55 2 2 0 01.49-.4c.32-.18.56-.23.71-.15s.25.32.25.71v2zM958.06 1423l.21-.14.15-.12v.35a1.81 1.81 0 01-.19.17l-.23.15c-.5.29-.76.13-.76-.49v-1.8l-.37.22v-.22l.37-.41.17-.75.23-.13v.7l.76-.44v.36l-.76.44v1.79a.43.43 0 00.11.35C957.83 1423.05 957.93 1423 958.06 1423zM960.59 1418.79v2c0 .24 0 .4.15.46s.25 0 .46-.08a1.53 1.53 0 00.6-.61 2 2 0 00.19-1V1418l.4-.23v3l-.33.19-.06-.37h0a1.7 1.7 0 01-.34.54 2.14 2.14 0 01-.49.41q-.48.27-.72.15c-.16-.09-.24-.32-.24-.7v-2zM964.08 1419.48a1.37 1.37 0 00.2-.13l.16-.13v.35a1.12 1.12 0 01-.19.17 1.38 1.38 0 01-.23.16c-.5.29-.76.13-.76-.49v-1.81l-.37.22v-.22l.37-.41.17-.74.23-.14v.71l.76-.44v.35l-.76.44v1.79a.47.47 0 00.11.36C963.85 1419.57 964 1419.56 964.08 1419.48zM966.64 1418.33l-.4.23v-4.31l.4-.22zM969.1 1416.91l-.08-.38h0a2.69 2.69 0 01-.39.61 2.13 2.13 0 01-.49.38.68.68 0 01-.61.12c-.15-.07-.22-.24-.22-.53 0-.61.42-1.18 1.27-1.7l.44-.27V1415c0-.24 0-.39-.13-.45s-.23 0-.42.07a3.28 3.28 0 00-.75.67l-.12-.29a3.49 3.49 0 01.43-.43 2.37 2.37 0 01.46-.34c.31-.18.55-.23.7-.16s.22.29.22.64v2.07zm-.9.2a1.67 1.67 0 00.58-.57 1.53 1.53 0 00.21-.79v-.27l-.39.25a2.47 2.47 0 00-.69.56 1 1 0 00-.21.59c0 .17 0 .27.13.31A.47.47 0 00968.2 1417.11zM971.43 1412.48q.52-.3.81-.06a1.32 1.32 0 01.28 1 2.86 2.86 0 01-.29 1.33 2 2 0 01-.8.88 1.05 1.05 0 01-.47.16.45.45 0 01-.35-.13h0l-.08.44-.29.17V1412l.4-.23v1c0 .23 0 .45 0 .64h0A2 2 0 01971.43 1412.48zm0 .42a1.33 1.33 0 00-.59.61 2.31 2.31 0 00-.18 1 1.21 1.21 0 00.18.81c.13.11.33.09.6-.07a1.31 1.31 0 00.54-.62 2.5 2.5 0 00.18-1 1.16 1.16 0 00-.18-.78C971.81 1412.74 971.63 1412.75 971.38 1412.9zM975.49 1411.7a2.75 2.75 0 01-.33 1.35 2.28 2.28 0 01-.89.93 1 1 0 01-.63.17.53.53 0 01-.42-.3 1.56 1.56 0 01-.15-.75 2.82 2.82 0 01.32-1.34 2.37 2.37 0 01.9-.93c.36-.21.66-.24.87-.09A1.13 1.13 0 01975.49 1411.7zm-2 1.16a1 1 0 00.2.77c.13.12.33.11.59 0a1.38 1.38 0 00.59-.65 2.18 2.18 0 00.2-1 1 1 0 00-.2-.76c-.13-.12-.33-.11-.6 0a1.58 1.58 0 00-.59.64A2.32 2.32 0 00973.49 1412.86zM977.38 1409a1.5 1.5 0 01.32-.15l-.06.46a2 2 0 00-.29.12 1.52 1.52 0 00-.54.62 1.89 1.89 0 00-.23.87v1.63l-.4.23v-3l.33-.19 0 .53h0a2.58 2.58 0 01.35-.66A1.76 1.76 0 01977.38 1409zM979.3 1411.08c-.39.22-.7.26-.92.12s-.34-.46-.34-.94a2.92 2.92 0 01.32-1.35 2.13 2.13 0 01.83-.92.71.71 0 01.79-.07 1 1 0 01.28.82v.29l-1.8 1c0 .35.08.57.23.67s.35.07.62-.08a3.45 3.45 0 00.84-.69v.41a3.45 3.45 0 01-.4.38A4.93 4.93 0 01979.3 1411.08zm-.11-2.7a1.37 1.37 0 00-.51.53 2.14 2.14 0 00-.22.79l1.38-.8c0-.29-.06-.48-.17-.56S979.4 1408.26 979.19 1408.38zM983.33 1408.75c-.39.23-.7.27-.92.12s-.34-.46-.34-.94a2.91 2.91 0 01.31-1.35 2.19 2.19 0 01.84-.91c.33-.19.59-.22.78-.08a1 1 0 01.29.83v.29l-1.81 1c0 .35.09.58.24.68s.35.07.62-.09a3.65 3.65 0 00.84-.69v.41a4.5 4.5 0 01-.4.38A2.72 2.72 0 01983.33 1408.75zm-.11-2.69a1.34 1.34 0 00-.51.52 2.26 2.26 0 00-.22.79l1.38-.79a.73.73 0 00-.17-.57C983.59 1405.92 983.43 1405.94 983.22 1406.06zM985.82 1406.93a1.37 1.37 0 00.2-.13l.16-.13v.35a1.12 1.12 0 01-.19.17l-.23.16c-.51.29-.76.13-.76-.49v-1.81l-.38.22v-.22l.38-.41.17-.74.23-.13v.7l.76-.44v.36l-.76.43v1.79c0 .18 0 .3.11.36S985.69 1407 985.82 1406.93zM989.77 1404.57h0a1.9 1.9 0 01-.82.94c-.34.2-.61.22-.8.06a1.28 1.28 0 01-.29-1 3 3 0 01.29-1.33 2 2 0 01.8-.88c.36-.21.63-.21.82 0h0l0-.21v-1.44l.4-.23v4.3l-.32.19zm-.8.54a1.48 1.48 0 00.59-.6 2.08 2.08 0 00.18-.93v-.1a1.19 1.19 0 00-.18-.81c-.13-.11-.32-.09-.59.07a1.23 1.23 0 00-.54.62 2.5 2.5 0 00-.19 1 1.14 1.14 0 00.19.77C988.55 1405.25 988.73 1405.25 989 1405.11zM993.25 1401.45a2.74 2.74 0 01-.32 1.34 2.3 2.3 0 01-.9.93.93.93 0 01-.62.17.53.53 0 01-.42-.3 1.56 1.56 0 01-.15-.75 2.85 2.85 0 01.32-1.34 2.35 2.35 0 01.89-.93c.37-.21.66-.24.88-.08A1.12 1.12 0 01993.25 1401.45zm-2 1.15a1.08 1.08 0 00.2.77c.14.13.33.11.6 0a1.53 1.53 0 00.59-.64 2.35 2.35 0 00.2-1 1.08 1.08 0 00-.2-.77c-.14-.12-.34-.1-.6 0a1.44 1.44 0 00-.59.63A2.35 2.35 0 00991.25 1402.6zM994.35 1402.33l-.4.23v-4.3l.4-.23zM997.46 1399a2.85 2.85 0 01-.32 1.34 2.33 2.33 0 01-.9.94 1.07 1.07 0 01-.63.17.57.57 0 01-.42-.31 1.57 1.57 0 01-.14-.75 2.74 2.74 0 01.32-1.34 2.28 2.28 0 01.89-.93c.37-.21.66-.24.87-.08A1.13 1.13 0 01997.46 1399zm-2 1.15a1 1 0 00.2.77c.13.13.33.12.59 0a1.41 1.41 0 00.59-.64 2.2 2.2 0 00.21-1 1 1 0 00-.21-.77c-.13-.12-.33-.1-.59 0a1.41 1.41 0 00-.59.64A2.13 2.13 0 00995.46 1400.17zM999.35 1396.36a1.76 1.76 0 01.32-.15l-.06.46a1 1 0 00-.28.12 1.44 1.44 0 00-.55.61 1.89 1.89 0 00-.23.88v1.62l-.39.23v-3l.32-.19 0 .54h0a2.56 2.56 0 01.35-.66A1.47 1.47 0 01999.35 1396.36zM1001.27 1398.39c-.39.23-.69.27-.92.12a1.06 1.06 0 01-.34-.94 2.92 2.92 0 01.32-1.35 2.07 2.07 0 01.84-.91c.33-.19.59-.22.78-.08a1 1 0 01.29.83v.29l-1.81 1c0 .35.08.58.23.68s.36.07.62-.09a3.27 3.27 0 00.84-.69v.41a3.6 3.6 0 01-.4.39A2.92 2.92 0 011001.27 1398.39zm-.11-2.69a1.26 1.26 0 00-.5.52 1.9 1.9 0 00-.22.79l1.37-.79a.73.73 0 00-.17-.57C1001.53 1395.56 1001.37 1395.58 1001.16 1395.7zM1007.54 1394.72v-2a.6.6 0 00-.14-.47c-.09-.07-.23 0-.41.06a1.29 1.29 0 00-.55.56 1.86 1.86 0 00-.18.86v1.7l-.4.23v-2c0-.24 0-.39-.13-.46s-.23 0-.42.06a1.26 1.26 0 00-.55.57 2.15 2.15 0 00-.17.95v1.59l-.4.23v-3l.32-.19.07.38h0a1.81 1.81 0 01.77-.92c.41-.24.68-.22.81 0h0a2 2 0 01.34-.57 1.93 1.93 0 01.51-.44q.44-.26.66-.12c.15.09.22.33.22.72v2zM1010.37 1393.08l-.08-.38h0a2.69 2.69 0 01-.39.61 1.93 1.93 0 01-.49.38.68.68 0 01-.61.12c-.15-.06-.22-.24-.22-.53 0-.61.42-1.18 1.27-1.7l.45-.27v-.19c0-.24 0-.39-.14-.45s-.23 0-.42.08a2.8 2.8 0 00-.74.66l-.13-.28a3 3 0 01.43-.44 2.72 2.72 0 01.46-.34c.32-.18.55-.23.7-.16s.22.29.22.64v2.07zm-.9.2a1.51 1.51 0 00.58-.57 1.44 1.44 0 00.22-.78v-.28l-.4.25a2.48 2.48 0 00-.69.57.92.92 0 00-.2.59c0 .16 0 .26.13.3S1009.31 1393.37 1009.47 1393.28zM1013.63 1388.17v.29l-.48.34a.62.62 0 01.12.19.93.93 0 01.05.32 1.69 1.69 0 01-.26.87 2.18 2.18 0 01-.73.68 1.38 1.38 0 01-.22.1.87.87 0 00-.25.54c0 .08 0 .13.09.13a.6.6 0 00.3-.11l.46-.27a.87.87 0 01.66-.17c.15.05.23.2.23.47a1.63 1.63 0 01-.35 1 3.29 3.29 0 01-1 .85 1.25 1.25 0 01-.8.24c-.18 0-.28-.2-.28-.47a1.23 1.23 0 01.16-.56 1.79 1.79 0 01.43-.53.18.18 0 01-.17-.06.29.29 0 01-.07-.22.8.8 0 01.08-.33 1.68 1.68 0 01.24-.38.39.39 0 01-.33-.14.7.7 0 01-.13-.46 1.75 1.75 0 01.26-.92 2 2 0 01.73-.69 1.64 1.64 0 01.38-.16zm-2.09 4.75q0 .24.18.27a.94.94 0 00.51-.17 2.69 2.69 0 00.75-.6 1 1 0 00.24-.61c0-.17-.05-.25-.14-.27a1 1 0 00-.49.19l-.48.28a1.13 1.13 0 00-.42.39A1 1 0 001011.54 1392.92zm.21-2.7c0 .21.06.34.16.39a.49.49 0 00.43-.08 1.09 1.09 0 00.59-1c0-.46-.2-.57-.59-.35a1.21 1.21 0 00-.44.43A1.27 1.27 0 001011.75 1390.22zM1016 1389.85v-2c0-.25-.05-.41-.15-.47s-.25 0-.45.08a1.49 1.49 0 00-.61.61 2.15 2.15 0 00-.19 1v1.59l-.4.23v-3l.33-.19.06.38h0a1.86 1.86 0 01.34-.55 2.1 2.1 0 01.49-.41q.48-.27.72-.15c.16.09.24.32.24.71v2zM1018.8 1388.22l-.08-.39h0a2.48 2.48 0 01-.39.61 2 2 0 01-.49.39.68.68 0 01-.61.12c-.15-.07-.22-.25-.22-.54 0-.61.42-1.17 1.27-1.69l.45-.28v-.19a.56.56 0 00-.14-.45c-.08-.06-.23 0-.42.08a3.22 3.22 0 00-.74.66l-.13-.28a3.57 3.57 0 01.43-.44 2.63 2.63 0 01.46-.33c.32-.19.55-.24.7-.16s.23.28.23.64v2.07zm-.9.19a1.61 1.61 0 00.59-.57 1.52 1.52 0 00.21-.78v-.28l-.4.25a2.59 2.59 0 00-.68.57 1 1 0 00-.21.59c0 .16 0 .27.13.3A.41.41 0 001017.9 1388.41zM1022.8 1385.9l-.07-.38h0a2.48 2.48 0 01-.39.61 1.89 1.89 0 01-.49.38.68.68 0 01-.61.12c-.15-.07-.23-.24-.23-.53 0-.61.43-1.18 1.28-1.7l.44-.27V1384c0-.24 0-.39-.13-.45s-.23 0-.43.08a3.15 3.15 0 00-.74.66l-.12-.28a3.51 3.51 0 01.42-.44 3.46 3.46 0 01.47-.34c.31-.18.54-.23.69-.16s.23.29.23.64v2.07zm-.89.2a1.59 1.59 0 00.58-.57 1.52 1.52 0 00.21-.78v-.28l-.4.25a2.77 2.77 0 00-.68.57.93.93 0 00-.21.59c0 .16 0 .26.13.3S1021.75 1386.19 1021.91 1386.1zM1024.32 1385l-.4.23V1381l.4-.22zM1025.13 1380.71a.54.54 0 01.06-.27.46.46 0 01.17-.17c.07 0 .12 0 .17 0s.07.08.07.19a.6.6 0 01-.07.27.46.46 0 01-.17.17c-.07 0-.12 0-.17 0S1025.13 1380.81 1025.13 1380.71zm.43 3.6l-.4.23v-3l.4-.23zM1027.33 1383.34c-.33.2-.6.21-.79.05a1.3 1.3 0 01-.28-1 2.94 2.94 0 01.28-1.32 1.91 1.91 0 01.8-.88c.36-.21.64-.21.83 0l0 0 0-.44.32-.18v4.39l-.4.23v-1.3a3.33 3.33 0 010-.48h0A1.91 1.91 0 011027.33 1383.34zm.06-.42a1.35 1.35 0 00.58-.58 2 2 0 00.2-.94v-.1c0-.43-.06-.7-.19-.81s-.32-.09-.59.06a1.4 1.4 0 00-.54.63 2.5 2.5 0 00-.18 1 1.18 1.18 0 00.18.77C1027 1383.07 1027.16 1383.06 1027.39 1382.92zM1029.78 1378.84v2c0 .25 0 .4.15.47s.25 0 .46-.08a1.53 1.53 0 00.6-.61 2.08 2.08 0 00.19-1V1378l.4-.23v3l-.33.19-.06-.38 0 0a2 2 0 01-.34.54 2.09 2.09 0 01-.49.4q-.48.29-.72.15c-.16-.08-.24-.32-.24-.7v-2zM1034 1379.42l-.08-.39h0a2.78 2.78 0 01-.39.62 1.93 1.93 0 01-.49.38.68.68 0 01-.61.12c-.15-.07-.22-.25-.22-.53 0-.62.42-1.18 1.27-1.7l.44-.27v-.19c0-.24 0-.39-.13-.45s-.23 0-.42.07a3.45 3.45 0 00-.75.66l-.12-.28a3.49 3.49 0 01.43-.43 2.72 2.72 0 01.46-.34c.31-.18.54-.24.7-.16s.22.29.22.64v2.07zm-.9.19a1.54 1.54 0 00.79-1.35V1378l-.39.25a2.47 2.47 0 00-.69.56 1 1 0 00-.21.59c0 .17 0 .27.13.31A.49.49 0 001033.14 1379.61zM1035.09 1378.52a.67.67 0 01.08-.33.53.53 0 01.21-.21q.13-.09.21 0c.06 0 .08.11.08.23a.57.57 0 01-.08.32.58.58 0 01-.21.23.27.27 0 01-.21 0C1035.12 1378.73 1035.09 1378.65 1035.09 1378.52zM938.8 1437.16v2.61a2.47 2.47 0 01-.36 1.3 2.63 2.63 0 01-1 1c-.42.24-.75.3-1 .17s-.35-.43-.35-.9v-2.61l.41-.23v2.64c0 .34.08.55.24.64s.4 0 .7-.14a1.83 1.83 0 00.69-.66 1.8 1.8 0 00.24-.92v-2.64zM940.52 1439.89l.21-.14.15-.13v.35a1.12 1.12 0 01-.19.18l-.23.15c-.5.29-.76.13-.76-.49V1438l-.38.21V1438l.38-.41.17-.75.23-.13v.7l.76-.44v.36l-.76.44v1.78a.45.45 0 00.11.36A.3.3 0 00940.52 1439.89zM943.79 1438.38c-.39.22-.69.27-.92.12a1.06 1.06 0 01-.34-.94 2.92 2.92 0 01.32-1.35 2.07 2.07 0 01.84-.91c.33-.19.59-.22.78-.08a1 1 0 01.29.82v.29l-1.81 1.05c0 .35.08.57.23.67s.36.08.62-.08a3.27 3.27 0 00.84-.69v.41a3.45 3.45 0 01-.4.38A2.35 2.35 0 01943.79 1438.38zm-.11-2.7a1.34 1.34 0 00-.5.53 1.86 1.86 0 00-.22.79l1.37-.79a.73.73 0 00-.17-.57C944.05 1435.55 943.89 1435.56 943.68 1435.68zM947.23 1436.34v-2c0-.24-.05-.4-.15-.46s-.25 0-.45.08a1.53 1.53 0 00-.61.6 2.21 2.21 0 00-.19 1v1.59l-.4.24v-3l.33-.18.06.37h0a2 2 0 01.34-.54 2 2 0 01.5-.41c.31-.18.55-.23.71-.15s.24.32.24.71v2zM948.41 1431.8a.45.45 0 01.07-.27.55.55 0 01.17-.17.16.16 0 01.16 0c.05 0 .07.09.07.19a.5.5 0 01-.07.27.38.38 0 01-.16.17c-.07 0-.12 0-.17 0S948.41 1431.9 948.41 1431.8zm.43 3.61l-.39.23v-3l.39-.23zM953 1433v-2a.57.57 0 00-.14-.46q-.14-.1-.42.06a1.32 1.32 0 00-.54.56 1.86 1.86 0 00-.18.86v1.69l-.4.23v-2c0-.24 0-.4-.13-.47s-.23 0-.42.07a1.31 1.31 0 00-.55.57 2.15 2.15 0 00-.17.95v1.59l-.4.23v-3l.32-.19.07.38h0a2 2 0 01.32-.53 1.87 1.87 0 01.46-.39c.41-.24.68-.22.81 0h0a1.8 1.8 0 01.34-.58 2 2 0 01.5-.43c.3-.17.52-.21.67-.12s.22.33.22.72v2zM957.14 1430.62l-.08-.39h0a2.48 2.48 0 01-.39.61 1.83 1.83 0 01-.48.38.67.67 0 01-.62.12c-.15-.06-.22-.24-.22-.53 0-.61.43-1.18 1.27-1.7l.45-.27v-.19c0-.24 0-.39-.13-.45s-.23 0-.43.08a2.8 2.8 0 00-.74.66l-.12-.28a4.37 4.37 0 01.42-.44 3.46 3.46 0 01.47-.34c.31-.18.54-.23.69-.16s.23.29.23.64v2.07zm-.9.19a1.54 1.54 0 00.59-.57 1.52 1.52 0 00.21-.78v-.28l-.4.25a2.77 2.77 0 00-.68.57 1 1 0 00-.21.59c0 .16 0 .26.13.3A.41.41 0 00956.24 1430.81zM960.05 1428.53h0a1.9 1.9 0 01-.82.94c-.34.2-.61.22-.8.06a1.28 1.28 0 01-.29-1 3 3 0 01.29-1.33 2 2 0 01.8-.88c.36-.21.63-.21.82 0l0 0 0-.21v-1.44l.4-.23v4.3l-.32.19zm-.8.54a1.48 1.48 0 00.59-.6 2.08 2.08 0 00.18-.93v-.1a1.19 1.19 0 00-.18-.81c-.12-.11-.32-.09-.59.07a1.23 1.23 0 00-.54.62 2.5 2.5 0 00-.19 1 1.19 1.19 0 00.19.78C958.83 1429.21 959 1429.21 959.25 1429.07zM965.89 1425.57v-2a.57.57 0 00-.14-.46c-.08-.07-.22-.05-.41.06a1.35 1.35 0 00-.55.56 1.86 1.86 0 00-.18.86v1.69l-.4.23v-2c0-.24 0-.4-.13-.47s-.23 0-.42.06a1.39 1.39 0 00-.55.58 2.28 2.28 0 00-.17 1v1.59l-.4.23v-3l.32-.19.07.38h0a1.6 1.6 0 01.32-.53 1.38 1.38 0 01.45-.39c.41-.24.68-.22.81 0h0a2 2 0 01.34-.58 1.88 1.88 0 01.51-.43c.29-.17.52-.21.67-.12s.22.33.22.72v2zM967.07 1421a.45.45 0 01.07-.27.46.46 0 01.17-.17.14.14 0 01.16 0s.07.08.07.19a.5.5 0 01-.07.27.52.52 0 01-.16.17.18.18 0 01-.17 0S967.07 1421.13 967.07 1421zm.43 3.6l-.39.23v-3l.39-.23zM970.14 1423.11v-2c0-.25 0-.41-.14-.47s-.25 0-.46.08a1.5 1.5 0 00-.6.6 2.09 2.09 0 00-.19 1v1.59l-.4.23v-3l.32-.18.07.37h0a2.15 2.15 0 01.84-1c.31-.18.55-.23.71-.15s.24.32.24.71v2zM971.33 1418.57a.6.6 0 01.06-.27.55.55 0 01.17-.17.18.18 0 01.17 0s.07.09.07.19a.6.6 0 01-.07.27.4.4 0 01-.17.17c-.07 0-.12 0-.17 0S971.33 1418.68 971.33 1418.57zm.43 3.61l-.4.23v-3l.4-.23zM976 1419.76v-2a.61.61 0 00-.13-.46q-.14-.1-.42.06a1.35 1.35 0 00-.55.56 1.86 1.86 0 00-.18.86v1.69l-.39.23v-2c0-.24 0-.4-.14-.46s-.23 0-.42.06a1.31 1.31 0 00-.55.57 2.31 2.31 0 00-.17.95v1.59l-.4.23v-3l.33-.19.06.38h0a1.89 1.89 0 01.78-.92c.41-.24.68-.22.8 0h0a1.84 1.84 0 01.34-.57 1.93 1.93 0 01.51-.44q.45-.26.66-.12c.15.09.23.33.23.72v2zM979 1418l-1-2.46.43-.25.56 1.47a5.75 5.75 0 01.23.69h0c0-.11.07-.34.16-.7s.31-1.15.63-2.37l.43-.25-1 3.61zM982 1416.31c-.39.23-.69.27-.92.13a1.08 1.08 0 01-.34-1 2.88 2.88 0 01.32-1.34 2.1 2.1 0 01.84-.92c.33-.19.59-.22.78-.08a1 1 0 01.29.83v.29l-1.81 1c0 .35.08.58.23.68s.36.07.62-.09a3.27 3.27 0 00.84-.69v.41a3.6 3.6 0 01-.4.39A2.92 2.92 0 01982 1416.31zm-.11-2.69a1.28 1.28 0 00-.5.53 1.81 1.81 0 00-.22.78l1.37-.79a.73.73 0 00-.17-.57C982.27 1413.48 982.11 1413.5 981.9 1413.62zM985.45 1414.27v-2c0-.25-.05-.4-.14-.47s-.25 0-.46.08a1.49 1.49 0 00-.61.61 2.15 2.15 0 00-.19 1v1.59l-.39.23v-3l.32-.19.06.38h0a2.1 2.1 0 01.34-.55 2 2 0 01.5-.41c.31-.18.55-.23.71-.14s.24.31.24.7v2zM986.63 1409.73a.6.6 0 01.07-.27.55.55 0 01.17-.17.19.19 0 01.16 0c.05 0 .07.09.07.19a.45.45 0 01-.07.27.47.47 0 01-.16.18.18.18 0 01-.17 0A.24.24 0 01986.63 1409.73zm.43 3.61l-.39.23v-3l.39-.23zM989.52 1411.92l-.07-.39 0 0a2.93 2.93 0 01-.4.61 1.93 1.93 0 01-.49.38.68.68 0 01-.61.12c-.14-.07-.22-.25-.22-.53 0-.62.43-1.18 1.28-1.7l.44-.27V1410c0-.24 0-.39-.13-.45s-.23 0-.43.07a3.27 3.27 0 00-.74.67L988 1410a4.26 4.26 0 01.42-.43 2.77 2.77 0 01.47-.34c.31-.18.54-.23.69-.16s.23.29.23.64v2.07zm-.9.2a1.64 1.64 0 00.59-.58 1.52 1.52 0 00.21-.78v-.27l-.4.25a2.56 2.56 0 00-.68.56 1 1 0 00-.21.59c0 .17 0 .27.13.31A.44.44 0 00988.62 1412.12zM994 1409.34v-2a.6.6 0 00-.14-.47c-.09-.06-.23-.05-.41.06a1.37 1.37 0 00-.55.57 1.86 1.86 0 00-.18.86v1.69l-.4.23v-2c0-.24 0-.4-.13-.47s-.23 0-.42.06a1.39 1.39 0 00-.55.58 2.13 2.13 0 00-.17 1v1.59l-.4.23v-3l.32-.18.07.37h0a2 2 0 01.31-.53 1.64 1.64 0 01.46-.38c.41-.24.68-.23.81 0l0 0a1.87 1.87 0 01.34-.57 1.85 1.85 0 01.5-.43c.3-.17.52-.21.67-.12s.22.33.22.72v2zM995.62 1407.74l0 0-.18.75c-.08.29-.16.57-.25.83l-.3.17c.05-.22.09-.48.15-.79s.08-.56.11-.75zM998.61 1406.73c-.34.19-.6.21-.79 0a1.27 1.27 0 01-.28-1 3 3 0 01.28-1.33 2.08 2.08 0 01.8-.88c.36-.21.64-.21.83 0h0l.06-.45.32-.18v4.39l-.4.23v-1.29c0-.19 0-.35 0-.49l0 0A2 2 0 01998.61 1406.73zm.07-.42a1.44 1.44 0 00.57-.58 2.08 2.08 0 00.2-.94v-.11a1.16 1.16 0 00-.19-.81c-.12-.11-.32-.09-.59.07a1.33 1.33 0 00-.54.62 2.5 2.5 0 00-.18 1 1.17 1.17 0 00.18.77C998.25 1406.45 998.43 1406.45 998.68 1406.31zM1001.06 1402.23v2c0 .25.05.41.15.47s.25 0 .46-.08a1.53 1.53 0 00.6-.61 2 2 0 00.19-1v-1.59l.4-.23v3l-.33.19-.06-.37h0a1.7 1.7 0 01-.34.54 1.87 1.87 0 01-.49.4c-.32.19-.56.24-.72.16s-.24-.32-.24-.71v-2zM1003.67 1399.9a.45.45 0 01.07-.27.44.44 0 01.16-.17.18.18 0 01.17 0s.07.09.07.19a.5.5 0 01-.07.27.4.4 0 01-.17.17.14.14 0 01-.16 0S1003.67 1400 1003.67 1399.9zm.43 3.6l-.4.23v-3l.4-.23zM1006.64 1401.21a1.31 1.31 0 01-.28.81 2.18 2.18 0 01-.76.67 1.46 1.46 0 01-.82.28v-.42a1.51 1.51 0 00.41-.06 1.9 1.9 0 00.42-.18 1.77 1.77 0 00.48-.39.71.71 0 00.16-.45c0-.12 0-.19-.13-.22a1.08 1.08 0 00-.52 0 1.6 1.6 0 01-.52 0 .35.35 0 01-.23-.13.55.55 0 01-.07-.31 1.21 1.21 0 01.26-.74 2.31 2.31 0 01.71-.63 2.21 2.21 0 01.83-.28l-.14.46a2 2 0 00-.72.22 1.53 1.53 0 00-.42.35.61.61 0 00-.15.37.21.21 0 00.06.17.25.25 0 00.17.07 3.79 3.79 0 00.46 0 1 1 0 01.63 0A.44.44 0 011006.64 1401.21zM1010.36 1399.89v-2c0-.25-.05-.4-.15-.47s-.25 0-.46.08a1.53 1.53 0 00-.6.61 2 2 0 00-.19 1v1.59l-.4.23v-3l.32-.19.07.38h0a1.86 1.86 0 01.34-.55 1.83 1.83 0 01.49-.4q.48-.29.72-.15c.15.08.23.32.23.71v2zM1013.84 1396.36a2.86 2.86 0 01-.32 1.35 2.37 2.37 0 01-.9.93 1 1 0 01-.62.17.51.51 0 01-.42-.3 1.58 1.58 0 01-.15-.75 2.78 2.78 0 01.32-1.35 2.25 2.25 0 01.89-.92c.37-.21.66-.24.88-.09A1.16 1.16 0 011013.84 1396.36zm-2 1.16a1 1 0 00.2.77c.13.12.33.11.59 0a1.54 1.54 0 00.6-.64 2.43 2.43 0 00.2-1 1.07 1.07 0 00-.2-.76c-.14-.12-.34-.11-.6 0a1.46 1.46 0 00-.59.64A2.18 2.18 0 001011.84 1397.52zM1016.23 1395.67a1.41 1.41 0 01-.27.82 2.44 2.44 0 01-.77.67 1.64 1.64 0 01-.81.28V1397a1.49 1.49 0 00.4-.06 1.57 1.57 0 00.42-.18 1.63 1.63 0 00.48-.39.72.72 0 00.17-.45.22.22 0 00-.13-.22 1.23 1.23 0 00-.52 0 2.09 2.09 0 01-.52 0 .34.34 0 01-.23-.14.46.46 0 01-.08-.31 1.31 1.31 0 01.26-.74 2.35 2.35 0 01.72-.63 2.15 2.15 0 01.83-.28l-.15.46a1.7 1.7 0 00-.71.23 1.41 1.41 0 00-.43.34.66.66 0 00-.14.37.3.3 0 000 .18.38.38 0 00.18.06l.46 0a1 1 0 01.63 0A.43.43 0 011016.23 1395.67zM1017.73 1395.32l.2-.14.16-.13v.35a1.25 1.25 0 01-.2.17 1.34 1.34 0 01-.22.16c-.51.29-.76.13-.76-.49v-1.81l-.38.22v-.22l.38-.41.16-.74.24-.14v.71l.76-.44v.36l-.76.43V1395c0 .18 0 .3.11.36A.3.3 0 001017.73 1395.32zM1019.81 1391.35a1.71 1.71 0 01.31-.15l0 .46a1.1 1.1 0 00-.29.12 1.46 1.46 0 00-.54.62 1.83 1.83 0 00-.23.87v1.63l-.4.23v-3l.33-.18 0 .53h0a3 3 0 01.36-.66A1.36 1.36 0 011019.81 1391.35zM1021 1390.72v2c0 .25 0 .4.14.47s.25 0 .46-.08a1.41 1.41 0 00.6-.61 2.07 2.07 0 00.2-1v-1.59l.4-.23v3l-.32.19-.06-.38 0 0a2.57 2.57 0 01-.34.54 2.15 2.15 0 01-.5.4q-.48.29-.72.15c-.15-.08-.23-.32-.23-.7v-2zM1025.42 1390.79l0 0a1.92 1.92 0 01-.82.93c-.34.2-.61.22-.8.06a1.28 1.28 0 01-.29-1 3 3 0 01.29-1.33 2 2 0 01.8-.88c.35-.21.63-.22.82 0l0 0 0-.21v-1.44l.4-.23v4.3l-.32.19zm-.8.54a1.48 1.48 0 00.59-.6 2.08 2.08 0 00.18-.93v-.1a1.19 1.19 0 00-.18-.81c-.13-.11-.32-.09-.6.07a1.26 1.26 0 00-.53.62 2.51 2.51 0 00-.19 1 1.18 1.18 0 00.19.77C1024.2 1391.47 1024.38 1391.47 1024.62 1391.33zM937.21 1449c-.39.22-.7.26-.92.12a1.06 1.06 0 01-.34-.94 2.92 2.92 0 01.32-1.35 2.07 2.07 0 01.84-.91c.33-.19.58-.22.78-.08a1 1 0 01.28.82v.29l-1.8 1c0 .35.08.57.23.67s.35.08.62-.08a3.27 3.27 0 00.84-.69v.41a3.45 3.45 0 01-.4.38A2.35 2.35 0 01937.21 1449zm-.11-2.7a1.34 1.34 0 00-.5.53 1.86 1.86 0 00-.22.79l1.37-.79a.73.73 0 00-.17-.57C937.47 1446.15 937.31 1446.16 937.1 1446.28zM939.49 1446.06l-.92-1 .46-.26.69.77.69-1.57.45-.25-.92 2 1 1-.45.26-.73-.8-.74 1.66-.46.25zM942.53 1445.91a.9.9 0 01-.92.12c-.22-.15-.33-.46-.33-1a2.9 2.9 0 01.31-1.34 2.15 2.15 0 01.84-.92c.33-.19.59-.21.78-.07a1 1 0 01.29.82v.29l-1.81 1a.85.85 0 00.23.68c.15.1.36.07.63-.08a4.25 4.25 0 00.84-.69v.41c-.14.15-.28.27-.4.38A5.2 5.2 0 01942.53 1445.91zm-.1-2.7a1.3 1.3 0 00-.51.53 2 2 0 00-.22.78l1.37-.79c0-.29-.05-.48-.17-.57S942.63 1443.09 942.43 1443.21zM945.38 1441.12a1.44 1.44 0 01.31-.15l-.05.46-.29.12a1.54 1.54 0 00-.55.62 1.87 1.87 0 00-.22.87v1.63l-.4.23v-3l.33-.19 0 .53h0a3.41 3.41 0 01.35-.66A1.64 1.64 0 01945.38 1441.12zM947.23 1443.19c-.38.22-.67.26-.88.11s-.31-.48-.31-1a2.87 2.87 0 01.31-1.36 2.35 2.35 0 01.91-.94 1.84 1.84 0 01.38-.17 1 1 0 01.29-.06l-.12.46a1.21 1.21 0 00-.29.07 1.11 1.11 0 00-.27.12 1.74 1.74 0 00-.8 1.64 1 1 0 00.19.74c.13.13.33.12.58 0a3.18 3.18 0 00.67-.55v.4A2.23 2.23 0 01947.23 1443.19zM948.49 1438.56a.54.54 0 01.06-.27.46.46 0 01.17-.17.18.18 0 01.17 0s.06.08.06.19a.6.6 0 01-.06.27.55.55 0 01-.17.17c-.07 0-.12 0-.17 0S948.49 1438.66 948.49 1438.56zm.43 3.61l-.4.23v-3l.4-.23zM950.61 1440.86a1.37 1.37 0 00.2-.13l.16-.13v.35a1.72 1.72 0 01-.19.17l-.23.16c-.51.29-.76.13-.76-.49V1439l-.38.21V1439l.38-.41.17-.74.23-.13v.7l.76-.44v.36l-.76.44v1.78c0 .18 0 .3.11.36S950.48 1440.94 950.61 1440.86zM953.11 1439.74l-.08-.38h0a2.48 2.48 0 01-.39.61 1.89 1.89 0 01-.49.38c-.26.15-.46.2-.61.13s-.22-.25-.22-.54c0-.61.42-1.18 1.27-1.69l.44-.28v-.19c0-.23 0-.39-.13-.45s-.23 0-.42.08a3.2 3.2 0 00-.75.66l-.12-.28a3.57 3.57 0 01.43-.44 2.31 2.31 0 01.46-.33c.31-.19.54-.24.7-.17s.22.29.22.65v2.07zm-.9.2a1.54 1.54 0 00.79-1.35v-.28l-.39.25a2.67 2.67 0 00-.69.57 1 1 0 00-.21.59c0 .16 0 .27.13.3S952.05 1440 952.21 1439.94zM955.07 1438.29l.2-.14.16-.12v.35a1.81 1.81 0 01-.19.17l-.23.15c-.51.29-.76.13-.76-.49v-1.8l-.38.22v-.22l.38-.41.17-.75.23-.13v.7l.76-.44v.36l-.76.44V1438a.43.43 0 00.11.35C954.84 1438.38 954.94 1438.36 955.07 1438.29zM955.92 1434.27a.45.45 0 01.07-.27.35.35 0 01.17-.17.16.16 0 01.16 0s.07.09.07.19a.51.51 0 01-.07.28.66.66 0 01-.16.17.18.18 0 01-.17 0S955.92 1434.37 955.92 1434.27zm.43 3.6l-.39.23v-3l.39-.23zM959.46 1434.56a2.85 2.85 0 01-.32 1.34 2.44 2.44 0 01-.89.94 1 1 0 01-.63.16.53.53 0 01-.42-.3 1.56 1.56 0 01-.15-.75 2.85 2.85 0 01.32-1.34 2.35 2.35 0 01.89-.93c.37-.21.66-.24.88-.08A1.16 1.16 0 01959.46 1434.56zm-2 1.15a1.08 1.08 0 00.2.77c.14.13.34.11.59 0a1.43 1.43 0 00.6-.64 2.39 2.39 0 00.2-1 1.08 1.08 0 00-.2-.76c-.14-.12-.34-.1-.6 0a1.41 1.41 0 00-.59.64A2.27 2.27 0 00957.46 1435.71zM962 1434.64v-2c0-.24-.05-.4-.15-.47s-.25 0-.46.09a1.57 1.57 0 00-.6.6 2.08 2.08 0 00-.19 1v1.59l-.4.23v-3l.32-.19.07.38h0a1.86 1.86 0 01.34-.55 2 2 0 01.49-.4q.48-.27.72-.15c.16.08.24.32.24.71v2zM964.82 1430v2c0 .24 0 .4.15.47s.25 0 .46-.09a1.5 1.5 0 00.6-.6 2.08 2.08 0 00.19-1v-1.6l.4-.23v3l-.33.19-.06-.38h0a2.05 2.05 0 01-.83 1q-.48.27-.72.15c-.16-.08-.24-.32-.24-.7v-2zM967.86 1431.23l-.4.23v-4.31l.4-.23zM969.1 1430.51l-.4.23v-4.3l.4-.23zM971.56 1429.09l-.08-.38h0a2.69 2.69 0 01-.39.61 1.93 1.93 0 01-.49.38.68.68 0 01-.61.12c-.15-.06-.22-.24-.22-.53 0-.61.42-1.18 1.27-1.7l.44-.27v-.19c0-.24 0-.39-.13-.45s-.23 0-.42.08a3 3 0 00-.75.66l-.12-.28a3 3 0 01.43-.44 2.72 2.72 0 01.46-.34c.31-.18.55-.23.7-.16s.22.29.22.64v2.07zm-.9.2a1.51 1.51 0 00.58-.57 1.44 1.44 0 00.22-.78v-.28l-.4.25a2.48 2.48 0 00-.69.57.93.93 0 00-.21.59c0 .16.05.26.13.3A.47.47 0 00970.66 1429.29zM976 1426.52v-2c0-.24 0-.39-.13-.46s-.23 0-.42.06a1.35 1.35 0 00-.55.56 1.86 1.86 0 00-.18.86v1.69l-.39.23v-2a.6.6 0 00-.14-.47c-.09-.07-.23 0-.42.07a1.24 1.24 0 00-.54.57 2.14 2.14 0 00-.18 1v1.59l-.4.23v-3l.33-.19.06.38h0a1.79 1.79 0 01.32-.53 1.87 1.87 0 01.46-.39c.41-.24.68-.22.8 0h0a2 2 0 01.34-.58 2.08 2.08 0 01.51-.43c.3-.17.52-.21.67-.12s.22.33.22.72v2zM978.29 1425.26c-.38.22-.68.26-.88.11a1.14 1.14 0 01-.32-1 2.87 2.87 0 01.32-1.36 2.29 2.29 0 01.91-.94 2 2 0 01.37-.17 1.11 1.11 0 01.3-.06l-.12.46a1.11 1.11 0 00-.29.07 1.39 1.39 0 00-.28.12 1.72 1.72 0 00-.79 1.64 1 1 0 00.19.74c.13.13.32.11.58 0a3.18 3.18 0 00.67-.55v.4A2.36 2.36 0 01978.29 1425.26zM981.84 1421.64a2.85 2.85 0 01-.32 1.34 2.35 2.35 0 01-.89.93 1 1 0 01-.63.17.53.53 0 01-.42-.3 1.56 1.56 0 01-.15-.75 2.82 2.82 0 01.32-1.34 2.28 2.28 0 01.89-.93c.37-.21.66-.24.88-.08A1.15 1.15 0 01981.84 1421.64zm-2 1.15a1.08 1.08 0 00.2.77c.14.13.33.11.59 0a1.43 1.43 0 00.6-.64 2.39 2.39 0 00.2-1 1.08 1.08 0 00-.2-.76c-.14-.12-.34-.1-.6.05a1.44 1.44 0 00-.59.63A2.35 2.35 0 00979.84 1422.79zM984.21 1421.79l-.39.23v-4.31l.4-.23zM986.67 1420.37l-.08-.39h0a2.48 2.48 0 01-.39.61 2 2 0 01-.49.39.68.68 0 01-.61.12c-.15-.07-.22-.25-.22-.54 0-.61.42-1.17 1.27-1.69l.45-.28v-.18a.61.61 0 00-.13-.46c-.09-.06-.24 0-.43.08a3.22 3.22 0 00-.74.66l-.12-.28a4.32 4.32 0 01.42-.44 3.29 3.29 0 01.46-.33c.32-.18.55-.24.7-.16s.23.28.23.64v2.07zm-.9.19a1.61 1.61 0 00.59-.57 1.52 1.52 0 00.21-.78v-.27l-.4.24a2.59 2.59 0 00-.68.57 1 1 0 00-.21.59c0 .17 0 .27.13.3A.41.41 0 00985.77 1420.56zM989 1415.94c.34-.2.61-.22.8-.06a1.28 1.28 0 01.29 1 3 3 0 01-.29 1.33 2 2 0 01-.8.87 1 1 0 01-.47.16.44.44 0 01-.36-.13l0 0-.09.44-.28.16v-4.3l.39-.23v1c0 .24 0 .45 0 .65h0A2 2 0 01989 1415.94zm-.06.41a1.44 1.44 0 00-.59.61 2.39 2.39 0 00-.18 1 1.16 1.16 0 00.19.8c.12.12.32.09.59-.06a1.31 1.31 0 00.55-.63 2.43 2.43 0 00.18-1 1.2 1.2 0 00-.18-.78C989.39 1416.2 989.2 1416.21 989 1416.35zM993.06 1415.16a2.85 2.85 0 01-.32 1.34 2.33 2.33 0 01-.9.94 1.06 1.06 0 01-.62.17.55.55 0 01-.42-.31 1.56 1.56 0 01-.15-.75 2.85 2.85 0 01.32-1.34 2.2 2.2 0 01.89-.92c.37-.22.66-.25.88-.09A1.16 1.16 0 01993.06 1415.16zm-2 1.16a1.07 1.07 0 00.2.76c.13.13.33.12.59 0a1.51 1.51 0 00.6-.65 2.35 2.35 0 00.2-1 1.1 1.1 0 00-.2-.77c-.14-.12-.34-.1-.6 0a1.41 1.41 0 00-.59.64A2.28 2.28 0 00991.06 1416.32zM995 1412.5a1.44 1.44 0 01.31-.15l0 .46a1.1 1.1 0 00-.29.12 1.5 1.5 0 00-.55.61 1.88 1.88 0 00-.22.88v1.63l-.4.23v-3l.33-.19 0 .54h0a3.14 3.14 0 01.35-.66A1.39 1.39 0 01995 1412.5zM995.73 1411.28a.5.5 0 01.07-.27.52.52 0 01.16-.17.21.21 0 01.17 0 .23.23 0 01.07.19.54.54 0 01-.07.27.49.49 0 01-.17.18.19.19 0 01-.16 0S995.73 1411.39 995.73 1411.28zm.43 3.61l-.4.23v-3l.4-.23zM998.7 1412.6a1.35 1.35 0 01-.28.81 2.28 2.28 0 01-.76.67 1.64 1.64 0 01-.82.28v-.43a1 1 0 00.41-.06 2.47 2.47 0 00.42-.17 1.79 1.79 0 00.48-.4.7.7 0 00.16-.44c0-.12 0-.2-.13-.23a1.42 1.42 0 00-.52 0 1.68 1.68 0 01-.52 0 .36.36 0 01-.23-.14.51.51 0 01-.07-.31 1.24 1.24 0 01.26-.74 2.16 2.16 0 01.71-.62 1.9 1.9 0 01.83-.28l-.14.45a1.86 1.86 0 00-.71.23 1.31 1.31 0 00-.43.35.56.56 0 00-.15.36.24.24 0 00.06.18.21.21 0 00.17.06 2.49 2.49 0 00.46 0 1 1 0 01.63 0A.46.46 0 01998.7 1412.6zM1002.42 1411.28v-2c0-.25 0-.41-.15-.47s-.25 0-.46.08a1.57 1.57 0 00-.6.6 2.08 2.08 0 00-.19 1v1.6l-.4.23v-3l.32-.18.07.37h0a1.82 1.82 0 01.34-.54 1.88 1.88 0 01.49-.41q.48-.27.72-.15c.16.09.23.32.23.71v2zM1003.6 1406.74a.47.47 0 01.07-.27.44.44 0 01.16-.17.18.18 0 01.17 0s.07.09.07.19a.5.5 0 01-.07.27.46.46 0 01-.17.17.14.14 0 01-.16 0S1003.6 1406.84 1003.6 1406.74zm.43 3.61l-.4.23v-3l.4-.23zM1006.57 1408.05a1.36 1.36 0 01-.27.81 2.45 2.45 0 01-.77.68 1.64 1.64 0 01-.82.28v-.43a1.56 1.56 0 00.41-.06 1.9 1.9 0 00.42-.18 1.77 1.77 0 00.48-.39.71.71 0 00.16-.45.21.21 0 00-.13-.22 1.08 1.08 0 00-.52 0 2 2 0 01-.52 0 .32.32 0 01-.23-.13.53.53 0 01-.07-.31 1.24 1.24 0 01.26-.74 2.31 2.31 0 01.71-.63 2.21 2.21 0 01.83-.28l-.14.46a1.85 1.85 0 00-.71.22 1.45 1.45 0 00-.43.35.59.59 0 00-.14.37c0 .08 0 .14 0 .17a.25.25 0 00.17.07 3.79 3.79 0 00.46 0 1 1 0 01.63 0A.44.44 0 011006.57 1408.05zM1007.18 1404.67a.6.6 0 01.07-.27.46.46 0 01.17-.17.16.16 0 01.16 0s.07.09.07.19a.5.5 0 01-.07.27.44.44 0 01-.16.17.19.19 0 01-.17 0A.25.25 0 011007.18 1404.67zm.43 3.61l-.39.23v-3l.39-.23zM1010.11 1403.81v2c0 .25 0 .41.14.47s.25 0 .46-.08a1.47 1.47 0 00.6-.61 2 2 0 00.19-1V1403l.4-.23v3l-.33.19-.05-.37h0a1.7 1.7 0 01-.34.54 1.87 1.87 0 01-.49.4c-.32.19-.56.24-.72.16s-.24-.32-.24-.71v-2zM1013.59 1404.5l.21-.13.15-.13v.35a.83.83 0 01-.19.17l-.22.15c-.51.3-.77.13-.77-.48v-1.81l-.37.22v-.22l.37-.41.17-.74.23-.14v.71l.76-.44v.35l-.76.44v1.79a.43.43 0 00.11.35C1013.36 1404.59 1013.46 1404.58 1013.59 1404.5zM1017.37 1402.65l-.08-.39h0a2.48 2.48 0 01-.39.61 2.16 2.16 0 01-.49.39.68.68 0 01-.61.12c-.15-.07-.22-.25-.22-.54 0-.61.42-1.18 1.27-1.7l.44-.27v-.19c0-.23 0-.39-.13-.45s-.23 0-.42.08a3.2 3.2 0 00-.75.66l-.12-.28a3.57 3.57 0 01.43-.44 2.79 2.79 0 01.46-.33c.31-.18.54-.24.7-.16s.22.28.22.64v2.07zm-.9.19a1.54 1.54 0 00.79-1.35v-.28l-.39.25a2.67 2.67 0 00-.69.57 1 1 0 00-.21.59c0 .17 0 .27.13.3S1016.31 1402.93 1016.47 1402.84zM1018.88 1401.77l-.4.23v-4.3l.4-.23zM1019.69 1397.45a.5.5 0 01.07-.27.52.52 0 01.16-.17.18.18 0 01.17 0s.07.09.07.19a.5.5 0 01-.07.27.4.4 0 01-.17.17.14.14 0 01-.16 0S1019.69 1397.55 1019.69 1397.45zm.43 3.61l-.4.23v-3l.4-.23zM1021.9 1400.09c-.34.19-.61.21-.8 0a1.27 1.27 0 01-.28-1 2.86 2.86 0 01.29-1.33 1.91 1.91 0 01.8-.88c.36-.21.63-.21.83 0h0l0-.45.32-.18v4.39l-.4.23v-1.3a3.43 3.43 0 010-.48l0 0A2.06 2.06 0 011021.9 1400.09zm.06-.42a1.54 1.54 0 00.58-.58 2.25 2.25 0 00.19-.95v-.1a1.16 1.16 0 00-.19-.81c-.12-.11-.32-.09-.59.07a1.26 1.26 0 00-.53.62 2.33 2.33 0 00-.19 1 1.17 1.17 0 00.18.77C1021.54 1399.81 1021.72 1399.8 1022 1399.67zM1024.35 1395.58v2c0 .25.05.41.14.47s.25 0 .46-.08a1.41 1.41 0 00.6-.61 2.08 2.08 0 00.19-1v-1.59l.4-.23v3l-.33.19 0-.37h0a2 2 0 01-.33.54 2.15 2.15 0 01-.5.4q-.48.29-.72.15c-.16-.08-.24-.31-.24-.7v-2zM1027 1393.26a.45.45 0 01.07-.27.4.4 0 01.17-.17.16.16 0 01.16 0c.05 0 .07.08.07.19a.5.5 0 01-.07.27.52.52 0 01-.16.17c-.07 0-.13 0-.17 0S1027 1393.36 1027 1393.26zm.43 3.6l-.4.23v-3l.4-.23zM1029.45 1395.73a1.25 1.25 0 01-.47.16.52.52 0 01-.36-.13h0a4.1 4.1 0 010 .49v1.25l-.39.23v-4.4l.32-.18 0 .38h0a2.79 2.79 0 01.36-.57 1.91 1.91 0 01.47-.38c.35-.2.62-.22.81 0a1.32 1.32 0 01.28 1 3 3 0 01-.29 1.33A2 2 0 011029.45 1395.73zm-.06-2.72a1.37 1.37 0 00-.58.59 2.22 2.22 0 00-.19.93v.1a1.16 1.16 0 00.19.8c.12.12.32.1.59-.06a1.24 1.24 0 00.53-.63 2.32 2.32 0 00.2-1 1.07 1.07 0 00-.2-.76C1029.81 1392.87 1029.62 1392.87 1029.39 1393zM937.21 1455.78c-.39.22-.7.27-.92.12a1.06 1.06 0 01-.34-.94 2.92 2.92 0 01.32-1.35 2.07 2.07 0 01.84-.91c.33-.19.59-.22.78-.08a1 1 0 01.28.82v.29l-1.8 1c0 .35.08.58.23.68s.35.07.62-.09a3.27 3.27 0 00.84-.69v.41a3.45 3.45 0 01-.4.38A2.35 2.35 0 01937.21 1455.78zm-.11-2.7a1.34 1.34 0 00-.5.53 1.86 1.86 0 00-.22.79l1.37-.79a.73.73 0 00-.17-.57C937.47 1453 937.31 1453 937.1 1453.08zM939.49 1452.86l-.92-1 .46-.26.69.77.69-1.57.45-.25-.92 2 1 1-.45.26-.73-.8-.74 1.66-.46.26zM943.81 1452c-.39.22-.69.26-.92.12a1.06 1.06 0 01-.34-.94 2.92 2.92 0 01.32-1.35 2.07 2.07 0 01.84-.91c.33-.19.58-.22.78-.08a1 1 0 01.28.82v.29l-1.8 1c0 .35.08.58.23.67s.36.08.62-.08a3.27 3.27 0 00.84-.69v.41a3.45 3.45 0 01-.4.38A2.92 2.92 0 01943.81 1452zm-.11-2.7a1.28 1.28 0 00-.5.53 1.86 1.86 0 00-.22.79l1.37-.79a.73.73 0 00-.17-.57C944.07 1449.14 943.91 1449.15 943.7 1449.27zM947.07 1450l-.08-.38h0a2.69 2.69 0 01-.39.61 1.93 1.93 0 01-.49.38.68.68 0 01-.61.12c-.15-.07-.22-.24-.22-.53 0-.61.42-1.18 1.27-1.7l.44-.27v-.19c0-.24 0-.39-.13-.45s-.23 0-.42.08a3 3 0 00-.75.66l-.12-.28a3 3 0 01.43-.44 2.72 2.72 0 01.46-.34c.31-.18.55-.23.7-.16s.22.29.22.64v2.07zm-.9.2a1.67 1.67 0 00.58-.57 1.54 1.54 0 00.22-.79v-.27l-.4.25a2.66 2.66 0 00-.69.56 1 1 0 00-.21.6c0 .16.05.26.13.3S946 1450.32 946.17 1450.23zM950.51 1448.1c-.38.22-.68.26-.89.11s-.31-.47-.31-1a2.87 2.87 0 01.32-1.36 2.33 2.33 0 01.9-.94 2.48 2.48 0 01.38-.17 1.11 1.11 0 01.3-.06l-.12.46a1.11 1.11 0 00-.29.07 1.18 1.18 0 00-.28.12 1.73 1.73 0 00-.8 1.64 1 1 0 00.2.74c.13.13.32.11.58 0a3.18 3.18 0 00.67-.55v.4A2.51 2.51 0 01950.51 1448.1zM954.06 1444.48a2.85 2.85 0 01-.32 1.34 2.3 2.3 0 01-.9.93.93.93 0 01-.62.17.53.53 0 01-.42-.3 1.56 1.56 0 01-.15-.75 2.82 2.82 0 01.32-1.34 2.28 2.28 0 01.89-.93c.37-.21.66-.24.88-.08A1.15 1.15 0 01954.06 1444.48zm-2 1.15a1.1 1.1 0 00.2.77c.14.13.33.11.59 0a1.49 1.49 0 00.6-.64 2.39 2.39 0 00.2-1 1.08 1.08 0 00-.2-.76c-.14-.12-.34-.1-.6 0a1.44 1.44 0 00-.59.63A2.35 2.35 0 00952.06 1445.63zM958.11 1443.66v-2a.6.6 0 00-.14-.47c-.09-.07-.23 0-.41.06a1.29 1.29 0 00-.55.56 1.86 1.86 0 00-.18.86v1.7l-.4.23v-2c0-.24 0-.39-.13-.46s-.23 0-.42.06a1.31 1.31 0 00-.55.57 2.15 2.15 0 00-.17 1v1.59l-.4.23v-3l.32-.19.07.38h0a1.81 1.81 0 01.77-.92c.41-.24.68-.22.81 0h0a2 2 0 01.34-.57 1.75 1.75 0 01.51-.43c.29-.18.52-.22.66-.13s.22.33.22.72v2zM962.67 1441v-2c0-.24 0-.4-.13-.46s-.23-.06-.42.05a1.37 1.37 0 00-.55.57 1.86 1.86 0 00-.18.86v1.69l-.39.23v-2a.6.6 0 00-.14-.47q-.14-.1-.42.06a1.37 1.37 0 00-.54.58 2.12 2.12 0 00-.18 1v1.59l-.39.23v-3l.32-.18.06.37h0a2.08 2.08 0 01.32-.53 1.64 1.64 0 01.46-.38c.41-.24.68-.23.8 0l0 0a2.39 2.39 0 01.34-.57 1.88 1.88 0 01.51-.43c.3-.17.52-.21.67-.12s.22.33.22.72v2zM966.16 1437.49a2.75 2.75 0 01-.33 1.35 2.28 2.28 0 01-.89.93 1 1 0 01-.63.17.53.53 0 01-.42-.3 1.58 1.58 0 01-.15-.75 2.72 2.72 0 01.33-1.34 2.22 2.22 0 01.89-.93c.36-.21.66-.24.87-.09A1.13 1.13 0 01966.16 1437.49zm-2 1.16a1 1 0 00.2.77c.13.12.33.11.59 0a1.46 1.46 0 00.59-.64 2.28 2.28 0 00.2-1 1 1 0 00-.2-.76c-.13-.12-.33-.11-.6 0a1.44 1.44 0 00-.58.64A2.18 2.18 0 00964.16 1438.65zM968.64 1437.17h0a2 2 0 01-.82.94c-.35.2-.61.22-.8.06a1.28 1.28 0 01-.29-1 3 3 0 01.29-1.34 2 2 0 01.8-.87c.35-.21.63-.22.82 0l0 0 0-.2v-1.45l.4-.22v4.3l-.33.19zm-.79.54a1.48 1.48 0 00.59-.6 2.08 2.08 0 00.18-.93v-.1a1.19 1.19 0 00-.18-.81c-.13-.11-.33-.09-.6.07a1.26 1.26 0 00-.53.62 2.33 2.33 0 00-.19 1 1.15 1.15 0 00.18.77C967.43 1437.85 967.61 1437.84 967.85 1437.71zM972.13 1434a2.86 2.86 0 01-.32 1.35 2.37 2.37 0 01-.9.93 1 1 0 01-.62.17.51.51 0 01-.42-.3 1.56 1.56 0 01-.15-.75 2.71 2.71 0 01.32-1.34 2.28 2.28 0 01.89-.93c.37-.21.66-.24.88-.08A1.12 1.12 0 01972.13 1434zm-2 1.16a1 1 0 00.2.77c.13.12.33.11.59 0a1.49 1.49 0 00.6-.64 2.39 2.39 0 00.2-1 1.07 1.07 0 00-.2-.76c-.14-.12-.34-.11-.6 0a1.44 1.44 0 00-.59.63A2.2 2.2 0 00970.13 1435.2zM975.15 1433.87c-.38.22-.67.26-.88.11s-.31-.47-.31-1a2.9 2.9 0 01.31-1.36 2.33 2.33 0 01.91-.93 1.88 1.88 0 01.38-.18 1 1 0 01.29-.06l-.12.46a2 2 0 00-.29.07 1.11 1.11 0 00-.27.12 1.74 1.74 0 00-.8 1.64 1.08 1.08 0 00.19.75c.13.12.33.11.58 0a3.49 3.49 0 00.68-.55v.4A2.41 2.41 0 01975.15 1433.87zM978.71 1430.25a2.74 2.74 0 01-.33 1.34 2.25 2.25 0 01-.89.94 1.09 1.09 0 01-.63.17.57.57 0 01-.42-.31 1.56 1.56 0 01-.15-.75 2.85 2.85 0 01.32-1.34 2.37 2.37 0 01.9-.93c.36-.21.66-.24.87-.08A1.13 1.13 0 01978.71 1430.25zm-2 1.16a1 1 0 00.21.76c.13.13.33.12.59 0a1.49 1.49 0 00.59-.65 2.2 2.2 0 00.2-1 1 1 0 00-.2-.77c-.13-.12-.33-.1-.6 0a1.47 1.47 0 00-.59.64A2.28 2.28 0 00976.7 1431.41zM981.2 1430.33v-2c0-.24-.05-.4-.15-.46s-.25 0-.45.08a1.53 1.53 0 00-.61.6 2.08 2.08 0 00-.19 1v1.6l-.4.23v-3l.33-.18.06.37h0a2 2 0 01.34-.54 1.77 1.77 0 01.5-.41c.31-.18.55-.23.71-.15s.24.32.24.71v2zM984.11 1427.82a1.4 1.4 0 01-.27.81 2.32 2.32 0 01-.77.67 1.54 1.54 0 01-.81.28v-.42a1.49 1.49 0 00.4-.06 1.72 1.72 0 00.42-.18 1.63 1.63 0 00.48-.39.72.72 0 00.17-.45.23.23 0 00-.14-.23 1.24 1.24 0 00-.51 0 2 2 0 01-.53 0 .35.35 0 01-.23-.13.55.55 0 01-.07-.31 1.21 1.21 0 01.26-.74 2.13 2.13 0 01.72-.63 2 2 0 01.83-.28l-.15.45a1.86 1.86 0 00-.71.23 1.59 1.59 0 00-.43.35.57.57 0 00-.14.37.22.22 0 000 .17.22.22 0 00.17.06 1.79 1.79 0 00.46 0 .94.94 0 01.64 0C984.06 1427.48 984.11 1427.62 984.11 1427.82zM985.87 1427.69c-.39.22-.7.26-.92.12s-.34-.46-.34-.94a2.91 2.91 0 01.31-1.35 2.13 2.13 0 01.84-.91c.33-.2.59-.22.78-.08a.94.94 0 01.29.82v.29l-1.81 1c0 .35.09.57.24.67s.35.08.62-.08a3.65 3.65 0 00.84-.69v.41a3.45 3.45 0 01-.4.38A3.5 3.5 0 01985.87 1427.69zm-.11-2.7a1.37 1.37 0 00-.51.53 2.14 2.14 0 00-.22.79l1.38-.8a.7.7 0 00-.17-.56C986.13 1424.86 986 1424.87 985.76 1425zM988.44 1426.2c-.34.2-.6.21-.79 0a1.32 1.32 0 01-.28-1 3 3 0 01.28-1.33 2 2 0 01.8-.88c.36-.21.64-.21.83 0h0l.06-.45.32-.18v4.4l-.4.23v-1.3c0-.19 0-.35 0-.49l0 0A2 2 0 01988.44 1426.2zm.06-.42a1.35 1.35 0 00.58-.58 2.19 2.19 0 00.2-.94v-.1c0-.43-.06-.7-.19-.81s-.32-.09-.59.06a1.32 1.32 0 00-.54.62 2.59 2.59 0 00-.18 1 1.18 1.18 0 00.18.77C988.08 1425.92 988.26 1425.92 988.5 1425.78zM990.89 1421.7v2c0 .24.05.4.15.47s.25 0 .46-.09a1.57 1.57 0 00.6-.6 2.08 2.08 0 00.19-1v-1.6l.4-.23v3l-.33.19-.06-.38h0a1.7 1.7 0 01-.34.54 1.91 1.91 0 01-.49.41q-.48.27-.72.15c-.16-.09-.24-.32-.24-.71v-2zM995.15 1422.28l-.08-.39h0a2.48 2.48 0 01-.39.61 1.89 1.89 0 01-.49.38.66.66 0 01-.61.13c-.15-.07-.22-.25-.22-.54 0-.61.42-1.18 1.27-1.69l.44-.28v-.19c0-.23 0-.39-.13-.45s-.23 0-.42.08a3.2 3.2 0 00-.75.66l-.12-.28a4.37 4.37 0 01.42-.44 2.69 2.69 0 01.47-.33c.31-.19.54-.24.69-.17s.23.29.23.65v2.07zm-.9.19a1.54 1.54 0 00.79-1.35v-.28l-.39.25a2.67 2.67 0 00-.69.57 1 1 0 00-.21.59c0 .16 0 .27.13.3S994.09 1422.56 994.25 1422.47zM997.11 1420.82l.2-.14.16-.12v.35l-.19.17-.23.15c-.51.3-.76.13-.76-.49v-1.8l-.38.22v-.22l.38-.41.17-.75.23-.13v.7l.76-.44v.36l-.76.44v1.79a.43.43 0 00.11.35C996.88 1420.91 997 1420.89 997.11 1420.82zM997.94 1420.37a.66.66 0 01.07-.32.63.63 0 01.21-.22.23.23 0 01.22 0s.07.11.07.24a.66.66 0 01-.07.32.58.58 0 01-.22.22.19.19 0 01-.2 0C998 1420.58 997.94 1420.51 997.94 1420.37z" fill="#000000" class="color000 svgShape"></path><polygon fill="#b8b8b8" points="13.43 931.13 7.61 919.23 201.39 638.77 775.49 963.63 778.8 968.42 591.62 1264.7 13.43 931.13" class="colorf1ce80 svgShape"></polygon><polygon fill="#a3a3a3" points="7.61 919.23 193.78 627.78 775.5 963.16 589.3 1255.1 7.61 919.23" class="coloredad59 svgShape"></polygon><polygon fill="#8c8c8c" points="1537.55 930.69 1543.37 918.79 1349.59 638.33 775.5 963.19 775.48 973.67 959.36 1264.26 1537.55 930.69" class="colorcc774d svgShape"></polygon><polygon fill="#a5a5a5" points="1543.37 918.79 1357.2 627.34 775.5 963.19 961.68 1254.66 1543.37 918.79" class="colorf1c25a svgShape"></polygon><polygon fill="#a3a3a3" points="7.61 919.23 13.43 931.13 591.62 1264.7 589.3 1255.1 7.61 919.23" class="colored9c59 svgShape"></polygon><polygon fill="#a3a3a3" points="1543.37 918.79 1537.55 930.69 959.36 1264.26 961.68 1254.66 1543.37 918.79" class="coloredad59 svgShape"></polygon></g></g></svg></g></svg>