<svg id="illustration-builder" width="500" height="500" viewBox="-10 -30 4108 3962" version="1.1" xmlns="http://www.w3.org/2000/svg" xmlns:xlink="http://www.w3.org/1999/xlink" style="pointer-events: inherit;">
  <g transform="translate(1502,561.875)">
    <g>
      <svg xmlns="http://www.w3.org/2000/svg" width="1771" height="1927" viewBox="0 0 1771 1927">
        <g id="symbols--S5/objects/dashboards/little/11" fill="none" fill-rule="evenodd" stroke="none" stroke-width="1">
          <g id="S5/objects/dashboards/little/11--S5/objects/dashboards/little/11">
            <g id="Group--S5/objects/dashboards/little/11" transform="translate(231.68 15.955)">
              <g id="Group-153--S5/objects/dashboards/little/11">
                <path id="[color1]color--S5/objects/dashboards/little/11" fill="#101010" d="M35.2387068,1160.80961 L1211.47753,1841.73615 C1231.07435,1853.08078 1256.15735,1846.39106 1267.50198,1826.79424 C1271.11583,1820.55165 1273.0188,1813.46614 1273.0188,1806.25297 L1273.0188,777.110966 C1273.0188,752.131102 1259.70726,729.044212 1238.08842,716.529436 L61.8499467,35.6249398 C42.2529687,24.2805817 17.1700599,30.970652 5.82570185,50.56763 C2.21203989,56.8101035 0.309169379,63.895431 0.309169379,71.1084073 L0.309169379,1100.22857 C0.309169379,1125.20808 13.6203485,1148.29471 35.2387068,1160.80961 Z" opacity="1.00"></path>
                <polygon id="Path-887--S5/objects/dashboards/little/11" fill="#FFF" points="40.8122275 1121.17599 1216.45847 1801.75949 1216.45847 748.136009 40.8122275 67.5743439"></polygon>
                <path id="[color1]color--S5/objects/dashboards/little/11" fill="#101010" d="M38.8050688,64.0932267 L38.8050688,1122.33326 L1218.46563,1805.24066 L1218.46563,746.978712 L38.8050688,64.0932267 Z M42.8198152,71.0554262 L1214.45189,749.292426 L1214.45189,1798.27774 L42.8198152,1120.01866 L42.8198152,71.0554262 Z" opacity="1.00"></path>
                <path id="[color1]color--S5/objects/dashboards/little/11" fill="#101010" d="M69.2679689,109.055652 L69.2679689,1112.64088 L1188.00273,1760.27823 L1188.00273,756.672225 L69.2679689,109.055652 Z M73.0753661,115.658276 L1184.19629,758.866443 L1184.19629,1753.67492 L73.0753661,1110.44582 L73.0753661,115.658276 Z" opacity="1.00"></path>
                <path id="[color1]color--S5/objects/dashboards/little/11" fill="#101010" d="M103.478105,169.143832 C108.553627,166.330424 109.829924,158.929411 106.328794,152.613206 C102.827665,146.297001 95.874915,143.457423 90.7993933,146.27083 C85.7238715,149.084238 84.4475744,156.485251 87.9487039,162.801456 C91.4498335,169.117661 98.4025831,171.957239 103.478105,169.143832 Z" opacity="1.00"></path>
                <path id="[color2]color--S5/objects/dashboards/little/11" fill="#000000" d="M138.503023,188.956268 C143.578545,186.142861 144.854842,178.741847 141.353712,172.425642 C137.852583,166.109438 130.899833,163.269859 125.824311,166.083267 C120.74879,168.896675 119.472493,176.297688 122.973622,182.613893 C126.474752,188.930098 133.427501,191.769676 138.503023,188.956268 Z" opacity="1.00"></path>
                <path id="[color1]color--S5/objects/dashboards/little/11" fill="#101010" d="M173.527941,207.671242 C178.603463,204.857834 179.87976,197.456821 176.37863,191.140616 C172.877501,184.824411 165.924751,181.984833 160.849229,184.79824 C155.773708,187.611648 154.497411,195.012661 157.99854,201.328866 C161.49967,207.645071 168.452419,210.484649 173.527941,207.671242 Z" opacity="1.00"></path>
                <path id="shape--S5/objects/dashboards/little/11" fill="#FFF" d="M173.527941,207.671242 C178.603463,204.857834 179.87976,197.456821 176.37863,191.140616 C172.877501,184.824411 165.924751,181.984833 160.849229,184.79824 C155.773708,187.611648 154.497411,195.012661 157.99854,201.328866 C161.49967,207.645071 168.452419,210.484649 173.527941,207.671242 Z" opacity=".53"></path>
              </g>
            </g>
            <g id="Group-30--S5/objects/dashboards/little/11" transform="matrix(-1 0 0 1 909 443)">
              <path id="Path-83-Copy--S5/objects/dashboards/little/11" fill="#FFF" d="M102.995613,233.375181 L495.960129,7.91951918 L495.960129,448.082528 L495.960129,515.562257 C495.960129,528.77856 488.91064,540.991327 477.466248,547.601664 L4.05748364,821.044901 L4.05748364,821.044901 L85.8570024,772.503883 C96.4819083,766.19891 102.995613,754.759344 102.995613,742.404534 L102.995613,674.702055 L102.995613,674.702055 L102.995613,233.375181 Z"></path>
              <path id="[color1]color--S5/objects/dashboards/little/11" fill="#101010" d="M499.321673,473.539501 L499.321673,0.233591735 L97.4543243,230.797079 L97.4543243,703.191921 C97.4543243,738.284862 78.952617,770.778121 48.7733413,788.68694 L0.695940063,817.216766 L5.19405523,824.899516 L442.214058,572.474606 C477.553417,552.062418 499.321673,514.350378 499.321673,473.539501 Z M490.41884,15.6056314 L490.41884,473.539501 L490.409207,474.967119 C489.908682,512.048094 469.934336,546.181998 437.76117,564.765377 L83.9982261,769.09984 C98.2820982,750.456776 106.357157,727.391663 106.357157,703.191921 L106.356206,235.950739 L490.41884,15.6056314 Z" opacity="1.00"></path>
              <polygon id="[color2]color--S5/objects/dashboards/little/11" fill="#000000" points="44.0788697 322.403948 44.0788697 473.196217 285.963231 336.144419 285.963231 183.917355" opacity="1.00"></polygon>
              <path id="[color1]color--S5/objects/dashboards/little/11" fill="#101010" d="M450.504041 198.572479C451.271074 199.886949 450.913775 201.547704 449.725424 202.439618L449.43657 202.631289 357.674914 256.176982C356.259331 257.003017 354.44214 256.525094 353.616104 255.109511 352.849071 253.795041 353.20637 252.134287 354.394721 251.242372L354.683575 251.050702 446.445231 197.505009C447.860814 196.678973 449.678005 197.156896 450.504041 198.572479zM419.45556 201.914312C420.213457 203.234071 419.844647 204.892307 418.650137 205.775957L418.359961 205.965619 357.657098 240.825378C356.235819 241.641575 354.421987 241.151058 353.605791 239.729779 352.847895 238.41002 353.216705 236.751784 354.411214 235.868134L354.701391 235.678472 415.404253 200.818713C416.825532 200.002517 418.639364 200.493033 419.45556 201.914312zM419.45556 186.247951C420.213457 187.56771 419.844647 189.225946 418.650137 190.109596L418.359961 190.299258 357.657098 225.159017C356.235819 225.975214 354.421987 225.484697 353.605791 224.063418 352.847895 222.743659 353.216705 221.085423 354.411214 220.201773L354.701391 220.012111 415.404253 185.152352C416.825532 184.336155 418.639364 184.826672 419.45556 186.247951zM450.514354 152.249391C451.27225 153.56915 450.90344 155.227386 449.708931 156.111035L449.418755 156.300698 357.657098 208.996553C356.235819 209.812749 354.421987 209.322232 353.605791 207.900953 352.847895 206.581194 353.216705 204.922958 354.411214 204.039308L354.701391 203.849646 446.463047 151.153791C447.884326 150.337595 449.698158 150.828112 450.514354 152.249391zM461.257011 294.151114L461.257011 476.497185 151.729113 652.19528 151.729113 473.05693 461.257011 294.151114zM455.320113 439.637114L157.663113 609.929114 157.663231 642.000034 455.320538 473.039108 455.320113 439.637114zM455.320113 367.388114L157.663113 539.308114 157.663113 569.563114 455.320113 397.519114 455.320113 367.388114zM455.320113 331.546114L157.663113 501.838114 157.663113 532.455114 455.320113 360.534114 455.320113 331.546114z" opacity="1.00"></path>
              <path id="[color2]color--S5/objects/dashboards/little/11" fill="#000000" d="M420.582423,520.676736 C424.925552,514.10027 430.9887,512.816562 432.419525,518.578439 C433.617031,523.400754 430.391737,531.281943 423.071713,539.93032 L422.632304,540.439487 L422.926714,540.645185 C424.838861,541.883485 427.462039,542.179711 430.615896,541.128383 L431.146421,540.940615 C431.913907,540.653355 432.768947,541.042655 433.056207,541.810141 C433.343467,542.577626 432.954167,543.432667 432.186681,543.719926 C427.321528,545.540889 423.361647,544.935451 420.63989,542.80491 L420.563879,542.742353 L420.216577,543.114273 C413.368404,550.304809 407.42991,553.24955 403.071156,551.923309 L402.820534,551.835112 L402.457623,552.237173 C398.012589,556.996005 391.692137,561.768721 383.509306,566.576607 L382.267915,567.298056 C381.557473,567.706498 380.650438,567.461678 380.241997,566.751235 C379.833555,566.040793 380.078375,565.133759 380.788817,564.725317 C389.033555,559.985322 395.349886,555.328049 399.751908,550.776512 L400.244647,550.250408 L399.926325,549.93048 C396.821349,546.577055 396.380039,540.073005 398.603409,533.822657 L398.883004,533.074051 C401.500936,526.386064 405.067195,523.166686 408.195125,525.462646 C410.764896,527.348906 411.377757,532.741052 409.89244,539.406541 C409.204274,542.494748 407.718784,545.580725 405.439553,548.670319 L404.99876,549.247356 L405.102161,549.254373 C408.172481,549.362202 412.585481,546.827564 418.022722,541.1165 L418.560742,540.540385 L418.343168,540.199384 C415.55413,535.628688 415.800508,528.302486 420.205675,521.26266 L420.582423,520.676736 Z M406.439122,527.85496 C406.155298,527.646628 405.767446,527.71303 405.046744,528.363631 C403.946881,529.356513 402.755931,531.321382 401.646445,534.155766 C399.515738,539.599048 399.780271,545.22618 401.985958,547.783182 L402.200303,548.009862 L402.694712,547.383045 C404.762161,544.684707 406.141728,542.026505 406.836458,539.41341 L406.995874,538.761079 C408.249035,533.13741 407.758733,528.82358 406.439122,527.85496 Z M429.539388,519.293652 C428.948822,516.915462 426.244628,517.488001 423.058758,522.312119 C419.197089,528.159547 418.602981,533.953151 420.379909,537.677274 L420.646972,538.193005 L420.801107,538.019467 C427.328897,530.308821 430.255663,523.487525 429.621013,519.688976 L429.539388,519.293652 Z" opacity="1.00"></path>
            </g>
            <path id="[color1]color--S5/objects/dashboards/little/11" fill="#101010" d="M1014,1274.71382 L1091.93205,1320.24061 L1091.93205,1412.00981 L1014,1365.56142 L1014,1274.71382 Z M1014,1002.85691 L1091.93205,1048.38369 L1091.93205,1140.1529 L1014,1093.70451 L1014,1002.85691 Z M1014,731 L1091.93205,776.526783 L1091.93205,868.295989 L1014,821.847595 L1014,731 Z" opacity="1.00"></path>
            <path id="[color2]color--S5/objects/dashboards/little/11" fill="#000000" d="M1158.42995,1396.64482 L1158.63483,1396.75482 L1309.40852,1481.78784 C1312.05431,1483.28001 1312.98951,1486.63449 1311.49734,1489.28029 C1310.04343,1491.85824 1306.82149,1492.8122 1304.20977,1491.47912 L1304.00489,1491.36911 L1153.2312,1406.3361 C1150.58541,1404.84393 1149.65021,1401.48944 1151.14238,1398.84365 C1152.59629,1396.26569 1155.81823,1395.31174 1158.42995,1396.64482 Z M1158.42995,1366.31415 L1158.63483,1366.42416 L1309.40852,1451.45717 C1312.05431,1452.94934 1312.98951,1456.30382 1311.49734,1458.94962 C1310.04343,1461.52758 1306.82149,1462.48153 1304.20977,1461.14845 L1304.00489,1461.03844 L1153.2312,1376.00543 C1150.58541,1374.51326 1149.65021,1371.15878 1151.14238,1368.51298 C1152.59629,1365.93503 1155.81823,1364.98107 1158.42995,1366.31415 Z M1158.42995,1124.7879 L1158.63483,1124.89791 L1309.40852,1209.93093 C1312.05431,1211.4231 1312.98951,1214.77758 1311.49734,1217.42338 C1310.04343,1220.00133 1306.82149,1220.95529 1304.20977,1219.62221 L1304.00489,1219.5122 L1153.2312,1134.47919 C1150.58541,1132.98702 1149.65021,1129.63253 1151.14238,1126.98674 C1152.59629,1124.40878 1155.81823,1123.45482 1158.42995,1124.7879 Z M1158.42995,1094.45724 L1158.63483,1094.56724 L1309.40852,1179.60026 C1312.05431,1181.09243 1312.98951,1184.44691 1311.49734,1187.09271 C1310.04343,1189.67066 1306.82149,1190.62462 1304.20977,1189.29154 L1304.00489,1189.18153 L1153.2312,1104.14852 C1150.58541,1102.65635 1149.65021,1099.30186 1151.14238,1096.65607 C1152.59629,1094.07811 1155.81823,1093.12416 1158.42995,1094.45724 Z M1158.42995,852.930993 L1158.63483,853.040999 L1309.40852,938.074013 C1312.05431,939.566183 1312.98951,942.920667 1311.49734,945.566463 C1310.04343,948.144418 1306.82149,949.098374 1304.20977,947.765294 L1304.00489,947.655287 L1153.2312,862.622274 C1150.58541,861.130104 1149.65021,857.775619 1151.14238,855.129824 C1152.59629,852.551869 1155.81823,851.597913 1158.42995,852.930993 Z M1158.42995,822.600326 L1158.63483,822.710332 L1309.40852,907.743346 C1312.05431,909.235516 1312.98951,912.59 1311.49734,915.235796 C1310.04343,917.813751 1306.82149,918.767707 1304.20977,917.434627 L1304.00489,917.324621 L1153.2312,832.291607 C1150.58541,830.799437 1149.65021,827.444953 1151.14238,824.799157 C1152.59629,822.221202 1155.81823,821.267246 1158.42995,822.600326 Z" opacity="1.00"></path>
          </g>
        </g>
      </svg>
    </g>
  </g>
  <g transform="translate(1299.5,2058.375)">
    <g transform="translate(1230,0) scale(-1, 1)">
      <g>
        <svg xmlns="http://www.w3.org/2000/svg" width="1230" height="1194" viewBox="0 0 1230 1194">
          <g id="symbols--S5/objects/office/big/2" fill="none" fill-rule="evenodd" stroke="none" stroke-width="1">
            <g id="S5/objects/office/big/2--S5/objects/office/big/2">
              <g id="Group--S5/objects/office/big/2" transform="matrix(-1 0 0 1 1214.002 33)">
                <polygon id="[color1]color--S5/objects/office/big/2" fill="#000000" points="708.779502 1112.03093 1143.97831 865.141947 427.464679 452.583802 0 701.059727" opacity="1.00"></polygon>
                <polygon id="Path-190--S5/objects/office/big/2" fill="#FFF" fill-opacity=".9" points="708.779502 1112.03093 1143.97831 865.141947 427.464679 452.583802 0 701.059727"></polygon>
                <polygon id="[color2]color--S5/objects/office/big/2" fill="#000000" points="10.0007672 246.496812 10.0007672 279.043247 678.005626 667.320074 678.527269 630.700574" opacity="1.00"></polygon>
                <polygon id="Path-181--S5/objects/office/big/2" fill="#FFF" points="12.796374 246.42898 434.606684 2 1099.4658 385.700574 678.527269 630.700574"></polygon>
                <path id="[color1]color--S5/objects/office/big/2" fill="#000000" d="M1102.45717,385.695068 L434.605151,0.26724071 L9.80024916,246.431515 L678.530393,632.434328 L1102.45717,385.695068 Z M434.607,3.732 L1096.475,385.706 L678.524,628.966 L15.792,246.426 L434.607,3.732 Z" opacity="1.00"></path>
                <polygon id="[color1]color--S5/objects/office/big/2" fill="#000000" points="678.005626 667.320074 1102.12105 421.416188 1102.12105 385.746788 678.527269 630.700574" opacity="1.00"></polygon>
              </g>
            </g>
          </g>
        </svg>
      </g>
    </g>
  </g>
  <!---->
  <g transform="translate(1749.75,1856.875)">
    <g transform="translate(506,0) scale(-1, 1)">
      <g>
        <svg xmlns="http://www.w3.org/2000/svg" width="506" height="684" viewBox="0 0 506 684">
          <g id="symbols--S5/objects/office/large/1" fill="none" fill-rule="evenodd" stroke="none" stroke-width="1">
            <g id="S5/objects/office/large/1--S5/objects/office/large/1">
              <g id="Group--S5/objects/office/large/1" transform="translate(21.938 398.91)">
                <path id="[color1]color--S5/objects/office/large/1" fill="#020202" d="M347.894284,4.81355036 C349.730515,3.7454911 351.994622,3.72797379 353.847159,4.7674932 L353.847159,4.7674932 L438.722403,52.393786 C439.646994,52.9126045 440.417603,53.6671507 440.95578,54.5806097 C442.637864,57.4356501 441.686995,61.1137166 438.831955,62.795801 L438.831955,62.795801 L366.511,105.404 L369.018829,106.476859 C370.711829,107.241543 372.612867,110.947163 373.637629,112.683983 L373.744023,112.862314 C376.4576,117.352794 375.017136,123.192837 370.526656,125.906414 L370.526656,125.906414 L288.39224,173.78511 C277.725921,180.23072 264.313087,180.009265 253.865367,173.215047 L253.865367,173.215047 L252.693,172.461 L105.43854,259.218895 C99.0352976,262.991449 91.1253678,263.093878 84.6361579,259.513945 L84.2703811,259.307375 L5.99862159,214.069692 C5.09322752,213.546413 4.34031882,212.795588 3.8145339,211.891647 C2.14843278,209.02725 3.11984364,205.354555 5.9842408,203.688454 L5.9842408,203.688454 Z" transform="rotate(1 222.394 133.063)" opacity="1.00"></path>
                <path id="Combined-Shape-Copy--S5/objects/office/large/1" fill="#FFF" d="M347.894284,4.81355036 C349.730515,3.7454911 351.994622,3.72797379 353.847159,4.7674932 L353.847159,4.7674932 L438.722403,52.393786 C439.646994,52.9126045 440.417603,53.6671507 440.95578,54.5806097 C442.637864,57.4356501 441.686995,61.1137166 438.831955,62.795801 L438.831955,62.795801 L366.511,105.404 L369.018829,106.476859 C370.711829,107.241543 372.612867,110.947163 373.637629,112.683983 L373.744023,112.862314 C376.4576,117.352794 375.017136,123.192837 370.526656,125.906414 L370.526656,125.906414 L288.39224,173.78511 C277.725921,180.23072 264.313087,180.009265 253.865367,173.215047 L253.865367,173.215047 L252.693,172.461 L105.43854,259.218895 C99.0352976,262.991449 91.1253678,263.093878 84.6361579,259.513945 L84.2703811,259.307375 L5.99862159,214.069692 C5.09322752,213.546413 4.34031882,212.795588 3.8145339,211.891647 C2.14843278,209.02725 3.11984364,205.354555 5.9842408,203.688454 L5.9842408,203.688454 Z" opacity=".82" transform="rotate(1 222.394 133.063)"></path>
              </g>
              <g id="Group-11--S5/objects/office/large/1" transform="translate(17)">
                <path id="[color1]color--S5/objects/office/large/1" fill="#020202" d="M373.95643,498.06472 L276.563827,456.409609 L176.790433,512.032661 L258.802967,564.802908 C269.250688,571.597126 282.663521,571.818581 293.32984,565.372971 L375.464256,517.494275 C379.954737,514.780697 381.395201,508.940655 378.681623,504.450175 C377.686522,502.803462 375.709894,498.856714 373.95643,498.06472 Z" opacity="1.00"></path>
                <path id="Path-61-Copy-5--S5/objects/office/large/1" fill="#FFF" d="M54.477675,551.86904 L1.97239273,244.96958 C0.78446882,238.026027 4.0020157,231.069147 10.0622822,227.477871 L372.688874,12.587651 C380.76601,7.80119114 391.194015,10.4688116 395.980475,18.545948 C397.037442,20.3295754 397.759224,22.2915032 398.110186,24.3348656 L451.01284,332.343113 C452.208889,339.306715 448.972965,346.284182 442.884653,349.869532 L79.8606905,563.650964 C71.7704456,568.415234 61.3498024,565.718999 56.5855325,557.628754 C55.539526,555.852522 54.825285,553.900861 54.477675,551.86904 Z"></path>
                <path id="[color1]color--S5/objects/office/large/1" fill="#020202" d="M371.924169,11.2972143 L9.2975776,226.187434 C2.70258169,230.095587 -0.798866381,237.66631 0.493874342,245.222529 L52.9991566,552.121989 C53.3774381,554.333088 54.1547004,556.456955 55.2930015,558.389913 C60.4776482,567.194003 71.8177599,570.128142 80.6218499,564.943495 L443.645813,351.162063 C450.271329,347.260358 453.792775,339.667233 452.491192,332.089195 L399.588539,24.0809479 C399.206609,21.8572887 398.42114,19.7222497 397.270912,17.7812434 C392.062117,8.99141845 380.713994,6.08841975 371.924169,11.2972143 Z M394.690039,19.3106526 C395.653743,20.9369011 396.311839,22.7257176 396.631834,24.5887834 L449.534487,332.597031 C450.625003,338.946197 447.674602,345.308005 442.123494,348.577001 L79.099531,562.358433 C71.7231313,566.702327 62.2219566,564.243994 57.8780634,556.867594 C56.9243517,555.248089 56.2731319,553.468633 55.9561934,551.61609 L3.45091111,244.716631 C2.36780402,238.385744 5.3014497,232.042706 10.8269868,228.768308 L373.453578,13.8780877 C380.818026,9.51396253 390.325913,11.9462047 394.690039,19.3106526 Z" opacity="1.00"></path>
                <path id="Path-61-Copy-3--S5/objects/office/large/1" fill="#FFF" d="M61.522426,552.01806 L9.09107237,248.340141 C7.89002128,241.383755 11.1130638,234.408951 17.1892385,230.815357 L381.366551,15.4322156 C389.44783,10.6527543 399.873521,13.3294069 404.652982,21.4106865 C405.721562,23.2174793 406.446276,25.2065525 406.790458,27.2772777 L457.874317,334.616002 C459.031389,341.577359 455.767404,348.529724 449.672359,352.08637 L86.8425419,563.808707 C78.733356,568.540666 68.3235514,565.802883 63.5915925,557.693697 C62.5685606,555.940521 61.867776,554.018299 61.522426,552.01806 Z"></path>
                <polygon id="[color1]color--S5/objects/office/large/1" fill="#020202" points="341.786335 77.9362304 382.920914 311.818343 379.966327 312.338355 338.999774 79.5757173" opacity="1.00"></polygon>
                <polygon id="[color2]color--S5/objects/office/large/1" fill="#000000" points="62.6100674 495.93697 441.701351 276.643623 444.853088 301.544503 66.0993834 520.555666" opacity="1.00"></polygon>
                <path id="[color1]color--S5/objects/office/large/1" fill="#020202" d="M380.602964,14.141117 L16.425652,229.524258 C9.81334426,233.434934 6.30591562,241.025163 7.6129418,248.595347 L60.0442954,552.273266 C60.4201175,554.449996 61.182736,556.541826 62.2960354,558.449694 C67.4455201,567.274396 78.7738369,570.253749 87.5985392,565.104264 L450.428356,353.381928 C457.0612,349.51146 460.613183,341.94565 459.354016,334.370055 L408.270158,27.0313316 C407.895606,24.7778954 407.106948,22.6133157 405.944081,20.6471 C400.742902,11.8527663 389.397298,8.93993849 380.602964,14.141117 Z M403.361884,22.1742729 C404.336177,23.8216429 404.996945,25.6352097 405.310759,27.5232238 L456.394617,334.861948 C457.449594,341.209068 454.473609,347.547989 448.916362,350.790813 L86.0865446,562.51315 C78.6928751,566.827583 69.2015826,564.331369 64.8871495,556.9377 C63.9543852,555.339216 63.3154345,553.586601 63.0005565,551.762855 L10.5692029,248.084935 C9.47412694,241.742348 12.4127834,235.382968 17.952825,232.106455 L382.130137,16.7233143 C389.40012,12.4236734 398.751032,14.7421766 403.184845,21.8821765 L403.361884,22.1742729 Z" opacity="1.00"></path>
                <path id="[color1]color--S5/objects/office/large/1" fill="#020202" d="M404.634132,21.4218348 C405.705106,23.2326745 406.43065,25.2265762 406.773896,27.3022225 L453,306.83648 L58.9028907,534.658913 L9.10793842,248.352893 C7.89701607,241.390453 11.1197721,234.404984 17.2025323,230.807494 L381.347701,15.4433639 C389.42898,10.6639026 399.854671,13.3405552 404.634132,21.4218348 Z M397.4624,38.3722473 C396.354318,36.4611087 393.906757,35.8101023 391.995618,36.9181838 L391.995618,36.9181838 L28.8389049,247.477083 C25.5935734,249.358732 23.8557446,253.056027 24.4778161,256.75546 L24.4778161,256.75546 L67.5889037,513.135278 L440.397825,301.140736 L397.950261,39.7374703 C397.872156,39.2564786 397.70682,38.7938063 397.4624,38.3722473 Z" opacity="1.00"></path>
                <polygon id="[color1]color--S5/objects/office/large/1" fill="#020202" points="400.709264 40.8953102 402.209227 43.4934081 24.1936226 261.733549 22.6936601 259.135451" opacity="1.00"></polygon>
                <path id="[color2]color--S5/objects/office/large/1" fill="#000000" d="M207.075935 402.647157L174.420806 198.904599 46.6732939 272.794949 81.7017878 476.473746 207.075935 402.647157zM172.148 203.684L203.789 401.1 83.922 471.684 49.983 274.345 172.148 203.684zM361.190915 315.067983L328.535786 111.325425 200.788274 185.215775 235.816768 388.894572 361.190915 315.067983zM326.263 116.104L357.904 313.521 238.037 384.105 204.098 186.766 326.263 116.104z" opacity="1.00"></path>
                <ellipse id="[color2]color--S5/objects/office/large/1" cx="275.1" cy="432.127" fill="#000000" rx="10.425" ry="13.9" transform="rotate(21 275.1 432.127)" opacity="1.00"></ellipse>
                <path id="Path-66--S5/objects/office/large/1" fill="#FFF" d="M180.993283,508.859153 L258.762532,559.43298 C268.749408,565.927508 281.574446,566.124654 291.756223,559.940159 L373.141915,510.505822 C376.918159,508.212101 378.119981,503.291421 375.82626,499.515177 C374.973701,498.111576 373.709833,497.00436 372.20627,496.343871 L275.831254,454.008012 L275.831254,454.008012 L180.993283,508.859153 Z"></path>
                <path id="[color1]color--S5/objects/office/large/1" fill="#020202" d="M372.873807,495.824708 L276.563827,452.323994 L178.943641,508.784276 L258.802967,560.717293 C269.250688,567.511511 281.392982,569.1736 292.059301,562.72799 L376.438094,512.032661 C380.928574,509.319084 379.459124,505.543553 377.913504,500.878028 C377.250287,498.876076 374.627271,496.616702 372.873807,495.824708 Z M184.676224,508.934395 L276.732224,455.692395 L371.638908,498.558757 C372.838646,499.100648 373.845568,499.994055 374.526427,501.120753 C376.383085,504.193187 375.397505,508.189006 372.325071,510.045664 L289.583716,558.719756 C279.972155,564.312745 269.78435,564.279996 260.438474,558.202314 L184.676224,508.934395 Z" opacity="1.00"></path>
                <path id="[color2]color--S5/objects/office/large/1" fill="#000000" d="M122.785486,519.848902 L169.10953,493.475119 C169.159317,504.355246 169.878399,513.146507 171.266775,519.848902 C172.655151,526.551298 175.89732,534.48924 180.993283,543.66273 L135.983249,570.057311 C130.015691,560.576903 126.475112,552.354731 125.361512,545.390795 C124.247913,538.426858 123.389237,529.912894 122.785486,519.848902 Z" opacity="1.00"></path>
              </g>
            </g>
          </g>
        </svg>
      </g>
    </g>
  </g>
  <!---->
  <g transform="translate(1050.999999999999,1703.125)">
    <g transform="translate(981.9999999999999,0) scale(-1, 1)">
      <g>
        <svg xmlns="http://www.w3.org/2000/svg" width="982" height="1637" viewBox="0 0 982 1637">
          <g id="symbols--S5/objects/office/big2/2" fill="none" fill-rule="evenodd" stroke="none" stroke-width="1">
            <g id="S5/objects/office/big2/2--S5/objects/office/big2/2">
              <g id="Group-4--S5/objects/office/big2/2" transform="translate(279.303 1239.673)">
                <polygon id="[color1]color--S5/objects/office/big2/2" fill="#000000" points="318.466708 363.181387 611.813379 194.385336 296.309774 11.6284534 113.036797 2.2484607e-13 113.036797 76.9420087 18.2124364 36.3883095 0 180.617275" opacity="1.00"></polygon>
                <polygon id="Path-200--S5/objects/office/big2/2" fill="#FFF" fill-opacity=".9" points="318.466708 363.181387 611.813379 194.385336 296.309774 11.6284534 113.036797 -5.93710244e-14 113.036797 76.9420087 18.2124364 36.3883095 1.13686838e-13 180.617275"></polygon>
              </g>
              <g id="Group-3--S5/objects/office/big2/2" transform="translate(135.215 346.94)">
                <path id="Path-211--S5/objects/office/big2/2" fill="#FFF" d="M235.619667,428.244666 C204.674401,395.862749 182.883314,381.040889 170.246408,383.779085 C169.89372,383.855507 172.52742,385.012008 177.694991,387.931136 C182.872098,390.855651 187.468001,394.424153 186.73815,393.817288 C179.081506,387.450855 165.847895,381.737552 156.917323,381.737552 C150.631275,381.737552 156.093286,386.494982 152.630684,386.494982 C148.182016,386.494982 139.615022,384.840553 138.609406,387.450855 C137.603789,390.061156 146.41032,391.731177 146.41032,391.731177 C146.41032,391.731177 135.769778,390.902577 135.769778,393.817288 C135.769778,396.732 151.891406,399.152591 157.516459,403.847259 C163.141512,408.541926 174.534456,421.7717 172.756344,421.7717 C170.978233,421.7717 144.208372,406.468715 141.134706,408.591896 C138.06104,410.715078 146.897515,418.810873 151.67589,421.728828 C156.454265,424.646784 163.451002,429.883258 172.756344,434.606486 C178.959906,437.755304 193.2534,442.931066 215.636828,450.133772 L235.619667,428.244666 Z"></path>
                <path id="[color2]color--S5/objects/office/big2/2" fill="#000000" d="M156.917323,380.060488 C160.14871,380.060488 163.960221,380.762987 167.953494,382.018667 L168.620655,382.233043 L169.213962,382.430606 L169.262062,382.397491 C169.364664,382.331013 169.474001,382.275826 169.587195,382.231538 L169.759518,382.173233 L169.891259,382.140057 C183.087725,379.280613 204.576278,393.659988 234.960729,425.137449 L236.832122,427.086003 L237.914366,428.218491 L216.148882,452.060298 L209.610823,449.944084 C190.543229,443.720133 178.107113,439.156839 172.228911,436.218598 L171.997281,436.101934 C170.354123,435.267897 168.72591,434.389823 167.094785,433.462484 L166.390687,433.055594 C162.740281,430.916828 156.176719,426.679611 152.847614,424.507322 L150.814133,423.170566 L150.794204,423.15532 L150.373049,422.892004 C148.061595,421.414194 145.241245,419.103809 143.042146,416.859076 L142.610944,416.411271 L142.222041,415.992837 L141.795438,415.516211 C138.683513,411.967734 137.568177,409.017254 140.181543,407.212032 C142.257562,405.777991 146.964723,407.479997 156.585148,412.112029 L158.234726,412.911542 L161.797209,414.675664 L168.687364,418.131953 L168.490216,417.886484 C168.140354,417.452497 167.76601,416.997386 167.370842,416.525695 L166.637836,415.659728 L165.874703,414.775258 C162.535742,410.940316 158.823785,407.122761 156.441867,405.134813 C154.786585,403.753316 151.981755,402.475554 147.5545,400.943081 L146.062144,400.438747 C144.490792,399.915882 141.830639,399.038436 141.052944,398.769855 L140.264028,398.493062 C138.499401,397.863096 137.257711,397.338614 136.322346,396.79986 C134.924527,395.994739 134.092713,395.105854 134.092713,393.817288 C134.092713,391.953443 135.325788,390.96755 137.514045,390.452195 L137.77076,390.394796 L138.012737,390.345232 L137.979312,390.319092 C136.993117,389.488595 136.574709,388.503969 136.908055,387.263714 L136.974722,387.042171 L137.044457,386.84796 C137.990477,384.392355 140.523313,384.035436 146.225491,384.409381 L150.301774,384.715976 C150.748936,384.747785 151.110201,384.770599 151.425424,384.786466 L152.123557,384.812037 L152.06693,384.44545 L152.050798,384.321873 C151.723216,381.67004 153.260615,380.060488 156.917323,380.060488 Z M156.917323,383.414616 C156.090823,383.414616 155.612736,383.499917 155.405725,383.578422 L155.35593,383.599595 L155.326353,383.61653 C155.337814,383.616444 155.344364,383.635191 155.351433,383.681352 L155.398023,384.045576 L155.509634,384.737981 C155.5369,384.91934 155.55011,385.040016 155.56171,385.201714 C155.594573,385.659828 155.561218,386.072385 155.413424,386.487811 C155.004184,387.638113 153.968484,388.172047 152.630684,388.172047 L151.935382,388.163353 C151.280309,388.146147 150.552599,388.100747 149.286161,388.004167 L146.778636,387.810001 L145.948257,387.753006 C144.091087,387.634613 142.782808,387.619226 141.73418,387.724503 C141.354213,387.762649 141.029675,387.816343 140.765224,387.882066 L140.578226,387.93356 L140.513799,387.953738 L140.665057,388.057559 C141.082801,388.325764 141.666222,388.602189 142.37384,388.871278 L142.684588,388.986107 L143.009819,389.099766 C143.615607,389.305779 144.259544,389.49513 144.913592,389.665634 L145.569971,389.829775 C145.945726,389.919874 146.259857,389.989272 146.489401,390.036879 L146.722781,390.083478 L146.280118,393.40318 L146.000126,393.383976 C145.843043,393.374203 145.643939,393.363096 145.408819,393.351915 C144.014178,393.285593 142.546522,393.275142 141.188975,393.35536 C139.950478,393.428543 138.915178,393.573971 138.175263,393.786934 L137.940065,393.860359 L137.996429,393.89338 C138.620462,394.252812 139.517725,394.643937 140.771777,395.10866 L141.780519,395.471656 L143.212143,395.95814 C144.797307,396.48718 147.391108,397.34212 148.139015,397.59731 L149.203873,397.966 C153.695303,399.545491 156.60515,400.902272 158.591052,402.559704 C161.326278,404.842524 165.552599,409.228429 169.187341,413.480231 L169.868437,414.28404 C171.307095,415.997593 172.497593,417.520099 173.296871,418.67909 C173.823224,419.442327 174.188686,420.056894 174.394052,420.55692 C174.573054,420.992754 174.662694,421.383627 174.602844,421.840031 C174.477566,422.795372 173.688071,423.448765 172.756344,423.448765 L172.596824,423.442035 C171.936188,423.38745 170.979439,422.991938 168.809785,421.933483 L166.623443,420.850021 C164.839815,419.954648 160.190215,417.615664 158.277336,416.669308 L156.763853,415.92596 L154.92386,415.035827 C151.613684,413.449969 148.885356,412.233471 146.679034,411.381816 L146.29509,411.23531 C144.885783,410.703975 143.738877,410.34661 142.89073,410.176036 C142.695065,410.136685 142.520164,410.108361 142.368266,410.090431 L142.215461,410.075336 L142.257351,410.215485 L142.301111,410.337218 L142.355544,410.471574 C142.715618,411.315188 143.531491,412.451956 144.699524,413.731807 C146.772906,416.003679 149.789762,418.532365 152.142041,420.041969 L152.804562,420.468661 C154.552346,421.62427 164.588825,428.179476 168.752517,430.546647 C170.338857,431.448524 171.920685,432.301583 173.515408,433.111037 L173.982119,433.344136 C179.761696,436.186672 191.986307,440.661268 210.585799,446.733968 L215.124159,448.206191 L233.322544,428.272603 L232.587144,427.508197 L231.110886,425.985202 C207.362797,401.589318 189.344203,388.147693 177.377936,385.585082 L177.009776,385.509295 L176.683607,385.448204 L177.043569,385.645927 L178.037557,386.199529 L178.176451,386.271423 C181.581705,388.036478 184.70527,390.029805 187.269551,392.086202 L187.897646,392.602461 L188.051989,392.745797 C188.090299,392.789272 188.144711,392.874354 188.326084,393.157964 L188.398829,393.318912 C188.446086,393.445511 188.454613,393.569952 188.485882,394.026236 L188.342371,394.48218 C188.158294,395.019712 188.027002,395.092755 187.326783,395.482317 L186.664032,395.527436 C186.374559,395.540625 186.334966,395.518553 186.216186,395.452336 L185.947631,395.322057 C185.915668,395.305593 185.902095,395.297095 185.888933,395.287299 L184.94908,394.615196 C184.671467,394.416315 184.397065,394.221318 184.109211,394.018814 C182.402133,392.817895 180.651438,391.65393 178.854786,390.558351 C178.406256,390.284842 177.962357,390.020395 177.523822,389.765781 L176.471179,389.166815 L176.093199,388.972818 C169.504343,385.637455 162.552916,383.54423 157.395508,383.420431 L156.917323,383.414616 Z" opacity="1.00"></path>
                <path id="[color2]color--S5/objects/office/big2/2" fill="#000000" d="M144.625264,389.752257 L144.786402,389.765663 C158.248327,391.532515 168.201292,396.116249 175.699449,403.835822 C176.344786,404.500215 176.329338,405.561962 175.664945,406.207298 C175.000551,406.852635 173.938805,406.837187 173.293468,406.172794 C166.35189,399.026234 157.097936,394.764423 144.349922,393.09127 C143.431581,392.97074 142.784828,392.128568 142.905358,391.210227 C143.018799,390.345906 143.771479,389.722161 144.625264,389.752257 Z M152.687786,384.818772 L152.848924,384.832179 C166.310849,386.599031 176.263814,391.182765 183.761972,398.902338 C184.407309,399.566731 184.39186,400.628477 183.727467,401.273814 C183.063074,401.919151 182.001328,401.903703 181.355991,401.23931 C174.414412,394.09275 165.160459,389.830939 152.412445,388.157786 C151.494103,388.037256 150.84735,387.195084 150.967881,386.276743 C151.081321,385.412421 151.834001,384.788676 152.687786,384.818772 Z M157.825159,380.061342 L157.986297,380.074748 C170.28603,381.689065 178.198341,385.263096 188.152442,392.750046 C188.892652,393.306793 189.041378,394.358184 188.484631,395.098394 C187.927884,395.838604 186.876493,395.987331 186.136282,395.430584 C176.615999,388.269929 169.229135,384.933244 157.549818,383.400356 C156.631476,383.279825 155.984723,382.437653 156.105254,381.519312 C156.218694,380.654991 156.971374,380.031246 157.825159,380.061342 Z" opacity="1.00"></path>
                <g id="Group-45--S5/objects/office/big2/2" transform="matrix(-1 0 0 1 765.285 459.06)">
                  <g id="Group-2--S5/objects/office/big2/2">
                    <polygon id="[color1]color--S5/objects/office/big2/2" fill="#000000" points="15.0800687 76.1515227 40.8337703 62.1975133 75.2002857 173.888814 349.204918 12.5776161 349.204918 451.387354 324.765196 466.044195 324.859033 54.8935833 153.446021 154.164306 54.8009991 619.869344 30.6019201 634.864033 125.068743 170.91396 54.8009991 212.025878" opacity="1.00"></polygon>
                    <polygon id="Path-194-Copy--S5/objects/office/big2/2" fill="#FFF" points="29.6540893 632.447601 11.0754945 621.323411 104.723263 184.880959 124.974906 171.684392"></polygon>
                    <path id="[color1]color--S5/objects/office/big2/2" fill="#000000" d="M30.6952011,634.819314 L127.173425,168.46141 L103.386353,183.961767 L9.38358361,622.058688 L30.6952011,634.819314 Z M122.776,174.907 L28.613,630.075 L12.767,620.588 L106.059,185.8 L122.776,174.907 Z" opacity="1.00"></path>
                    <polygon id="Path-195-Copy--S5/objects/office/big2/2" fill="#FFF" points="323.297393 463.895711 301.586554 452.234836 301.586554 67.7368686 324.765196 55.6640154"></polygon>
                    <path id="[color1]color--S5/objects/office/big2/2" fill="#000000" d="M324.788401,466.399196 L326.274113,53.1868029 L300.086554,66.8268836 L300.086554,453.131853 L324.788401,466.399196 Z M323.256,58.141 L321.806,461.392 L303.086,451.337 L303.086,68.647 L323.256,58.141 Z" opacity="1.00"></path>
                    <polygon id="Path-196-Copy--S5/objects/office/big2/2" fill="#FFF" points="14.9862318 76.9219548 37.9212768 62.2774936 25.6513815 55.3600986 2 69.4877594 40.4888656 201.537441 52.3717493 208.759971"></polygon>
                    <path id="[color1]color--S5/objects/office/big2/2" fill="#000000" d="M40.8337703,62.1975133 L25.6296159,53.6258721 L0.235517791,68.7945084 L39.2118441,202.516597 L54.8570115,212.025878 L16.733,77.586 L40.8337703,62.1975133 Z M25.672,57.094 L35.008,62.357 L13.2388131,76.2580127 L49.886,205.494 L41.765,200.558 L3.764,70.18 L25.672,57.094 Z" opacity="1.00"></path>
                    <polygon id="Path-197-Copy--S5/objects/office/big2/2" fill="#FFF" points="349.111081 13.3480483 332.455696 2 68.0252002 155.31254 73.2682815 174.659246"></polygon>
                    <path id="[color1]color--S5/objects/office/big2/2" fill="#000000" d="M351.917048,13.4447965 L332.520084,0.228789969 L66.2760378,154.592798 L72.3332739,176.943693 L351.917048,13.4447965 Z M332.391,3.771 L346.305,13.251 L74.203,172.374 L69.773,156.032 L332.391,3.771 Z" opacity="1.00"></path>
                  </g>
                </g>
                <path id="Combined-Shape--S5/objects/office/big2/2" fill="#FFF" d="M48.8387539,459.068006 C60.1551203,462.302648 66.1017751,466.854469 74.3592142,471.958 C66.4315035,464.400319 62.4186648,459.92526 62.3212903,458.532741 C62.0501524,454.655288 80.6420032,462.830399 88.5940552,469.074379 C94.9845232,474.092197 98.5986419,483.500173 101.972686,496.212566 C105.29948,499.821945 108.169564,503.180036 110.109092,505.746517 C114.539398,511.608922 109.699884,520.616088 95.5905502,532.768015 C76.9749581,524.680112 63.3649917,518.704241 54.7606511,514.840401 C45.6294362,510.739965 32.7445913,498.071483 26.4193556,495.194644 C20.4667419,492.487281 10.6921562,488.409372 11.509533,485.47314 C12.3264021,482.538732 15.927723,485.003257 24.5510298,487.417524 C33.1743365,489.831791 39.4750661,493.572573 39.4750661,493.572573 C46.6601937,495.183947 38.4542642,485.290641 25.4045625,480.682426 C16.7457783,477.624768 8.12493551,473.713186 5.39264181,471.446941 C1.14234133,467.921618 18.5396459,468.698055 18.5396459,468.698055 C18.5396459,468.698055 0.990725122,461.805573 2.81916554,459.087731 C4.23968514,456.976233 24.1617661,460.793589 24.1617661,460.793589 C25.3340065,461.055508 13.6194455,456.536609 16.4153142,454.578921 C19.2111829,452.621233 36.580193,455.564049 48.8387539,459.068006 Z"></path>
                <path id="[color2]color--S5/objects/office/big2/2" fill="#000000" d="M15.288901,452.970236 C13.9818629,453.885434 13.6768888,455.398701 14.4070172,456.738065 L14.5545972,456.986401 C14.6072776,457.068174 14.6634417,457.148995 14.7230795,457.229028 L14.7535197,457.26731 L14.2836944,457.202365 C6.25476141,456.127705 2.51775403,456.017539 1.18974335,457.99153 C0.139686872,459.552362 0.805860587,461.067539 2.2630574,462.430854 C3.13876874,463.250147 4.4165277,464.117299 6.06762976,465.057767 L6.62354275,465.36934 C7.38120268,465.787421 8.20397227,466.215943 9.08392115,466.652955 L9.4773325,466.845619 L9.09517304,466.87908 C7.58969698,467.017344 6.35335356,467.227062 5.41467742,467.529445 C2.67299518,468.412645 1.65101249,470.894972 4.13890728,472.958504 C6.85490121,475.211229 14.5579159,478.813744 22.9790495,481.89707 L25.3548231,482.752919 C30.7769743,484.763885 35.7620729,487.906027 38.6236934,490.832779 L38.6992926,490.911841 L37.983719,490.544748 C36.0330514,489.561595 33.8501078,488.58001 31.4832627,487.663908 C29.8111636,487.016713 28.1072172,486.426343 26.3800664,485.904628 L24.3614402,485.319622 C21.8193481,484.566009 16.7091441,482.855562 15.6380132,482.550827 L15.5418856,482.524414 C12.4540855,481.717836 10.3685866,482.248842 9.61762886,484.946479 C8.91965311,487.453791 10.8176421,489.394639 14.6039621,491.637465 C16.1435563,492.549443 17.9916751,493.491291 20.3148747,494.577697 L22.1930233,495.44198 L26.4715915,497.381709 C27.8727472,498.055243 28.9036193,498.779379 34.4223141,503.066674 L40.3623424,507.691169 C40.8438042,508.063636 41.30148,508.415289 41.7446805,508.75306 L42.6145399,509.412146 C47.2309406,512.888607 50.8136187,515.22072 53.956165,516.631902 L64.451125,521.297827 C72.1708666,524.705175 81.9585783,528.985025 93.8151531,534.137784 L95.9383268,535.060298 L96.8721367,534.256037 C111.70635,521.479794 117.006198,511.615867 111.675857,504.562489 L111.338881,504.120653 C109.611734,501.875806 107.256215,499.102549 104.527457,496.095725 L103.744338,495.238838 L103.458995,494.179647 C99.619013,480.13328 95.8237852,472.254293 89.8068709,467.529791 C85.8374951,464.413023 79.160382,460.71131 73.1300973,458.195578 C70.1084917,456.935016 67.476214,456.070285 65.5308756,455.73132 C62.4905352,455.201558 60.1639363,455.83396 60.3622328,458.669731 L60.3739457,458.788481 C60.4737155,459.57773 61.0298775,460.63122 62.0881517,462.026132 L62.34918,462.365442 L62.2670194,462.321347 C58.1360459,460.137231 54.2208669,458.563924 49.3784778,457.179787 L48.2263989,456.855235 C34.1632476,452.950902 18.5413001,450.692882 15.288901,452.970236 Z M48.29903,460.956225 C54.7472515,462.799369 59.423947,464.982491 65.4883168,468.696735 L67.636209,470.039706 C69.4149636,471.164497 72.2704169,472.975678 73.3279971,473.629307 L89.3409044,483.525954 L75.7154925,470.537306 C71.9636673,466.960817 69.1028207,464.087281 67.1404596,461.926424 L66.5568349,461.274758 L65.9922932,460.623093 C65.8162094,460.415723 65.6522487,460.218258 65.5004896,460.030855 L65.2137699,459.668433 L65.4939192,459.728845 C67.0623845,460.081679 69.1892644,460.8073 71.6178558,461.820467 C77.3440424,464.209334 83.7197486,467.743951 87.3812395,470.618966 C92.6389118,474.747309 96.1730227,482.222076 99.8759109,495.973244 L100.199129,497.185675 L101.556662,498.666694 C104.420909,501.819986 106.85694,504.700354 108.542327,506.930544 L108.672584,507.109612 C111.8327,511.626489 107.85669,519.275536 95.8079096,529.969771 L95.2356681,530.472771 L78.3504286,523.112526 C68.6861227,518.884884 61.0907279,515.530206 55.5651372,513.048901 C52.7561886,511.787522 49.3767722,509.587721 44.9773045,506.274625 L43.2300304,504.943052 L34.8071739,498.395349 C29.6944506,494.449476 29.4135159,494.399024 27.2324045,493.407013 L23.4221317,491.686025 C22.9047329,491.44996 22.438338,491.234778 21.978659,491.019816 L20.9085253,490.513141 C19.1883917,489.687709 17.7801624,488.953847 16.6056968,488.258153 L16.265322,488.05347 C15.1588863,487.377676 14.3350558,486.767578 13.8279287,486.249 L13.7297037,486.143634 L13.7547555,486.147926 C13.9142932,486.175359 14.103086,486.214433 14.3212567,486.267192 L14.5492245,486.324588 C15.2306843,486.502595 20.9025807,488.407165 23.5406586,489.172036 L24.021572,489.308647 C26.0681458,489.881626 28.0890633,490.56179 30.0655224,491.32679 C32.3072749,492.194474 34.3746406,493.124088 36.2159663,494.052132 L36.9490282,494.427974 C37.1810589,494.549066 37.4006302,494.6658 37.6073338,494.777666 L38.4066025,495.222597 L38.7408293,495.42053 L39.0453192,495.488817 C41.788708,496.104063 43.9843792,495.475577 44.1044605,492.98073 C44.1764616,491.484813 43.1860754,489.880852 41.4320572,488.086912 C38.1500104,484.730165 32.6605539,481.269869 26.6989471,479.062319 L25.5059134,478.634335 C18.5141742,476.135247 11.8287319,473.176443 8.37256645,471.109567 L8.10788043,470.948738 L8.34700043,470.915653 C9.26901987,470.790747 10.4095763,470.700171 11.7117899,470.647039 C13.1880602,470.586806 14.7521586,470.576588 16.2744077,470.600652 L17.4062215,470.624882 C17.8994502,470.638168 18.2598052,470.651362 18.4520874,470.659943 L30.247043,471.186349 L18.9333147,466.740971 L18.5972513,466.605174 C18.0642245,466.388738 17.4695031,466.142386 16.8287126,465.870835 C14.9995522,465.095684 13.1712272,464.275519 11.4707674,463.449422 C10.1807306,462.822713 9.01682799,462.217477 8.01160062,461.644899 L7.66731352,461.446405 C7.10595495,461.118701 6.60732162,460.806903 6.17829765,460.515537 L6.03275468,460.414693 L6.69536049,460.426471 C8.50984483,460.479962 10.9226697,460.715207 13.7626269,461.095331 C15.5465082,461.334101 17.4145952,461.618331 19.2886195,461.928441 L20.6940281,462.165571 C21.3496603,462.278278 21.9659273,462.387137 22.5331626,462.489703 L23.7921895,462.722342 L23.8742505,462.740294 L24.4172886,462.779197 C24.7271844,462.799217 24.8463911,462.701875 25.9192511,461.8258 L26.0599418,461.418039 C26.2732666,460.781121 26.2470155,460.689022 26.0763838,460.090375 L25.9040093,459.754631 C25.8368384,459.633141 25.7988185,459.589991 25.6974322,459.474925 L25.4238475,459.231628 C25.342112,459.160708 25.302353,459.130416 25.2599007,459.104796 L25.0392625,458.982279 L24.2143858,458.583963 L23.246296,458.127807 C22.3879491,457.719311 21.7410948,457.396852 21.0387339,457.02175 L20.6539448,456.813207 C20.1533994,456.537745 19.703422,456.272859 19.3105017,456.020826 L19.0661155,455.85989 L19.1875311,455.854044 C23.9055119,455.629936 36.9244403,457.763741 47.7026148,460.787341 L48.29903,460.956225 Z" opacity="1.00"></path>
                <path id="shape--S5/objects/office/big2/2" fill="#FFF" d="M347.974547,906.866927 C346.948453,938.077474 342.734664,955.283481 335.333181,958.484946 C327.351281,961.937467 309.920083,962.888289 296.600726,952.350328 C288.142346,945.658257 273.475759,934.380778 262.589844,924.214953 C234.561948,898.041065 213.037861,897.888045 206.390934,869.867336 C199.744008,841.846626 253.93512,847.407146 268.196408,860.998451 C277.703933,870.059321 285.402234,875.266285 291.291311,876.619343 C295.599269,899.624216 298.808415,912.645914 300.918748,915.684437 C304.084248,920.242221 304.788774,923.988428 323.910451,923.988428 C336.658235,923.988428 344.679601,918.281261 347.974547,906.866927 Z" transform="rotate(-9 276.902 905.328)"></path>
                <path id="[color1]color--S5/objects/office/big2/2" fill="#000000" d="M212.383021,867.880823 C215.210109,879.798664 220.442292,886.457068 231.743402,894.314745 L232.25349,894.667404 C234.357733,896.114125 245.079063,903.059949 248.3155,905.281804 C255.063384,909.914313 260.953649,914.507246 266.829172,919.911449 L267.710496,920.72827 C269.502245,922.401498 271.453279,924.156997 273.560268,925.995811 L274.357693,926.689273 C276.179043,928.267653 278.104111,929.898984 280.139889,931.591933 L281.019163,932.32128 C283.96884,934.761899 287.042666,937.246944 290.518463,940.011601 L301.535216,948.703546 C311.982718,956.969364 327.364974,958.483941 336.84419,954.593767 L342.930512,951.800669 L342.025345,957.515667 C330.879009,965.48006 310.616457,963.249868 298.241902,953.743774 L288.42684,946.011653 L285.979361,944.067007 C282.801463,941.533457 279.946772,939.221543 277.194216,936.944026 L275.423852,935.471768 C273.680317,934.014211 272.016731,932.600106 270.428285,931.223559 C268.234884,929.322759 266.196043,927.503289 264.313848,925.762557 L263.615372,925.113468 C257.97867,919.849627 252.363972,915.399446 245.940687,910.933702 L244.531809,909.963807 C241.044572,907.598176 231.355613,901.31605 228.98743,899.702725 L228.854232,899.611597 C216.25093,890.946507 209.976031,883.207358 206.682429,869.834119 L206.545027,869.265681 L212.383021,867.880823 Z" transform="rotate(-9 274.738 915.127)" opacity="1.00"></path>
                <path id="shape--S5/objects/office/big2/2" fill="#FFF" d="M256.839512,939.719851 C259.363754,973.352034 254.767452,991.165308 243.050606,993.159674 C232.301496,994.989318 220.819582,998.067008 207.500225,987.529047 C199.041846,980.836976 191.270168,971.209008 180.384253,961.043182 C152.356357,934.869295 136.622238,936.385803 133.010167,910.82141 C129.398096,885.257017 152.425221,870.540622 166.686509,884.131927 C176.194034,893.192797 188.082283,903.799118 202.351255,915.95089 C207.785274,934.670853 211.55745,945.550096 213.667783,948.588619 C216.833283,953.146403 216.848838,958.580263 235.970515,958.580263 C248.718299,958.580263 255.674632,952.293459 256.839512,939.719851 Z" transform="rotate(-9 195.07 937)"></path>
                <path id="[color1]color--S5/objects/office/big2/2" fill="#000000" d="M268.196408,860.998451 C277.703933,870.059321 285.402234,875.266285 291.291311,876.619343 L291.802991,879.332009 C295.854243,900.649979 298.892829,912.767455 300.918748,915.684437 L301.288132,916.227288 C304.170077,920.535924 305.553641,923.988428 323.910451,923.988428 C336.658235,923.988428 344.679601,918.281261 347.974547,906.866927 L347.909156,908.722754 C346.778626,938.760113 342.586634,955.34751 335.333181,958.484946 C327.351281,961.937467 309.920083,962.888289 296.600726,952.350328 L287.706917,945.342335 C279.991472,939.237886 270.750907,931.773173 263.198444,924.780828 L262.589844,924.214953 C234.561948,898.041065 213.037861,897.888045 206.390934,869.867336 C199.744008,841.846626 253.93512,847.407146 268.196408,860.998451 Z M266.126714,863.17017 C259.732435,857.076289 243.46895,852.429858 229.53862,852.827168 C214.462839,853.257148 206.858195,858.839395 209.309931,869.174906 C212.137019,881.092747 217.369203,887.751151 228.670313,895.608829 L229.448848,896.144345 C232.068548,897.916233 242.125842,904.436323 245.242411,906.575888 C251.990294,911.208396 257.880559,915.80133 263.756083,921.205532 L264.637406,922.022353 C266.653124,923.904735 268.870437,925.891241 271.284604,927.983356 C273.105953,929.561737 275.031022,931.193067 277.066799,932.886016 L277.946074,933.615364 C280.668853,935.868242 283.497415,938.158975 286.650276,940.672543 L289.562798,942.985003 C292.009948,944.919065 297.597628,949.313659 298.462126,949.997629 C309.047096,958.372208 324.697535,959.816713 334.142189,955.731487 C338.959015,953.647999 342.576786,941.838472 344.224002,920.736546 L344.316,919.504 L344.257598,919.565351 C339.520785,924.39418 332.842899,926.896546 324.382316,926.985944 L323.910451,926.988428 L322.868241,926.985247 C308.673699,926.896887 303.656385,924.953101 299.751799,919.331118 L298.64065,917.666689 L298.454732,917.39576 C296.09775,914.002104 293.09302,902.117113 288.995786,880.629085 L288.686,878.998 L288.501539,878.936637 C282.474542,876.886053 275.243807,871.787991 266.644326,863.6614 L266.126714,863.17017 Z" transform="rotate(-9 276.902 905.328)" opacity="1.00"></path>
                <path id="[color1]color--S5/objects/office/big2/2" fill="#000000" d="M166.686509,884.131927 L167.997746,885.377079 C177.279703,894.160201 188.730873,904.351471 202.351255,915.95089 L203.451823,919.712109 C208.237845,935.931405 211.618689,945.520947 213.594354,948.480735 L213.854111,948.863087 C216.841547,953.361584 217.231272,958.580263 235.970515,958.580263 C248.718299,958.580263 255.674632,952.293459 256.839512,939.719851 C259.363754,973.352034 254.767452,991.165308 243.050606,993.159674 L238.446905,993.968106 C229.019919,995.587237 218.937499,996.577948 207.500225,987.529047 C199.041846,980.836976 191.270168,971.209008 180.384253,961.043182 C152.356357,934.869295 136.622238,936.385803 133.010167,910.82141 C129.398096,885.257017 152.425221,870.540622 166.686509,884.131927 Z M164.616815,886.303646 C152.043756,874.321259 132.861836,888.328238 135.980662,910.4017 C137.477226,920.993611 140.880276,926.62074 148.725764,932.822535 L149.121752,933.133129 C151.65007,935.101092 162.788978,942.861942 163.233386,943.181131 C169.782631,947.885022 175.498189,952.45465 181.48424,957.971476 L182.431815,958.850583 C187.217319,963.319533 201.542492,978.197374 204.860955,981.299367 L204.9928,981.421743 C206.515986,982.824365 207.955567,984.063908 209.361625,985.176348 C214.563961,989.292314 219.618687,991.341221 225.049193,991.88284 C229.014969,992.278371 232.337993,991.981343 238.710634,990.876176 L242.547205,990.202211 C250.314683,988.880081 254.575911,977.497107 254.510244,955.649084 L254.5,954.287 L254.388021,954.420505 C250.405563,959.059539 244.357869,961.49252 236.406133,961.577933 L235.970515,961.580263 L234.960521,961.576146 C221.371293,961.46327 216.493722,959.01587 212.576906,952.546647 L212.269985,952.028362 L211.929279,951.446611 C211.662379,950.995936 211.478923,950.702787 211.279495,950.410019 L211.203767,950.299942 C208.899194,946.981746 205.287789,936.680091 200.034836,918.724925 L199.721,917.651 L196.493614,914.890433 C184.224592,904.36263 173.818098,895.042346 165.271777,886.926714 L164.616815,886.303646 Z" transform="rotate(-9 195.07 937)" opacity="1.00"></path>
                <path id="[color1]color--S5/objects/office/big2/2" fill="#000000" d="M134.973248,903.395686 C137.833954,915.455245 137.176928,923.525748 147.030213,930.710521 L147.495959,931.047947 C149.718918,932.648263 159.604956,939.26933 162.238864,941.123919 C168.623802,945.619685 174.280485,950.099571 180.081549,955.43648 L181.04988,956.33405 C183.065598,958.216431 185.28291,960.202938 187.697077,962.295053 L189.283798,963.66112 C190.896245,965.040559 192.586361,966.46072 194.358547,967.92706 L195.729764,969.057511 C198.263531,971.138926 200.916788,973.278056 203.857847,975.617381 L214.8746,984.309326 C225.322102,992.575144 246.054025,993.795465 255.50179,983.300613 L253.152253,992.447826 C243.179469,999.904353 223.955841,998.855648 211.581286,989.349554 L201.766224,981.617433 L199.318745,979.672787 C196.405672,977.350366 193.764182,975.214181 191.223995,973.12001 L190.5336,972.549806 C188.137106,970.566902 185.885598,968.664735 183.767669,966.829339 C181.574268,964.928539 179.535427,963.109069 177.653232,961.368337 L176.954756,960.719249 C171.339891,955.475799 165.913875,951.108198 159.808532,946.755291 L158.420477,945.775251 C155.473856,943.726434 146.622479,937.792101 144.149055,936.030897 L148.779861,938.992222 C137.664021,930.989891 134.425062,923.013121 132.799567,917.119769 L134.973248,903.395686 Z" transform="rotate(-9 194.15 950.375)" opacity="1.00"></path>
                <path id="[color2]color--S5/objects/office/big2/2" fill="#000000" d="M16.2458592,466.751678 L18.7823921,467.375838 C32.7472614,470.859458 39.9113678,473.496657 47.880073,478.319907 C48.8079436,478.881523 49.1048517,480.088991 48.5432358,481.016861 C47.9816198,481.944732 46.7741524,482.24164 45.8462817,481.680024 C37.826708,476.825985 30.622663,474.286615 15.318565,470.568328 C14.2646262,470.312263 13.6178219,469.250295 13.8738871,468.196356 C14.1299523,467.142417 15.1919204,466.495613 16.2458592,466.751678 Z M25.0205083,458.93507 L31.1859069,460.44933 L31.9756378,460.648333 C44.307518,463.773736 51.7655785,466.755276 57.5357606,471.817345 C58.3510828,472.532612 58.4321941,473.773399 57.7169277,474.588721 C57.0016613,475.404044 55.760874,475.485155 54.9455517,474.769888 C49.8939955,470.338256 43.0837668,467.562098 31.7878678,464.654138 L30.6232608,464.357731 L24.0816181,462.748884 C23.0284625,462.489616 22.3848888,461.425687 22.6441562,460.372532 C22.9034235,459.319376 23.9673526,458.675802 25.0205083,458.93507 Z" opacity="1.00"></path>
                <path id="[color1]color--S5/objects/office/big2/2" fill="#000000" d="M124.808218,747.133828 C99.0037248,678.526399 206.946882,751.400239 215.334043,782.305167 C225.068797,818.175691 257.12526,903.263085 257.12526,936.708048 C257.12526,970.15301 219.375386,974.128641 202.635987,961.819937 C184.97664,948.834784 184.97664,932.431569 173.495587,896.409814 C160.132725,854.483893 144.157346,798.578122 124.808218,747.133828 Z M243.246107,776.313091 C239.050663,766.300223 324.334995,803.813323 328.282644,819.303781 C332.340857,835.22809 359.550992,887.817205 348.473395,909.590805 C337.395798,931.364404 298.436026,925.807761 286.99094,900.464796 C275.545855,875.121831 270.872259,842.245811 243.246107,776.313091 Z" opacity="1.00"></path>
                <path id="Combined-Shape--S5/objects/office/big2/2" fill="#FFF" d="M124.808218,747.133828 C99.0037248,678.526399 206.946882,751.400239 215.334043,782.305167 C225.068797,818.175691 257.12526,903.263085 257.12526,936.708048 C257.12526,970.15301 219.375386,974.128641 202.635987,961.819937 C184.97664,948.834784 184.97664,932.431569 173.495587,896.409814 C160.132725,854.483893 144.157346,798.578122 124.808218,747.133828 Z M243.246107,776.313091 C239.050663,766.300223 324.334995,803.813323 328.282644,819.303781 C332.340857,835.22809 359.550992,887.817205 348.473395,909.590805 C337.395798,931.364404 298.436026,925.807761 286.99094,900.464796 C275.545855,875.121831 270.872259,842.245811 243.246107,776.313091 Z" opacity=".32"></path>
                <path id="[color1]color--S5/objects/office/big2/2" fill="#000000" d="M126.388703,717.924828 C133.178914,715.532442 144.335866,718.664529 157.96646,726.084933 C184.446047,740.500242 212.639631,766.649715 216.781681,781.912299 L217.226838,783.532002 C218.762492,789.053007 220.826731,795.831494 223.738653,804.994104 L227.16199,815.652447 C229.928957,824.220136 234.549754,838.518048 236.273766,843.92626 L238.176125,849.922976 C239.034219,852.642262 239.853423,855.259511 240.644877,857.811751 L241.347674,860.084928 C252.715366,896.966658 258.62526,921.768812 258.62526,936.708048 C258.62526,952.717498 250.176561,963.573663 236.609022,967.852172 C224.800405,971.576007 210.641403,969.568292 201.747386,963.028403 C191.969397,955.838517 187.215793,947.934158 182.461637,932.571844 L182.04846,931.216125 C181.68491,929.949134 176.278598,910.642465 173.066017,900.085876 L172.132276,897.071176 C174.002071,902.887558 146.003905,812.5471 136.848952,785.474065 L135.486096,781.462503 C131.633202,770.174807 127.850232,759.547916 124.071117,749.440236 L123.404241,747.661889 C117.078453,730.843265 118.185923,720.814903 126.388703,717.924828 Z M156.53206,728.719794 L155.430161,728.126696 C143.010676,721.518899 132.947909,718.79459 127.385623,720.754342 C121.37781,722.871067 120.421187,730.983113 126.030929,746.120279 L126.212195,746.605767 C130.447619,757.866657 134.681674,769.76377 139.007123,782.495768 L140.257244,786.196713 C149.661736,814.285954 175.209805,896.655928 175.080656,896.431812 L175.007,896.215 L175.387186,897.425786 C176.96315,902.501316 179.284674,910.518891 181.244449,917.378869 L184.937647,930.408274 L185.325041,931.677039 C189.90407,946.479948 194.346721,953.862864 203.524588,960.611472 C211.625487,966.568171 224.787344,968.434493 235.706774,964.991062 C248.05745,961.09629 255.62526,951.372024 255.62526,936.708048 C255.62526,921.884412 249.508579,896.523673 237.779488,858.700314 L236.040029,853.128002 C235.323978,850.848363 234.581662,848.501402 233.806078,846.063849 L221.779532,808.726191 C218.065703,797.107001 215.620567,789.088055 213.886405,782.698035 C210.014603,768.431257 182.356515,742.778454 156.53206,728.719794 Z M241.862643,776.892769 C240.78277,774.315539 242.690337,773.004921 245.609102,773.152112 C247.664159,773.255746 250.725551,773.958927 254.658417,775.197092 L255.7825,775.557872 C263.029364,777.926457 272.664818,781.869163 282.56926,786.519924 L283.35171,786.888545 C308.826718,798.929551 327.793557,811.310536 329.736186,818.933355 L329.856259,819.390546 C330.488097,821.72985 331.597911,824.888269 333.451189,829.7165 L335.135663,834.051915 L338.04517,841.47737 C339.104793,844.197092 339.985026,846.488643 340.849229,848.785632 C343.292481,855.279617 345.293477,861.008683 346.980203,866.466131 L347.405054,867.857326 C353.174117,886.982851 354.448211,901.154956 349.810317,910.270981 C338.075077,933.337213 297.512751,927.40781 285.623882,901.08217 C283.263099,895.854666 281.100805,890.13863 278.732197,883.001937 L278.326842,881.770759 C276.370316,875.738732 268.356001,849.402232 265.361232,840.129693 L265.264337,839.830237 C258.638178,819.391767 251.328395,799.483784 241.862643,776.892769 Z M245.458006,776.148304 C245.287357,776.138357 245.133814,776.138357 244.998697,776.138357 L244.869772,776.14176 L244.801,776.145 L245.375052,777.517711 C254.006048,798.235934 260.842764,816.755265 267.030788,835.574732 L267.591581,837.286489 L268.524004,840.165939 C271.808897,850.431319 279.64248,876.172931 281.296692,881.201126 L281.858053,882.892544 C284.087686,889.549902 286.13732,894.930151 288.357999,899.847421 C299.292332,924.059423 336.650935,929.520506 347.136473,908.910628 C351.362277,900.604588 350.054472,886.801454 344.323061,868.032548 L344.113978,867.351992 C342.539752,862.258546 340.684346,856.913746 338.441265,850.90869 L337.238259,847.721006 C336.489012,845.754532 335.691923,843.695301 334.748388,841.281631 L331.232595,832.300338 L330.456764,830.286132 C328.556938,825.317208 327.452697,822.121178 326.829102,819.674207 C325.240926,813.44225 306.828056,801.370927 282.799565,789.946813 L282.069721,789.600832 C271.483829,784.597309 261.153287,780.387001 253.757533,778.058631 L252.884145,777.788316 C249.600132,776.790022 247.057655,776.228973 245.458006,776.148304 Z" opacity="1.00"></path>
                <path id="Path-202--S5/objects/office/big2/2" fill="#FFF" d="M642.06779,704.708782 L408.315716,573.696442 C397.897916,567.857519 385.180505,567.912466 374.813548,573.841191 L117.680505,720.892162 L117.680505,720.892162 L366.462869,867.588832 L642.06779,704.708782 Z" transform="matrix(-1 0 0 1 759.748 0)"></path>
                <path id="[color2]color--S5/objects/office/big2/2" fill="#000000" d="M373.82067,572.105047 L113.698082,720.8657 L366.464017,869.911316 L646.076482,704.662843 L409.293555,571.951784 C398.262943,565.769395 384.797449,565.827574 373.82067,572.105047 Z M638.058426,704.754298 L366.461426,865.265298 L121.662426,720.918298 L375.806425,575.577335 C385.563561,569.997358 397.532889,569.945644 407.337878,575.441101 L638.058426,704.754298 Z" transform="matrix(-1 0 0 1 759.775 0)" opacity="1.00"></path>
                <path id="[color1]color--S5/objects/office/big2/2" fill="#000000" d="M201.074613,585.824559 C208.678791,537.41836 244.528755,530.139461 267.90182,535.545165 C284.375406,539.355164 343.272555,564.241998 444.593267,610.205668 C505.976807,585.191346 532.199192,618.039456 543.146579,671.979927 C565.603831,782.63233 516.109636,784.103381 471.078142,801.833734 C419.66348,822.077345 335.818259,762.45214 265.893954,728.435182 C193.429304,693.18239 180.748114,689.569189 178.806482,689.445225 C157.083558,688.058322 172.423761,673.092641 121.225647,703.184014 C114.630506,680.072939 110.531068,660.067083 110.531068,648.237772 C110.531068,581.93779 152.544611,571.997723 178.806482,578.071549 C183.207952,579.089518 190.606829,581.82995 201.003114,586.292847 Z" opacity="1.00"></path>
                <path id="Combined-Shape--S5/objects/office/big2/2" fill="#FFF" d="M201.074613,585.824559 C208.678791,537.41836 244.528755,530.139461 267.90182,535.545165 C284.375406,539.355164 343.272555,564.241998 444.593267,610.205668 C505.976807,585.191346 532.199192,618.039456 543.146579,671.979927 C565.603831,782.63233 516.109636,784.103381 471.078142,801.833734 C419.66348,822.077345 335.818259,762.45214 265.893954,728.435182 C193.429304,693.18239 180.748114,689.569189 178.806482,689.445225 C157.083558,688.058322 172.423761,673.092641 121.225647,703.184014 C114.630506,680.072939 110.531068,660.067083 110.531068,648.237772 C110.531068,581.93779 152.544611,571.997723 178.806482,578.071549 C183.207952,579.089518 190.606829,581.82995 201.003114,586.292847 Z" opacity=".318"></path>
                <path id="[color1]color--S5/objects/office/big2/2" fill="#000000" d="M483.149666,798.988521 L491.218759,796.176114 C503.601797,791.830553 510.236596,789.124471 517.127072,785.306882 C526.573535,780.073179 533.779745,773.783742 539.139609,765.569466 C551.58003,746.503859 553.816204,717.010247 544.61661,671.681579 C538.650352,642.284358 528.708864,621.679069 513.689847,610.289551 L513.181638,609.909134 C496.68711,597.722699 474.460117,596.817813 445.790537,608.109974 L444.626,608.573 L436.195544,604.753895 C340.24711,561.333932 284.36267,537.812623 268.239817,534.083742 C254.675878,530.946685 239.919056,532.426527 227.841406,539.19696 L227.378657,539.459627 C213.3898,547.499319 203.760203,562.104538 199.950537,583.457898 L199.828,584.16 L197.916025,583.354689 C189.353637,579.772936 183.109791,577.52722 179.144479,576.610126 C163.595406,573.013948 146.790867,575.466172 133.939064,584.800835 C118.188341,596.241073 109.211723,616.95872 109.031068,647.314936 L109.031068,648.237772 C109.031068,659.587386 112.727813,678.583547 119.302918,701.902446 L120.31501,705.459133 L124.566578,702.964645 C151.478286,687.240855 158.810419,684.553826 164.224024,686.738451 L164.392595,686.808297 C164.956908,687.048195 167.224428,688.146217 167.777718,688.394139 C170.841883,689.767151 173.912395,690.582975 178.151288,690.903212 L178.710909,690.942177 C179.122702,690.968468 180.196405,691.246457 181.96573,691.847578 L182.547627,692.04823 C185.165623,692.963558 188.811263,694.396644 193.608319,696.421661 L195.315017,697.146384 C209.568943,703.233088 231.46104,713.382867 262.346272,728.378737 L267.272071,730.776684 C278.470741,736.258834 286.74619,740.623667 308.589031,752.483848 L325.86402,761.86906 C327.54853,762.780851 329.127383,763.633154 330.696296,764.477575 L334.651736,766.599561 C365.222752,782.944434 386.202674,792.817803 406.088981,799.483338 L406.723289,799.694983 C432.795664,808.354692 453.974838,809.969178 471.083053,803.440571 L473.100287,802.655837 C474.591712,802.081002 476.144768,801.500366 477.806041,800.894906 L479.505112,800.280466 C480.643578,799.871777 481.821376,799.454478 483.149666,798.988521 Z M481.59258,796.355765 C480.483719,796.745785 479.473477,797.104376 478.491499,797.456889 L476.776241,798.07719 C474.539423,798.892428 472.494079,799.664152 470.528606,800.438022 C454.276991,806.836807 433.858463,805.430443 408.497653,797.121312 L407.668917,796.847916 C387.375916,790.107775 365.932366,779.978369 334.100418,762.901113 L325.214903,758.105334 L302.075322,745.540747 C285.243774,736.437487 277.759114,732.551705 267.376104,727.488608 L259.790851,723.805206 C207.495335,698.477195 183.929035,688.447211 179.049932,687.960478 L178.902055,687.948273 C174.919726,687.69402 172.134046,687.009497 169.37993,685.821539 L169.004455,685.656418 C168.517032,685.43801 166.21366,684.322627 165.566287,684.047419 L165.358992,683.961216 C158.846585,681.313772 151.241931,683.977944 124.766988,699.37527 L122.139,700.908 L121.49277,698.591233 C115.5012,676.939865 112.117404,659.295275 112.031068,648.643983 L112.031068,648.237772 C112.031068,618.275399 120.636887,598.17045 135.702083,587.22813 C147.796362,578.44368 163.714829,576.120758 178.468485,579.532972 L178.997917,579.660316 C183.168848,580.700056 189.914013,583.198749 199.187493,587.147883 L202.193258,588.436119 L202.557429,586.050958 C205.993842,564.175746 215.441144,549.587457 229.308362,541.813836 C240.691736,535.432597 254.689045,534.02892 267.563823,537.006589 C283.399728,540.669105 339.306705,564.201583 434.982349,607.497796 L444.561491,611.838383 L445.159333,611.594758 C474.079767,599.809431 495.941103,600.595038 511.877114,612.679949 C526.197748,623.539855 535.841671,643.528396 541.676549,672.278274 C550.734373,716.908403 548.555242,745.649656 536.627159,763.930077 C531.55448,771.704227 524.71619,777.672551 515.673187,782.682722 L514.557215,783.292093 C508.355505,786.628414 502.029212,789.189479 490.905921,793.106123 L481.59258,796.355765 Z" opacity="1.00"></path>
                <polygon id="[color1]color--S5/objects/office/big2/2" fill="#000000" points="243.786383 581.350263 330.324387 626.189875 328.944211 628.85354 242.406206 584.013928" opacity="1.00"></polygon>
                <g id="Body--S5/objects/office/big2/2" transform="matrix(-1 0 0 1 570.814 0)">
                  <path id="Path-831-Copy--S5/objects/office/big2/2" fill="#FFF" d="M326.714095,309.157397 C353.069702,297.586083 366.643995,293.271919 367.436974,296.214904 C368.626443,300.629382 351.823545,309.322262 342.96404,315.659023 C334.104534,321.995785 339.145284,329.812011 326.714095,341.126062 C318.426636,348.668762 313.105984,352.440113 310.752141,352.440113 L326.714095,309.157397 Z" transform="rotate(-19 339.125 323.88)"></path>
                  <g id="head--S5/objects/office/big2/2" transform="translate(38 .06)">
                    <path id="Path-832--S5/objects/office/big2/2" fill="#FFF" d="M192.220624,78.7882152 C199.916424,106.049845 203.764323,123.674373 203.764323,131.661802 C203.764323,143.642945 199.24174,143.461761 201.503032,150.806205 C203.764323,158.150648 205.171656,170.715183 205.171656,186.600615 C205.171656,197.190904 204.702545,209.47107 203.764323,223.441116 C201.250766,229.645753 197.402866,232.748072 192.220624,232.748072 C184.447261,232.748072 159.909879,230.71075 158.572322,232.748072 C157.680617,234.106287 157.680617,245.310842 158.572322,266.361736 C129.795079,275.410841 109.453444,276.797467 97.5474163,270.521616 C85.6413883,264.245765 77.5698349,256.180492 73.3327561,246.325798 L70.5327417,201.013049 C45.4795847,175.874472 37.1542839,147.27576 45.5568395,115.216915 C58.1606728,67.1286458 95.0432311,59.8629287 128.387144,59.8629287 C150.616419,59.8629287 171.894246,66.1713576 192.220624,78.7882152 Z"></path>
                    <path id="[color2]color--S5/objects/office/big2/2" fill="#000000" d="M128.387144,57.8629287 C107.932769,57.8629287 91.8660148,60.621462 78.2674591,67.7346285 C61.3851732,76.5654567 49.633149,91.7758094 43.6221866,114.709846 L43.3697336,115.691615 C35.2907311,147.72904 43.6553592,176.464198 68.3549122,201.654819 L68.582,201.885 L71.3580137,246.796276 L71.495388,247.115785 C75.925443,257.419307 84.3258249,265.813152 96.6148157,272.290869 C108.997324,278.81788 129.512867,277.49311 158.297474,268.543176 L160.635443,267.809531 L160.471969,263.890787 C159.813678,247.525003 159.760592,236.981979 160.106384,234.415952 L160.141,234.187 L160.431465,234.132647 C160.483028,234.123904 160.5369,234.115254 160.593015,234.106732 L160.768019,234.081581 C161.61255,233.966713 162.792231,233.893302 164.278333,233.861296 L165.339792,233.845756 C168.136995,233.822177 171.701151,233.918497 176.45309,234.121904 L188.577484,234.669311 C190.311698,234.737025 191.112837,234.748072 192.220624,234.748072 C198.180771,234.748072 202.652039,231.232158 205.460784,224.572379 L205.738349,223.89496 L205.936093,220.8842 C206.731259,208.424876 207.142753,197.342578 207.171656,187.635407 L207.171656,186.600615 C207.171656,171.224459 205.859003,158.45363 203.537592,150.625135 L203.414483,150.217685 C202.743818,148.039435 202.72315,146.719011 203.17552,145.131237 L203.321677,144.669496 C203.614518,143.78504 204.179173,142.199116 204.213557,142.096452 C205.245063,139.016616 205.764323,135.991727 205.764323,131.661802 C205.764323,123.749476 202.198293,107.099498 195.056721,81.4924147 L193.934607,77.498145 L193.275379,77.0889531 C172.638236,64.279199 150.996668,57.8629287 128.387144,57.8629287 Z M129.309786,61.8666189 C150.205878,62.0338713 170.24521,67.8866225 189.4598,79.444878 L190.507,80.081 L191.630208,84.1012591 C198.383309,108.470734 201.764323,124.392923 201.764323,131.661802 C201.764323,135.37131 201.358025,137.906769 200.540259,140.460976 L200.402061,140.878526 C200.273428,141.241113 199.515385,143.379642 199.328605,144.035221 C198.692565,146.267665 198.693742,148.291427 199.474696,151.002635 L199.591581,151.394724 C201.811447,158.604623 203.125816,170.886371 203.17048,185.812596 L203.17048,187.626107 L203.158522,189.708823 C203.082639,198.825591 202.677908,209.133982 201.94402,220.632475 L201.79,222.98 L201.614525,223.391285 C199.453874,228.296528 196.465351,230.640438 192.498939,230.744446 L192.220624,230.748072 C190.719548,230.748072 189.766553,230.725094 185.92887,230.552005 L177.39442,230.158976 L172.855225,229.972985 C161.867068,229.561749 158.115616,229.799518 156.900439,231.650435 L156.862577,231.711247 C155.675201,233.718974 155.63636,243.454346 156.465916,263.842204 L156.509,264.908 L156.283876,264.978923 C128.870335,273.407409 109.558399,274.591949 98.4800168,268.752363 L97.8552346,268.419406 C86.8836321,262.508027 79.4210552,255.05255 75.3943802,246.047204 L75.306,245.846 L72.482365,200.136066 L71.9493601,199.601244 C47.3868292,174.954966 39.2727058,147.081682 47.4914923,115.723983 C53.222136,93.8594653 64.256842,79.5775196 80.1214647,71.2790132 C93.0420919,64.5204594 108.520568,61.8629287 128.387144,61.8629287 L129.309786,61.8666189 Z" opacity="1.00"></path>
                    <path id="[color1]color--S5/objects/office/big2/2" fill="#000000" d="M68.4091131,54.3249375 C46.4317197,57.4378562 39.8532535,62.5131985 35.9455504,72.976163 C32.0378473,83.4391274 48.6945289,119.191076 65.6871312,114.318526 C82.6797336,109.445976 85.601909,131.278697 86.4150273,148.880816 C87.2281457,166.482935 101.842618,156.468722 107.749959,177.070067 C113.6573,197.671413 118.805517,204.433534 118.666774,218.272776 C118.659609,218.987506 115.200116,223.820485 111.14249,226.824487 C109.826694,227.798616 108.321954,228.614918 106.764556,229.324558 C105.972384,229.685517 101.949109,212.48156 94.2568305,208.239491 C85.2763713,203.287028 83.4287405,206.596138 82.1273838,207.993462 C80.8260271,209.390786 84.4785539,216.516305 85.6368226,216.679628 C86.7950913,216.84295 89.0340387,213.446229 93.5461762,220.289624 C98.0583136,227.13302 97.7986791,232.73678 97.2665698,232.963811 C95.0942803,233.890646 93.801147,234.833692 94.3226875,236.144164 C95.5065271,239.118791 98.1517762,251.547432 103.457954,252.612562 C113.671697,254.662807 129.333324,242.825383 132.476351,238.270035 C140.339572,226.873468 124.111358,195.123106 124.420289,187.471859 C125.150795,169.379503 140.626124,180.88813 151.950596,187.312577 C163.275069,193.737024 182.712093,211.682059 200.107617,206.693973 C217.50314,201.705887 229.261524,187.990644 227.963277,164.402699 C226.665031,140.814753 243.095398,97.697158 216.658065,67.3539538 C190.220733,37.0107495 168.203855,22.5202584 134.098007,32.2999529 C99.9921591,42.0796474 90.3865065,51.2120188 68.4091131,54.3249375 Z" transform="scale(-1 1) rotate(22 0 -546.25)" opacity="1.00"></path>
                  </g>
                  <path id="Path-833-Copy--S5/objects/office/big2/2" fill="#FFF" d="M105.647137,235.985658 C114.174618,249.242451 123.980169,258.116107 135.063791,262.606626 C146.147414,267.097145 167.628314,268.604998 199.506494,267.130185 C225.759868,281.122676 243.542124,290.948443 252.853263,296.607485 C266.819972,305.096048 280.733588,316.892104 311.617824,353.105682 C332.207315,377.248068 353.417851,435.608271 375.249431,528.186293 L463.7825,492.340502 C474.131769,496.498855 481.444278,500.714755 485.720027,504.988201 C489.995775,509.261648 494.0891,516.410723 498,526.435426 C415.738365,572.82953 369.819038,596.555483 360.242021,597.613284 C348.59739,598.899457 326.829336,589.758816 305.973436,557.684593 C292.51622,536.988783 282.345709,512.479146 275.461903,484.155683 C271.652392,528.685043 269.489719,557.577469 268.973883,570.832961 C268.758358,576.371336 268.650596,581.210713 268.650596,585.351091 C268.650596,604.355779 268.758358,624.965534 268.973883,647.180356 C219.300447,686.797743 171.985663,702.796457 127.029534,695.1765 C59.5953388,683.746563 22.0764673,640.560226 22.0764673,623.460895 C22.0764673,606.361564 14.4431456,491.615006 14.4431456,472.272252 C14.4431456,452.929498 -4.52775383,354.879937 4.95769588,301.048035 C14.4431456,247.216134 48.347096,235.985658 64.3496148,235.985658 C75.0179606,235.985658 88.7838015,235.985658 105.647137,235.985658 Z"></path>
                  <path id="[color1]color--S5/objects/office/big2/2" fill="#000000" d="M274.65343,478.144533 L263.938283,453.988164 C260.637104,506.522866 258.986515,544.841227 258.986515,568.943246 C258.986515,593.045266 261.56533,613.53012 266.722961,630.397807 L268.876432,579.689676 L272.46222,522.427098 L274.65343,478.144533 Z" opacity="1.00"></path>
                  <path id="Path-849--S5/objects/office/big2/2" fill="#FFF" d="M274.65343,478.144533 L263.938283,453.988164 C260.637104,506.522866 258.986515,544.841227 258.986515,568.943246 C258.986515,593.045266 261.56533,613.53012 266.722961,630.397807 L268.876432,579.689676 L272.46222,522.427098 L274.65343,478.144533 Z" opacity=".8"></path>
                  <path id="[color1]color--S5/objects/office/big2/2" fill="#000000" d="M107.760485,235.568657 L106.738676,233.985658 L64.3496148,233.985658 C53.79259,233.985658 41.4768828,238.168096 30.9436778,246.781642 C17.1965664,258.023366 7.37435724,275.807705 2.98803929,300.700972 C-0.107553603,318.269106 -0.423983167,341.316843 1.47970426,369.476438 L1.56512908,370.722088 C2.51022425,384.311404 3.90949833,398.46449 5.81840581,414.636295 L6.59197063,421.066322 C7.72383259,430.260311 10.3705975,450.913347 10.5612493,452.451235 L10.9671712,455.773052 C11.9803702,464.202384 12.4431456,469.256623 12.4431456,472.272252 L12.4459525,473.033179 C12.4991394,480.528654 13.3128974,496.890898 15.288999,531.761141 L17.5260019,570.932321 C19.3096053,602.387381 19.9663686,615.361324 20.063443,621.844636 L20.0764673,623.460895 C20.0764673,633.492523 30.9108165,649.21152 48.009638,663.001518 C68.5045554,679.530428 95.6073194,691.879035 126.695305,697.148375 C171.817051,704.796404 219.179026,689.010784 268.719063,649.935193 L270.983249,648.135973 L270.893349,638.363134 C270.750186,621.664739 270.670346,605.909889 270.653828,591.098637 L270.650596,585.351091 C270.650596,581.695685 270.735295,577.485871 270.904822,572.72281 L271.019437,569.763988 C271.499728,558.604548 273.013177,537.622082 275.558929,506.835783 L276.475,495.857 L276.748632,496.813096 C283.501615,520.258305 292.682889,540.913959 304.296732,558.774851 C314.124192,573.888471 324.768581,584.928678 335.477491,591.839545 C344.641508,597.753433 353.530349,600.366764 360.46159,599.601195 C370.169291,598.528959 413.446577,576.286425 491.628307,532.319258 L500.493884,527.32507 L499.863229,525.708532 C495.860628,515.448774 491.639949,508.077271 487.133859,503.573607 C482.631528,499.0737 475.105474,494.734684 464.528163,490.484704 L463.77964,490.183946 L376.659,525.457 L375.882516,522.195226 C354.440422,432.511525 333.589538,375.786667 313.139571,351.807882 L310.631423,348.87634 C283.980373,317.829896 269.517812,304.395303 253.892004,294.898387 L252.039229,293.783844 C243.147482,288.484662 228.087182,280.153668 206.841929,268.780749 L199.962596,265.106945 L199.414065,265.132322 C167.812642,266.594331 146.548382,265.101685 135.814794,260.752982 C125.329251,256.504774 115.975077,248.129957 107.760485,235.568657 Z M104.562,237.985 L104.858331,238.433632 C113.389247,251.265372 123.204799,259.959878 134.312789,264.46027 L134.658878,264.598307 L135.355081,264.863451 C146.683675,269.048461 167.101952,270.48402 196.771047,269.252233 L199.049,269.153 L206.484419,273.126921 C228.394557,284.869437 243.510898,293.26988 251.814523,298.316584 C267.4902,307.843809 282.082435,321.555845 310.096077,354.403483 C330.20463,377.981939 351.121412,435.216393 372.650248,525.887495 L373.83815,530.915415 L463.782,494.498 L464.339856,494.726885 L465.608582,495.257729 C474.369606,498.974468 480.609129,502.707721 484.306194,506.402796 L484.575769,506.676616 C488.161429,510.377184 491.683392,516.346666 495.094649,524.570808 L495.495,525.551 L489.760847,528.780125 C412.585249,572.178947 368.894165,594.645474 360.022452,595.625373 C354.092045,596.280399 346.09055,593.927949 337.646418,588.478629 C327.43593,581.889413 317.183663,571.255908 307.65014,556.594335 C294.321712,536.096587 284.237825,511.795704 277.405328,483.683348 L274.513074,471.783152 L272.374943,496.884231 C269.24056,534.172925 267.441129,558.78719 266.975396,570.75519 L266.903485,572.689527 C266.746171,577.135367 266.662215,581.107969 266.65172,584.608258 L266.650955,587.257583 L266.663531,596.950518 C266.689402,608.742519 266.754079,621.11224 266.857561,634.059708 L266.964,646.221 L267.726824,645.616757 C218.464831,684.905994 171.698501,700.719258 127.363762,693.204625 C96.9567459,688.050707 70.4870659,675.990548 50.5207169,659.887922 C34.4393348,646.918477 24.2873242,632.296276 24.0797135,623.726715 L24.0670095,622.074213 C23.9934491,616.347335 23.4787918,605.635082 22.1061876,581.110248 L18.7596015,522.250095 C17.2099077,494.552833 16.5299422,480.469336 16.451,473.560306 L16.4406967,471.859583 C16.4039139,468.687969 15.9516264,463.774365 15.0074647,455.869763 L14.1860492,449.242461 C13.3279656,442.506177 11.1569932,425.504317 10.357942,418.908321 L9.79133991,414.171719 C7.95047935,398.576671 6.58607507,384.874227 5.64789011,371.754636 L5.55549048,370.444571 C3.57834775,342.01567 3.85454377,318.833928 6.92735246,301.395099 C11.1531972,277.41255 20.499861,260.489246 33.4758311,249.878124 C43.2770168,241.863188 54.6948843,237.985 64.3496148,237.985 L104.562,237.985 Z" opacity="1.00"></path>
                </g>
                <path id="[color1]color--S5/objects/office/big2/2" fill="#000000" d="M120.965095,907.498763 L383.276503,755.236935 C386.459383,753.389394 390.537344,754.4719 392.384884,757.654779 C392.974746,758.670972 393.285426,759.825065 393.285426,761.000048 C393.285426,768.159904 389.460651,774.774361 383.255238,778.345969 L120.965095,929.310582 L120.965095,929.310582 L120.965095,907.498763 Z" transform="matrix(-1 0 0 1 514.25 0)" opacity="1.00"></path>
                <path id="[color2]color--S5/objects/office/big2/2" fill="#000000" d="M106.907163,849.224492 L356.257216,703.83204 C363.563695,699.571737 372.940424,702.04115 377.200728,709.347629 C378.566037,711.689153 379.285426,714.351092 379.285426,717.061591 C379.285426,733.565882 370.510745,748.825599 356.246539,757.127652 L113.583967,898.362104 L113.583967,898.362104 L106.907163,849.224492 Z" transform="matrix(-1 0 0 1 486.193 0)" opacity="1.00"></path>
                <path id="[color2]color--S5/objects/office/big2/2" fill="#000000" d="M402.294211,731.198061 L402.294211,739.985814 C402.294211,747.749404 406.386146,754.938222 413.061533,758.902128 L644.47929,896.32009 L644.47929,896.32009 L651.868395,857.241728 L420.644759,720.722289 C414.85915,717.306339 407.399813,719.227329 403.983864,725.012938 C402.877695,726.886461 402.294211,729.022355 402.294211,731.198061 Z" transform="matrix(-1 0 0 1 1054.163 0)" opacity="1.00"></path>
                <polygon id="Path-199--S5/objects/office/big2/2" fill="#FFF" points="648.530409 894.677251 413.733954 757.775337 409.683316 779.999781 643.404655 915.899538" transform="matrix(-1 0 0 1 1058.214 0)"></polygon>
                <path id="[color1]color--S5/objects/office/big2/2" fill="#000000" d="M650.250661,893.943918 L412.641778,755.402172 L408.018762,780.767051 L644.390282,918.207784 L650.250661,893.943918 Z M414.825426,760.148298 L646.809426,895.409298 L642.418426,913.591298 L411.347426,779.232298 L414.825426,760.148298 Z" transform="matrix(-1 0 0 1 1058.27 0)" opacity="1.00"></path>
                <polygon id="Path-203-Copy--S5/objects/office/big2/2" fill="#FFF" points="431.784464 549.060298 704.062596 705.808154 725.285426 777.230396 452.214996 616.189559" transform="matrix(-1 0 0 1 1157.07 0)"></polygon>
                <path id="[color1]color--S5/objects/office/big2/2" fill="#000000" d="M705.752342,704.473182 L428.398238,544.803138 L450.52835,617.516767 L728.651697,781.537515 L705.752342,704.473182 Z M435.170426,553.317298 L702.373426,707.143298 L721.918426,772.923298 L453.900426,614.861298 L435.170426,553.317298 Z" transform="matrix(-1 0 0 1 1157.05 0)" opacity="1.00"></path>
                <polygon id="Path-203--S5/objects/office/big2/2" fill="#FFF" points="443.784464 554.060298 716.062596 710.808154 737.285426 782.230396 464.214996 621.189559" transform="matrix(-1 0 0 1 1181.07 0)"></polygon>
                <path id="[color1]color--S5/objects/office/big2/2" fill="#000000" d="M717.752342,709.473182 L440.398238,549.803138 L462.52835,622.516767 L740.651697,786.537515 L717.752342,709.473182 Z M447.170426,558.317298 L714.373426,712.143298 L733.918426,777.923298 L465.900426,619.861298 L447.170426,558.317298 Z" transform="matrix(-1 0 0 1 1181.05 0)" opacity="1.00"></path>
                <g id="Group-46--S5/objects/office/big2/2" transform="matrix(-1 0 0 1 493.2 615.193)">
                  <polygon id="[color1]color--S5/objects/office/big2/2" fill="#000000" points="14.9862318 76.9219548 40.8977434 62.1967395 74.6849837 173.823282 351.917048 13.4447965 349.111081 452.157786 324.788401 466.399196 324.765196 55.6640154 153.352184 154.934738 54.7071622 620.639776 30.6443732 634.721898 124.974906 171.684392 54.7071622 211.542875" opacity="1.00"></polygon>
                  <polygon id="Path-194--S5/objects/office/big2/2" fill="#FFF" points="29.6540893 632.447601 11.0754945 621.323411 104.723263 184.880959 124.974906 171.684392"></polygon>
                  <path id="[color1]color--S5/objects/office/big2/2" fill="#000000" d="M30.6952011,634.819314 L127.173425,168.46141 L103.386353,183.961767 L9.38358361,622.058688 L30.6952011,634.819314 Z M122.776,174.907 L28.613,630.075 L12.767,620.588 L106.059,185.8 L122.776,174.907 Z" opacity="1.00"></path>
                  <polygon id="Path-195--S5/objects/office/big2/2" fill="#FFF" points="323.297393 463.895711 301.586554 452.234836 301.586554 67.7368686 324.765196 55.6640154"></polygon>
                  <path id="[color1]color--S5/objects/office/big2/2" fill="#000000" d="M324.788401,466.399196 L326.274113,53.1868029 L300.086554,66.8268836 L300.086554,453.131853 L324.788401,466.399196 Z M323.256,58.141 L321.806,461.392 L303.086,451.337 L303.086,68.647 L323.256,58.141 Z" opacity="1.00"></path>
                  <polygon id="Path-196--S5/objects/office/big2/2" fill="#FFF" points="14.9862318 76.9219548 37.9212768 62.2774936 25.6513815 55.3600986 2 69.4877594 40.4888656 201.537441 52.3717493 208.759971"></polygon>
                  <path id="[color1]color--S5/objects/office/big2/2" fill="#000000" d="M40.8337703,62.1975133 L25.6296159,53.6258721 L0.235517791,68.7945084 L39.2118441,202.516597 L54.8570115,212.025878 L16.733,77.586 L40.8337703,62.1975133 Z M25.672,57.094 L35.008,62.357 L13.2388131,76.2580127 L49.886,205.494 L41.765,200.558 L3.764,70.18 L25.672,57.094 Z" opacity="1.00"></path>
                  <polygon id="Path-197--S5/objects/office/big2/2" fill="#FFF" points="349.111081 13.3480483 332.455696 2 68.0252002 155.31254 73.2682815 174.659246"></polygon>
                  <path id="[color1]color--S5/objects/office/big2/2" fill="#000000" d="M351.917048,13.4447965 L332.520084,0.228789969 L66.2760378,154.592798 L72.3332739,176.943693 L351.917048,13.4447965 Z M332.391,3.771 L346.305,13.251 L74.203,172.374 L69.773,156.032 L332.391,3.771 Z" opacity="1.00"></path>
                </g>
                <path id="Path-198--S5/objects/office/big2/2" fill="#FFF" d="M352.732222,369.452377 L330.578376,384.714136 C339.308468,432.46748 348.091198,454.17856 356.926568,449.847376 C363.838763,446.45895 357.633394,474.765879 361.000925,468.622356 C362.887476,465.180645 364.982558,466.789501 364.367976,468.894909 C363.921283,470.425169 374.570967,460.776345 380.357966,447.981503 C386.118268,435.245686 387.013877,419.370662 387.489028,417.836741 C389.702593,410.690732 399.208129,393.800763 386.095151,379.649784 C382.918573,376.221753 371.797597,372.822618 352.732222,369.452377 Z"></path>
              </g>
            </g>
          </g>
        </svg>
      </g>
    </g>
  </g>
</svg>
