<svg width="883" height="801" viewBox="0 0 883 801" fill="none" xmlns="http://www.w3.org/2000/svg">
<g clip-path="url(#clip0_23_120)">
<path d="M441.5 285.856C457.587 285.856 473.516 289.025 488.379 295.181C503.241 301.337 516.745 310.36 528.121 321.736C539.496 333.111 548.519 346.615 554.675 361.477C560.831 376.34 564 392.269 564 408.356V701.856H319V408.356C319 392.269 322.169 376.34 328.325 361.477C334.481 346.615 343.504 333.111 354.879 321.736C366.255 310.36 379.759 301.337 394.621 295.181C409.484 289.025 425.413 285.856 441.5 285.856Z" fill="#E6E6E6"/>
<path d="M399 433.134H377V506.134H399V433.134Z" fill="white"/>
<path d="M478 512.134H405V578.134H478V512.134Z" fill="white"/>
<path d="M478 433.134H405V506.134H478V433.134Z" fill="white"/>
<path d="M484 427.134H506V425.633C506.008 416.448 504.049 407.367 500.254 399.002C496.459 390.637 490.917 383.181 484 377.137V427.134Z" fill="white"/>
<path d="M405 427.134H478V372.46C467.266 365.066 454.534 361.116 441.5 361.134C428.466 361.116 415.734 365.066 405 372.46V427.134Z" fill="white"/>
<path d="M399 512.134H377V562.134C377 566.377 378.686 570.447 381.686 573.447C384.687 576.448 388.757 578.134 393 578.134H399V512.134Z" fill="white"/>
<path d="M484 512.134V578.134H490C494.243 578.134 498.313 576.448 501.314 573.447C504.314 570.447 506 566.377 506 562.134V512.134H484Z" fill="white"/>
<path d="M399 427.134V377.137C392.083 383.182 386.541 390.637 382.746 399.002C378.951 407.367 376.992 416.448 377 425.634V427.134H399Z" fill="white"/>
<path d="M506 433.134H484V506.134H506V433.134Z" fill="white"/>
<path d="M546.5 530.134C553.68 530.134 559.5 524.313 559.5 517.134C559.5 509.954 553.68 504.134 546.5 504.134C539.32 504.134 533.5 509.954 533.5 517.134C533.5 524.313 539.32 530.134 546.5 530.134Z" fill="#3F3D56"/>
<path d="M137.267 392H120V449.296H137.267V392Z" fill="#1F2A40"/>
<path d="M199.296 392H142V449.296H199.296V392Z" fill="#1F2A40"/>
<path d="M220.639 392.368H203.372V449.664H220.639V392.368Z" fill="#1F2A40"/>
<path d="M204 381.241H221.267V380.064C221.274 372.854 219.736 365.727 216.757 359.161C213.779 352.596 209.429 346.744 204 342V381.241Z" fill="#1F2A40"/>
<path d="M198.662 454.373H141.366V506.174H198.662V454.373Z" fill="#1F2A40"/>
<path d="M136.657 454.373H119.39V493.616C119.39 496.947 120.713 500.141 123.068 502.496C125.423 504.851 128.617 506.174 131.948 506.174H136.657L136.657 454.373Z" fill="#1F2A40"/>
<path d="M203.372 454.373V506.174H208.081C209.73 506.175 211.363 505.85 212.887 505.219C214.41 504.587 215.795 503.662 216.961 502.496C218.127 501.33 219.052 499.946 219.683 498.422C220.314 496.899 220.639 495.266 220.639 493.616V454.373H203.372Z" fill="#1F2A40"/>
<path d="M136.657 381.241V342C131.228 346.744 126.878 352.596 123.9 359.161C120.921 365.727 119.383 372.854 119.39 380.064V381.241H136.657Z" fill="#1F2A40"/>
<path d="M142 380.802H199.296V337.89C190.871 332.087 180.878 328.986 170.648 329C160.418 328.986 150.425 332.087 142 337.89V380.802Z" fill="#211F1F"/>
<path d="M243.19 512.435H97.2033C96.2669 512.434 95.3691 512.061 94.707 511.399C94.0449 510.737 93.6724 509.839 93.6714 508.903V499.484C93.6724 498.548 94.0449 497.65 94.707 496.988C95.3692 496.326 96.2669 495.953 97.2033 495.952H243.19C244.127 495.953 245.025 496.326 245.687 496.988C246.349 497.65 246.721 498.548 246.722 499.484V508.903C246.721 509.839 246.349 510.737 245.687 511.399C245.025 512.061 244.127 512.434 243.19 512.435Z" fill="#E6E6E6"/>
<path d="M679.657 392.368H662.39V449.664H679.657V392.368Z" fill="#1F2A40"/>
<path d="M741.662 392.368H684.366V449.664H741.662V392.368Z" fill="#1F2A40"/>
<path d="M763.639 392.368H746.372V449.664H763.639V392.368Z" fill="#1F2A40"/>
<path d="M746.372 387.658H763.639V386.481C763.645 379.271 762.107 372.144 759.129 365.578C756.15 359.013 751.8 353.161 746.372 348.417V387.658Z" fill="#1F2A40"/>
<path d="M741.662 454.373H684.366V506.174H741.662V454.373Z" fill="#1F2A40"/>
<path d="M679.657 454.373H662.39V493.616C662.39 496.947 663.713 500.141 666.068 502.496C668.423 504.851 671.617 506.174 674.948 506.174H679.657L679.657 454.373Z" fill="#1F2A40"/>
<path d="M746.372 454.373V506.174H751.081C752.73 506.175 754.363 505.85 755.887 505.219C757.41 504.587 758.795 503.662 759.961 502.496C761.127 501.33 762.052 499.946 762.683 498.422C763.314 496.899 763.639 495.266 763.639 493.616V454.373H746.372Z" fill="#1F2A40"/>
<path d="M679.657 387.658V348.417C674.228 353.161 669.878 359.013 666.9 365.578C663.921 372.144 662.383 379.271 662.39 386.481V387.658H679.657Z" fill="#1F2A40"/>
<path d="M684.366 387.658H741.662V344.746C733.237 338.943 723.245 335.842 713.014 335.856C702.784 335.842 692.791 338.943 684.366 344.746V387.658Z" fill="#1F2A40"/>
<path d="M786.19 512.435H640.203C639.267 512.434 638.369 512.061 637.707 511.399C637.045 510.737 636.672 509.839 636.671 508.903V499.484C636.672 498.548 637.045 497.65 637.707 496.988C638.369 496.326 639.267 495.953 640.203 495.952H786.19C787.127 495.953 788.025 496.326 788.687 496.988C789.349 497.65 789.721 498.548 789.722 499.484V508.903C789.721 509.839 789.349 510.737 788.687 511.399C788.025 512.061 787.127 512.434 786.19 512.435Z" fill="#E6E6E6"/>
<path d="M829.5 702.856H53.5C44.7509 702.846 36.363 699.366 30.1764 693.18C23.9898 686.993 20.5099 678.605 20.5 669.856V166.856C20.5099 158.107 23.9898 149.719 30.1764 143.533C36.363 137.346 44.7509 133.866 53.5 133.856H829.5C838.249 133.866 846.637 137.346 852.824 143.533C859.01 149.719 862.49 158.107 862.5 166.856V669.856C862.49 678.605 859.01 686.993 852.824 693.18C846.637 699.366 838.249 702.846 829.5 702.856ZM53.5 135.856C45.2811 135.866 37.4016 139.135 31.59 144.946C25.7784 150.758 22.5093 158.637 22.5 166.856V669.856C22.5093 678.075 25.7784 685.955 31.59 691.766C37.4016 697.578 45.2811 700.847 53.5 700.856H829.5C837.719 700.847 845.598 697.578 851.41 691.766C857.222 685.955 860.491 678.075 860.5 669.856V166.856C860.491 158.637 857.222 150.758 851.41 144.946C845.598 139.135 837.719 135.866 829.5 135.856H53.5Z" fill="#CCCCCC"/>
<path d="M33.0483 199.626C24.741 199.619 16.7403 196.487 10.6369 190.851C4.53346 185.216 0.774361 177.49 0.106967 169.209C-0.560428 160.929 1.91276 152.7 7.03481 146.16C12.1569 139.619 19.5526 135.246 27.7517 133.909L433.306 0.658338C438.576 -0.212843 443.953 -0.21944 449.225 0.638806L855.319 133.931C863.966 135.358 871.693 140.159 876.802 147.28C881.912 154.401 883.985 163.259 882.567 171.907C881.149 180.556 876.355 188.288 869.24 193.404C862.124 198.521 853.268 200.603 844.618 199.193C840.243 198.568 445.096 142.147 441.492 141.999C437.902 142.147 42.3701 198.624 38.3752 199.194C36.6141 199.481 34.8327 199.626 33.0483 199.626Z" fill="#535050"/>
<path d="M615.436 623.406C616.272 622.32 616.86 621.064 617.159 619.726C617.458 618.388 617.459 617.001 617.164 615.662C616.868 614.323 616.283 613.066 615.449 611.978C614.614 610.89 613.552 609.998 612.336 609.366L614.189 588.018L601.491 583.728L599.297 613.911C598.369 616.025 598.249 618.405 598.959 620.601C599.669 622.797 601.16 624.656 603.149 625.827C605.138 626.997 607.488 627.397 609.752 626.951C612.017 626.505 614.039 625.243 615.436 623.406Z" fill="#FFB8B8"/>
<path d="M678.804 789.38L667.371 789.379L661.935 745.283L678.808 745.284L678.804 789.38Z" fill="#FFB8B8"/>
<path d="M659.205 786.112H681.253V799.994H645.323C645.323 798.171 645.682 796.366 646.38 794.682C647.078 792.998 648.1 791.467 649.389 790.178C650.678 788.889 652.209 787.867 653.893 787.169C655.577 786.471 657.382 786.112 659.205 786.112Z" fill="#2F2E41"/>
<path d="M652.853 760.12L641.751 762.848L625.945 721.325L642.331 717.299L652.853 760.12Z" fill="#FFB8B8"/>
<path d="M633.042 761.625L654.453 756.364L657.765 769.845L622.873 778.419C622.438 776.648 622.356 774.81 622.632 773.008C622.907 771.206 623.535 769.475 624.479 767.916C625.424 766.357 626.666 764.998 628.135 763.919C629.604 762.84 631.271 762.06 633.042 761.625Z" fill="#2F2E41"/>
<path d="M665.423 775.322C664.379 775.324 663.372 774.938 662.597 774.24C661.822 773.542 661.333 772.581 661.227 771.543L648.071 648.99L636.624 686.465L652.838 744.998C653.116 746.002 653.015 747.073 652.552 748.006C652.09 748.939 651.299 749.669 650.332 750.055L637.442 755.21C636.912 755.423 636.343 755.525 635.772 755.512C635.201 755.499 634.638 755.369 634.118 755.133C633.598 754.896 633.131 754.556 632.746 754.133C632.361 753.711 632.065 753.215 631.877 752.675L612.007 695.666C609.831 689.442 608.868 682.858 609.171 676.271L611.945 614.748L684.987 617.84L683.847 770.055C683.833 771.114 683.425 772.131 682.701 772.905C681.978 773.679 680.991 774.156 679.935 774.241L665.75 775.31C665.641 775.318 665.531 775.322 665.423 775.322Z" fill="#2F2E41"/>
<path d="M653.326 478.593C666.891 478.593 677.887 467.596 677.887 454.031C677.887 440.467 666.891 429.47 653.326 429.47C639.761 429.47 628.765 440.467 628.765 454.031C628.765 467.596 639.761 478.593 653.326 478.593Z" fill="#FFB8B8"/>
<path d="M671.388 621.843C664.92 621.843 656.884 621.314 648.571 620.767C637.21 620.019 625.464 619.247 616.696 619.754C615.512 619.871 614.317 619.684 613.227 619.209C612.136 618.733 611.185 617.987 610.464 617.04C601.425 605.466 615.367 560.333 615.965 558.417L627.312 507.949C629.807 496.849 637.782 488.661 648.124 486.581C657.804 484.636 667.167 488.512 673.172 496.956C673.491 497.404 673.809 497.863 674.128 498.335C693.68 527.291 682.621 599.231 681.88 603.874C682.913 605.111 688.498 612.106 686.962 616.965C686.338 618.941 684.642 620.288 681.92 620.968C678.453 621.655 674.92 621.948 671.388 621.843Z" fill="#CCCCCC"/>
<path d="M617.092 621.866C614.867 621.866 611.867 621.045 607.82 619.361C606.081 618.637 600.789 616.435 607.213 560.289C610.369 532.709 614.89 505.322 614.935 505.048L614.979 504.784L615.222 504.674C615.339 504.621 626.884 499.328 628.892 492.528C628.962 492.292 629.04 492.064 629.126 491.844C629.678 490.332 630.793 489.091 632.238 488.382C633.682 487.672 635.345 487.548 636.879 488.035C638.5 488.422 639.913 489.411 640.831 490.802C641.749 492.193 642.103 493.881 641.822 495.523C641.123 499.959 639.778 504.268 637.831 508.315C632.398 519.525 628.718 549.242 628.681 549.541C628.474 552.079 623.543 612.213 622.593 616.777C622.261 618.37 621.651 620.321 619.859 621.267C619 621.69 618.049 621.896 617.092 621.866Z" fill="#2F2E41"/>
<path d="M643.924 619.561C643.475 619.561 643.039 619.411 642.685 619.136C635.459 613.645 647.153 547.084 654.089 524.12C655.478 519.522 656.715 515.583 657.765 512.414C659.68 506.727 661.017 500.862 661.755 494.907C662.136 491.682 662.966 489.84 664.292 489.275C665.213 488.882 666.296 489.149 667.511 490.068C673.917 489.753 680.143 492.37 685.913 495.249L691.105 497.84L696.931 600.989C696.767 607.572 683.79 612.219 678.127 612.516C669.039 612.992 652.719 614.472 645.527 619.025C645.055 619.354 644.498 619.54 643.924 619.561Z" fill="#2F2E41"/>
<path d="M611.466 600.208C611.38 600.208 611.294 600.205 611.208 600.2L599.441 599.476C598.855 599.44 598.283 599.282 597.761 599.013C597.239 598.744 596.779 598.369 596.41 597.913C596.041 597.456 595.771 596.928 595.618 596.361C595.464 595.795 595.43 595.203 595.518 594.622L600.843 559.344L610.867 509.846C611.114 508.627 611.614 507.473 612.336 506.46C613.057 505.446 613.983 504.595 615.055 503.963C616.126 503.33 617.318 502.93 618.554 502.788C619.79 502.645 621.042 502.764 622.229 503.137C624.258 503.784 625.989 505.136 627.109 506.948C628.229 508.759 628.664 510.912 628.336 513.016L620.372 562.613L615.658 596.56C615.513 597.569 615.01 598.494 614.24 599.163C613.471 599.833 612.486 600.204 611.466 600.208Z" fill="#2F2E41"/>
<path d="M657.813 477.988C661.509 478.068 665.181 477.365 668.586 475.925C671.992 474.485 675.054 472.34 677.571 469.632C680.089 466.924 682.005 463.714 683.193 460.213C684.382 456.712 684.816 452.999 684.467 449.318C684.118 445.637 682.995 442.071 681.17 438.856C679.345 435.64 676.86 432.847 673.879 430.66C670.898 428.473 667.487 426.942 663.872 426.167C660.257 425.392 656.518 425.39 652.903 426.163C647.502 422.884 641.222 420.677 634.928 421.238C628.634 421.799 622.41 425.536 620.056 431.4C617.702 437.264 620.231 444.994 626.083 447.377C629.835 448.905 634.072 448.164 638.076 447.548C642.08 446.932 646.447 446.53 649.932 448.596C653.417 450.662 654.983 456.201 651.862 458.784C650.208 460.208 649.027 462.102 648.476 464.213C647.925 466.325 648.03 468.554 648.778 470.605C650.347 474.661 654.627 477.92 657.813 477.988Z" fill="#2F2E41"/>
<path d="M603.37 480.179C596.969 480.183 590.831 482.729 586.306 487.256C581.782 491.784 579.24 497.923 579.24 504.325C579.24 510.726 581.782 516.865 586.306 521.393C590.831 525.92 596.969 528.466 603.37 528.47C609.771 528.466 615.909 525.92 620.434 521.393C624.958 516.865 627.5 510.726 627.5 504.325C627.5 497.923 624.958 491.784 620.434 487.257C615.909 482.729 609.771 480.183 603.37 480.179Z" fill="#7CDE00"/>
<path d="M601.079 514.353C600.443 514.354 599.825 514.148 599.316 513.767L599.285 513.743L592.644 508.664C592.337 508.428 592.079 508.134 591.885 507.798C591.691 507.463 591.565 507.092 591.514 506.708C591.464 506.324 591.489 505.934 591.589 505.559C591.689 505.185 591.862 504.834 592.098 504.526C592.334 504.219 592.628 503.961 592.963 503.767C593.299 503.573 593.669 503.447 594.053 503.396C594.438 503.346 594.828 503.371 595.202 503.471C595.577 503.571 595.928 503.744 596.235 503.98L600.536 507.278L610.699 494.019C610.935 493.712 611.229 493.454 611.564 493.26C611.9 493.066 612.27 492.94 612.654 492.889C613.038 492.839 613.428 492.864 613.802 492.964C614.177 493.064 614.527 493.237 614.835 493.473L614.836 493.473L614.772 493.561L614.837 493.473C615.457 493.95 615.863 494.653 615.965 495.429C616.068 496.204 615.858 496.988 615.383 497.61L603.429 513.198C603.152 513.557 602.796 513.848 602.389 514.048C601.982 514.247 601.535 514.35 601.082 514.349L601.079 514.353Z" fill="white"/>
<path d="M654.234 547.134H569.489C568.362 547.133 567.246 547.355 566.204 547.786C565.163 548.218 564.217 548.85 563.42 549.647C562.623 550.444 561.991 551.39 561.56 552.431C561.129 553.472 560.907 554.588 560.907 555.716V640.46C560.907 641.587 561.129 642.703 561.56 643.745C561.991 644.786 562.623 645.732 563.42 646.529C564.217 647.326 565.163 647.958 566.204 648.389C567.246 648.82 568.362 649.042 569.489 649.042H654.234C655.361 649.042 656.477 648.82 657.518 648.389C658.559 647.958 659.505 647.326 660.302 646.529C661.099 645.732 661.731 644.786 662.163 643.745C662.594 642.703 662.816 641.587 662.815 640.46V555.716C662.816 554.588 662.594 553.472 662.163 552.431C661.731 551.39 661.099 550.444 660.302 549.647C659.505 548.85 658.559 548.218 657.518 547.786C656.477 547.355 655.361 547.133 654.234 547.134Z" fill="#101010"/>
<path d="M662.815 555.716V566.979H560.907V555.716C560.907 554.588 561.129 553.472 561.56 552.431C561.991 551.39 562.623 550.444 563.42 549.647C564.217 548.85 565.163 548.218 566.205 547.786C567.246 547.355 568.362 547.133 569.489 547.134H654.234C655.361 547.133 656.477 547.355 657.518 547.786C658.559 548.218 659.505 548.85 660.302 549.647C661.099 550.444 661.731 551.39 662.163 552.431C662.594 553.472 662.816 554.588 662.815 555.716Z" fill="#C09A6F"/>
<path d="M651.669 561.592C652.386 560.424 653.351 559.428 654.496 558.673C655.64 557.919 656.936 557.424 658.293 557.225C659.649 557.025 661.032 557.125 662.346 557.518C663.659 557.911 664.87 558.588 665.894 559.499L685.189 550.179L693.712 560.523L666.279 573.302C664.634 574.921 662.452 575.879 660.147 575.996C657.842 576.113 655.574 575.38 653.773 573.937C651.972 572.493 650.763 570.44 650.375 568.164C649.987 565.889 650.447 563.551 651.669 561.592Z" fill="#FFB8B8"/>
<path d="M678.472 571.602C677.522 571.602 676.599 571.282 675.853 570.694C675.107 570.106 674.58 569.284 674.357 568.361L671.555 556.711C671.341 555.834 671.414 554.913 671.763 554.081C672.113 553.249 672.719 552.552 673.495 552.091L690.397 541.976L681.757 510.341C681.148 508.093 681.281 505.708 682.136 503.541C682.951 501.486 684.38 499.733 686.228 498.52C688.075 497.307 690.252 496.692 692.461 496.76C694.67 496.828 696.805 497.575 698.574 498.899C700.344 500.223 701.662 502.061 702.35 504.161L711.889 533.286C713.061 536.837 713.07 540.668 711.915 544.224C710.76 547.78 708.502 550.875 705.468 553.06L680.949 570.798C680.229 571.32 679.362 571.601 678.472 571.602Z" fill="#2F2E41"/>
<path d="M706.401 800.856H604.401C604.136 800.856 603.882 800.751 603.694 800.563C603.507 800.376 603.401 800.121 603.401 799.856C603.401 799.591 603.507 799.336 603.694 799.149C603.882 798.961 604.136 798.856 604.401 798.856H706.401C706.667 798.856 706.921 798.961 707.108 799.149C707.296 799.336 707.401 799.591 707.401 799.856C707.401 800.121 707.296 800.376 707.108 800.563C706.921 800.751 706.667 800.856 706.401 800.856Z" fill="#CCCCCC"/>
<path d="M592.064 615.928L583.548 591.712C583.463 591.463 583.071 591.463 582.988 591.712L574.497 615.928C574.414 616.114 574.525 616.3 574.778 616.3H578.616C578.728 616.3 578.869 616.238 578.897 616.114L583.267 602.302L587.694 616.114C587.722 616.238 587.862 616.3 587.945 616.3H591.813C592.009 616.3 592.149 616.114 592.064 615.928Z" fill="white"/>
<path d="M612.91 591.526H609.294C609.098 591.526 608.96 591.679 608.96 591.804V607.939L598.62 591.618C598.593 591.557 598.425 591.526 598.367 591.526H594.642C594.502 591.526 594.361 591.679 594.361 591.804V610.354H598.648V599.887L608.96 616.208C608.987 616.269 609.156 616.3 609.211 616.3H612.91C613.106 616.3 613.217 616.144 613.217 616.022V591.804C613.217 591.679 613.106 591.526 612.91 591.526Z" fill="white"/>
<path d="M633.165 615.928L624.648 591.712C624.563 591.463 624.171 591.463 624.088 591.712L615.598 615.928C615.514 616.114 615.625 616.3 615.879 616.3H619.716C619.829 616.3 619.97 616.238 619.997 616.114L624.367 602.302L628.795 616.114C628.822 616.238 628.963 616.3 629.046 616.3H632.913C633.109 616.3 633.25 616.114 633.165 615.928Z" fill="white"/>
<path d="M648.546 601.622H639.749V596.015H646.11V591.526H635.771C635.602 591.526 635.462 591.679 635.462 591.804V616.022C635.462 616.144 635.602 616.3 635.771 616.3H639.749V606.11H648.546C648.714 606.11 648.855 605.957 648.855 605.833V601.899C648.855 601.744 648.714 601.622 648.546 601.622Z" fill="white"/>
</g>
<defs>
<clipPath id="clip0_23_120">
<rect width="883" height="800.856" fill="white"/>
</clipPath>
</defs>
</svg>
