<svg width="200" height="100" viewBox="0 0 200 100" fill="none" xmlns="http://www.w3.org/2000/svg">
<path d="M47.5372 83.1616L25.1257 25.5054C24.9018 24.9116 23.8705 24.9116 23.6518 25.5054L1.30803 83.1616C1.08928 83.6043 1.38095 84.047 2.04762 84.047H12.1466C12.4434 84.047 12.8132 83.9012 12.8862 83.6043L24.3862 50.7189L36.0372 83.6043C36.1101 83.9012 36.4799 84.047 36.6987 84.047H46.8757C47.3914 84.047 47.7612 83.6043 47.5372 83.1616Z" fill="white"/>
<path d="M102.395 25.0627H92.8792C92.3635 25.0627 91.9989 25.4273 91.9989 25.7242V64.1409L64.7906 25.2815C64.7177 25.1357 64.275 25.0627 64.1239 25.0627H54.3219C53.9521 25.0627 53.5823 25.4273 53.5823 25.7242V69.8909H64.8635V44.969L91.9989 83.8284C92.0719 83.9742 92.5146 84.0471 92.6604 84.0471H102.395C102.91 84.0471 103.202 83.6773 103.202 83.3857V25.7242C103.202 25.4273 102.91 25.0627 102.395 25.0627Z" fill="white"/>
<path d="M155.697 83.1616L133.285 25.5054C133.061 24.9116 132.03 24.9116 131.811 25.5054L109.468 83.1616C109.249 83.6043 109.541 84.047 110.207 84.047H120.306C120.603 84.047 120.973 83.9012 121.046 83.6043L132.546 50.7189L144.197 83.6043C144.27 83.9012 144.64 84.047 144.858 84.047H155.035C155.551 84.047 155.921 83.6043 155.697 83.1616Z" fill="white"/>
<path d="M196.174 49.0992H173.023V35.7502H189.763V25.0627H162.554C162.112 25.0627 161.742 25.4273 161.742 25.7242V83.3857C161.742 83.6773 162.112 84.0471 162.554 84.0471H173.023V59.7867H196.174C196.617 59.7867 196.987 59.4221 196.987 59.1252V49.7607C196.987 49.3909 196.617 49.0992 196.174 49.0992Z" fill="white"/>
</svg>
