<svg width="334" height="160" viewBox="0 0 334 160" fill="none" xmlns="http://www.w3.org/2000/svg">
<path d="M81.3225 133.962L43.8953 41.7125C43.5213 40.7625 41.7991 40.7625 41.4338 41.7125L4.11975 133.962C3.75444 134.671 4.24152 135.379 5.35485 135.379H22.2201C22.7159 135.379 23.3334 135.146 23.4552 134.671L42.6602 82.0542L62.1175 134.671C62.2392 135.146 62.8568 135.379 63.2221 135.379H80.2178C81.0789 135.379 81.6965 134.671 81.3225 133.962Z" fill="black"/>
<path d="M36 119.404L42.0645 101L51 119.404H36Z" fill="black" stroke="black"/>
<path d="M81.3225 133.962L43.8953 41.7125C43.5213 40.7625 41.7991 40.7625 41.4338 41.7125L4.11975 133.962C3.75444 134.671 4.24152 135.379 5.35485 135.379H22.2201C22.7159 135.379 23.3334 135.146 23.4552 134.671L42.6602 82.0542L62.1175 134.671C62.2392 135.146 62.8568 135.379 63.2221 135.379H80.2178C81.0789 135.379 81.6965 134.671 81.3225 133.962Z" fill="black"/>
<path d="M206 119.404L212.065 101L221 119.404H206Z" fill="black" stroke="black"/>
<path d="M251.322 133.962L213.895 41.7125C213.521 40.7625 211.799 40.7625 211.434 41.7125L174.12 133.962C173.754 134.671 174.242 135.379 175.355 135.379H192.22C192.716 135.379 193.333 135.146 193.455 134.671L212.66 82.0542L232.117 134.671C232.239 135.146 232.857 135.379 233.222 135.379H250.218C251.079 135.379 251.696 134.671 251.322 133.962Z" fill="black"/>
<path d="M163.999 41.1003H148.108C147.247 41.1003 146.638 41.6837 146.638 42.1587V103.625L101.2 41.4503C101.078 41.217 100.339 41.1003 100.087 41.1003H83.7174C83.0999 41.1003 82.4823 41.6837 82.4823 42.1587V112.825H101.322V72.9503L146.638 135.125C146.76 135.359 147.499 135.475 147.743 135.475H163.999C164.86 135.475 165.347 134.884 165.347 134.417V42.1587C165.347 41.6837 164.86 41.1003 163.999 41.1003Z" fill="black"/>
<path d="M317.611 79.5587H278.949V58.2003H306.904V41.1003H261.466C260.726 41.1003 260.109 41.6837 260.109 42.1587V134.417C260.109 134.884 260.726 135.475 261.466 135.475H278.949V96.6587H317.611C318.35 96.6587 318.968 96.0753 318.968 95.6003V80.617C318.968 80.0253 318.35 79.5587 317.611 79.5587Z" fill="black"/>
</svg>
